<svg xmlns="http://www.w3.org/2000/svg" width="209" height="60" viewBox="0 0 209 60">
    <g fill="none" fill-rule="evenodd">
        <path fill="#000" fill-rule="nonzero" d="M153.94 18.442h1.5a4.856 4.856 0 0 1 1.872.308 2.895 2.895 0 0 1 1.745 2.843 2.777 2.777 0 0 1-.802 2.197 2.77 2.77 0 0 1-2.194.803h-2.12v-6.15zm1.5 5.513c1.153 0 1.917-.097 2.464-.75.358-.46.546-1.03.531-1.612a2.582 2.582 0 0 0-.509-1.62c-.577-.75-1.438-.915-2.764-.915h-.622v4.912l.9-.015zM160.406 22.343a1.726 1.726 0 0 0 1.7 1.792 1.895 1.895 0 0 0 1.723-1.08l.487.255a2.366 2.366 0 0 1-4.495-1.005 2.327 2.327 0 0 1 2.315-2.385 2.298 2.298 0 0 1 2.337 2.422h-4.067zm3.423-.51a1.723 1.723 0 0 0-3.363 0h3.363z"/>
        <path fill="#000" d="M169.777 23.64a2.419 2.419 0 0 1-2.12 1.02 2.35 2.35 0 0 1-2.48-2.325 2.424 2.424 0 0 1 2.525-2.415 2.336 2.336 0 0 1 2.075 1.05l-.472.293a1.924 1.924 0 0 0-1.626-.788c-1.009 0-1.827.82-1.827 1.83 0 1.01.818 1.83 1.827 1.83a1.977 1.977 0 0 0 1.618-.795l.48.3z"/>
        <path fill="#000" fill-rule="nonzero" d="M171.125 22.343a1.719 1.719 0 0 0 1.7 1.792 1.895 1.895 0 0 0 1.724-1.08l.487.255a2.366 2.366 0 0 1-4.495-1.005 2.327 2.327 0 0 1 2.315-2.385 2.298 2.298 0 0 1 2.337 2.422h-4.068zm3.424-.51a1.723 1.723 0 0 0-3.364 0h3.364z"/>
        <path fill="#000" d="M176.691 20.843a2.06 2.06 0 0 1 1.686-.923c.988 0 1.678.675 1.678 2.1v2.527h-.577v-2.452c0-1.065-.337-1.65-1.206-1.65a1.453 1.453 0 0 0-1.191.607c-.322.47-.46 1.04-.39 1.605v1.89h-.577v-4.5h.577v.796zM181.665 18.352h.577v1.68h.929v.51h-.929v4.005h-.577v-4.005h-.794v-.51h.794zM184.28 20.692a1.43 1.43 0 0 1 1.16-.75.928.928 0 0 1 .525.15l-.307.495a.651.651 0 0 0-.307-.09c-.427 0-.81.368-.974.99-.086.45-.12.908-.097 1.366v1.717h-.607v-4.5h.607v.622z"/>
        <path fill="#000" fill-rule="nonzero" d="M190.212 20.032h.57v4.5h-.57v-.75a2.246 2.246 0 0 1-1.82.886 2.369 2.369 0 0 1-2.367-2.37c0-1.31 1.06-2.37 2.367-2.37a2.127 2.127 0 0 1 1.805.937l.015-.832zm-3.535 2.25a1.814 1.814 0 0 0 1.775 1.838c1.01 0 1.828-.82 1.828-1.83 0-1.01-.818-1.83-1.828-1.83a1.797 1.797 0 0 0-1.775 1.837v-.015z"/>
        <path fill="#000" d="M191.853 18.293h.577v6.255h-.577z"/>
        <path fill="#000" fill-rule="nonzero" d="M194.216 18.652a.49.49 0 0 1-.5.48.49.49 0 0 1-.5-.48.49.49 0 0 1 .5-.48c.277 0 .5.215.5.48zm-.78 1.38h.616v4.5h-.601l-.016-4.5z"/>
        <path fill="#000" d="M194.67 20.032h3.318l-2.554 4.006h2.472v.51h-3.476l2.584-4.005h-2.322z"/>
        <path fill="#000" fill-rule="nonzero" d="M198.895 22.343a1.711 1.711 0 0 0 1.693 1.792 1.895 1.895 0 0 0 1.723-1.08l.486.255a2.247 2.247 0 0 1-2.15 1.35 2.29 2.29 0 0 1-2.352-2.355 2.327 2.327 0 0 1 2.323-2.385 2.29 2.29 0 0 1 2.33 2.422h-4.053zm3.416-.51a1.723 1.723 0 0 0-3.364 0h3.364zM207.809 23.775c-.43.563-1.098.89-1.805.885a2.369 2.369 0 0 1-2.368-2.37c0-1.309 1.06-2.37 2.368-2.37a2.127 2.127 0 0 1 1.797.938v-2.566h.577v6.255h-.577l.008-.772zm-3.536-1.5a1.814 1.814 0 0 0 1.776 1.838c1.009 0 1.827-.82 1.827-1.83 0-1.011-.818-1.83-1.827-1.83a1.797 1.797 0 0 0-1.776 1.845v-.023z"/>
        <path fill="#000" d="M153.948 27.442h.615v2.25l2.434-2.25h.824l-2.929 2.738 3.169 3.367h-.81l-2.68-2.842v2.843h-.615zM159.304 29.843a2.06 2.06 0 0 1 1.686-.923c.989 0 1.678.675 1.678 2.1v2.527h-.577v-2.452c0-1.065-.337-1.65-1.206-1.65a1.453 1.453 0 0 0-1.191.607c-.322.47-.46 1.04-.39 1.605v1.89h-.576v-4.5h.576v.796z"/>
        <path fill="#000" fill-rule="nonzero" d="M168.256 31.305a2.354 2.354 0 0 1-2.372 2.325 2.354 2.354 0 0 1-2.332-2.365 2.354 2.354 0 0 1 2.352-2.345 2.336 2.336 0 0 1 2.352 2.385zm-4.112 0a1.759 1.759 0 1 0 3.513 0 1.759 1.759 0 1 0-3.513 0z"/>
        <path fill="#000" d="M168.548 29.032h.6l1.378 3.278 1.438-3.278h.105l1.453 3.278 1.401-3.278h.6l-1.948 4.5h-.112l-1.439-3.224-1.438 3.224h-.12zM176.04 27.293h.576v6.255h-.577z"/>
        <path fill="#000" fill-rule="nonzero" d="M178.017 31.343a1.711 1.711 0 0 0 1.693 1.792 1.895 1.895 0 0 0 1.723-1.08l.487.255a2.247 2.247 0 0 1-2.15 1.35 2.29 2.29 0 0 1-2.352-2.355 2.327 2.327 0 0 1 2.322-2.385 2.29 2.29 0 0 1 2.33 2.422h-4.053zm3.416-.51a1.723 1.723 0 0 0-3.364 0h3.364zM186.939 32.775a2.246 2.246 0 0 1-1.813.885 2.369 2.369 0 0 1-2.367-2.37c0-1.309 1.06-2.37 2.367-2.37a2.127 2.127 0 0 1 1.798.938v-2.566h.577v6.255h-.577l.015-.772zm-3.528-1.5a1.814 1.814 0 0 0 1.775 1.837 1.832 1.832 0 0 0 1.366-3.102 1.826 1.826 0 0 0-3.141 1.265zM193.149 32.633a3.04 3.04 0 0 1-.405 1.867 2.291 2.291 0 0 1-1.91.825 2.247 2.247 0 0 1-2.33-1.403h.63c.332.597.984.94 1.663.878a1.677 1.677 0 0 0 1.573-.75c.147-.308.214-.649.195-.99v-.338a2.32 2.32 0 0 1-4.12-1.432 2.339 2.339 0 0 1 2.307-2.34 2.246 2.246 0 0 1 1.813.9v-.75h.584v3.532zm-4.113-1.336A1.681 1.681 0 0 0 190.864 33a1.647 1.647 0 0 0 1.723-1.74 1.711 1.711 0 0 0-1.738-1.777 1.79 1.79 0 0 0-1.813 1.814zM194.625 31.343a1.726 1.726 0 0 0 1.7 1.792 1.895 1.895 0 0 0 1.723-1.08l.487.255a2.247 2.247 0 0 1-2.15 1.35 2.29 2.29 0 0 1-2.367-2.355 2.327 2.327 0 0 1 2.322-2.385 2.29 2.29 0 0 1 2.33 2.422h-4.045zm3.423-.51a1.723 1.723 0 0 0-3.363 0h3.363z"/>
        <path fill="#000" d="M153.963 42.547v-6.104h.128l4.037 4.68v-4.68h.615v6.105h-.135l-4.038-4.613v4.612z"/>
        <path fill="#000" fill-rule="nonzero" d="M160.376 40.343a1.711 1.711 0 0 0 1.693 1.792 1.895 1.895 0 0 0 1.723-1.08l.486.255a2.247 2.247 0 0 1-2.15 1.35 2.29 2.29 0 0 1-2.352-2.355 2.327 2.327 0 0 1 2.323-2.385 2.29 2.29 0 0 1 2.33 2.422h-4.053zm3.416-.51a1.716 1.716 0 0 0-3.356 0h3.356z"/>
        <path fill="#000" d="M165.874 36.352h.577v1.68h.929v.51h-.93v4.005h-.576v-4.005h-.794v-.51h.794zM167.485 38.032h.599l1.378 3.278 1.446-3.278h.097l1.454 3.278 1.4-3.278h.607l-1.955 4.5h-.112l-1.438-3.224-1.439 3.224h-.12z"/>
        <path fill="#000" fill-rule="nonzero" d="M179.5 40.305a2.354 2.354 0 0 1-2.372 2.325 2.354 2.354 0 0 1-2.332-2.365 2.354 2.354 0 0 1 2.352-2.345 2.336 2.336 0 0 1 2.352 2.385zm-4.112 0a1.761 1.761 0 1 0 1.76-1.763c-.972 0-1.76.79-1.76 1.763z"/>
        <path fill="#000" d="M180.804 38.693a1.43 1.43 0 0 1 1.16-.75.92.92 0 0 1 .518.15l-.307.494a.651.651 0 0 0-.308-.09c-.419 0-.801.368-.973.99-.08.45-.11.909-.09 1.365v1.718h-.615v-4.5h.615v.623zM182.834 36.292h.577v3.563l2.075-1.822h.861l-2.472 2.152 2.652 2.362h-.824l-2.247-2.032v2.032h-.577zM76.409 23.122c-1.319-1.732-2.48-3-4.495-3a3.092 3.092 0 0 0-3.296 3.128A4.944 4.944 0 0 0 70.79 27c4.585 3.398 7.948 5.745 7.948 9.69a6.746 6.746 0 0 1-6.824 6.57c-3.363 0-5.566-1.875-7.371-5.175l2.075-1.252c1.498 2.684 3.228 4.042 5.094 4.042a4.312 4.312 0 0 0 3.107-1.14 4.322 4.322 0 0 0 1.387-3.008c0-2.684-2.51-4.214-8.053-8.707a6.393 6.393 0 0 1-2.067-4.695 5.673 5.673 0 0 1 1.729-4.129 5.66 5.66 0 0 1 4.181-1.586c2.997 0 4.787 1.808 6.383 3.983l-1.97 1.53z"/>
        <path fill="#000" fill-rule="nonzero" d="M85.6 33.803c.105 4.147 2.922 7.177 6.794 7.177 3.873 0 5.574-2.145 6.9-4.32l1.94 1.02c-1.835 3.608-4.66 5.407-8.6 5.407-5.993 0-9.409-4.59-9.409-9.42s3.671-9.562 9.274-9.562c5.132 0 9.274 3.75 9.342 9.698H85.6zm13.694-2.04c-.952-3.75-3.633-5.408-6.742-5.408s-5.641 1.732-6.697 5.407h13.439z"/>
        <path fill="#000" d="M105.953 42.645l3.469-24.42h.404l9.918 20.025 9.851-20.025h.404l3.469 24.42h-2.375l-2.374-17.483-8.668 17.483h-.614l-8.764-17.618-2.345 17.618zM138.434 18.225h2.442v24.42h-2.442zM.39 15.195V44.64l12.734 7.358V37.275l12.735-7.357z"/>
        <path fill="#B3B3B3" d="M38.594 7.838L25.859.473.39 15.194l12.735 7.365zM51.329 44.64l-12.735-7.365-25.47 14.723 12.735 7.364z"/>
        <path fill="#000" d="M51.329 44.64V15.195L38.594 7.838V22.56l-12.735 7.358z"/>
    </g>
</svg>
