<?xml version="1.0" encoding="UTF-8"?>
<svg width="31px" height="34px" viewBox="0 0 31 34" version="1.1" xmlns="http://www.w3.org/2000/svg" xmlns:xlink="http://www.w3.org/1999/xlink">
    <!-- Generator: sketchtool 53 (72520) - https://sketchapp.com -->
    <title>C6E43B87-9B09-40B1-A3AD-81260F47D025</title>
    <desc>Created with sketchtool.</desc>
    <defs>
        <path d="M10.4938995,0.231207201 C10.710303,1.28528544 10.490103,2.27840494 9.90163721,3.00229 C9.31317146,3.72617506 8.40832628,4.14653638 7.3326362,4.19733533 L6.68089457,4.17574578 C4.52951442,3.98778966 4.18529359,1.97107129 4.1498591,1.71707653 C4.14792398,1.70057546 4.15805599,1.68505636 4.17390393,1.68024729 C4.94679487,1.46562548 5.77470429,1.60510359 6.43538413,2.06123943 C6.58898651,2.17353082 6.72358577,2.30989043 6.83402222,2.46509109 C6.83954311,2.47342328 6.84942431,2.47772629 6.85925957,2.47608131 C6.86909483,2.47443633 6.87705124,2.46714991 6.87958085,2.45747125 C7.02202502,1.85114139 7.32858382,1.29607412 7.76544327,0.853494356 C8.39820214,0.246446887 9.23977143,-0.0481870317 10.2306718,0.00642184107 L10.4230305,0.0153116576 C10.4373467,0.018616005 10.4488801,0.0292255063 10.4534029,0.0432510808 L10.4938995,0.231207201 Z M6.25314957,3.16611662 L6.25314957,3.16357667 C6.25684577,3.15965875 6.25684577,3.15352488 6.25314957,3.14960696 C6.25314957,3.14960696 6.18481162,3.08991819 6.08103916,3.00482995 L5.70138384,2.6924164 L5.3128699,2.38889266 C5.20656641,2.30634437 5.13443189,2.25427544 5.13443189,2.25427544 C5.1315578,2.25330743 5.12844737,2.25330743 5.12557327,2.25427544 C5.12284189,2.2548703 5.12047707,2.25657184 5.11903907,2.25897694 C5.11760107,2.26138204 5.11721784,2.26427671 5.11798016,2.26697518 L5.11798016,2.27459502 C5.11798016,2.27459502 5.12557327,2.30126447 5.142025,2.34317361 C5.1652688,2.39816494 5.1927726,2.45124311 5.22428365,2.50192033 C5.24326642,2.5323997 5.2635147,2.56541902 5.28755954,2.59716836 C5.31160438,2.62891771 5.33691473,2.66066705 5.36602164,2.6924164 C5.39433085,2.72528223 5.42432183,2.75665049 5.4558734,2.78639446 C5.48877686,2.8181438 5.52294584,2.84608323 5.55711482,2.87529262 C5.68760383,2.98083529 5.83532102,3.06290292 5.99371844,3.11785762 C6.04996868,3.13580045 6.10750761,3.14938669 6.16582885,3.15849678 C6.21012197,3.16611662 6.23796336,3.16611662 6.23796336,3.16611662 L6.24555647,3.16611662 C6.24790578,3.16747777 6.25080026,3.16747777 6.25314957,3.16611662 Z M9.63461297,0.904293307 L9.62828538,0.891593569 C9.63128964,0.88696099 9.63128964,0.880986463 9.62828538,0.876353884 C9.62252068,0.871179625 9.61380179,0.871179625 9.6080371,0.876353884 L9.52830948,0.961442128 C9.47642325,1.016051 9.4017577,1.09224943 9.3157025,1.18495751 L8.68294363,1.87328331 L8.05777787,2.56922894 C7.97298818,2.66447697 7.9033847,2.7457553 7.85529503,2.80163414 L7.77809845,2.89053231 C7.7749328,2.89464706 7.7749328,2.90038726 7.77809845,2.90450202 C7.77925351,2.90805262 7.78177731,2.91099118 7.78510629,2.91266153 C7.78843526,2.91433188 7.79229215,2.91459489 7.7958157,2.91339184 L7.8034088,2.91339184 L7.83378123,2.9006921 C7.85402951,2.89180228 7.88313642,2.87910254 7.91983643,2.86132291 C7.95653645,2.84354328 7.99956405,2.8232237 8.04638821,2.79528427 C8.09321236,2.76734485 8.14383307,2.73432553 8.19951585,2.69876627 C8.25519863,2.663207 8.31847452,2.62256784 8.37289178,2.57811876 C8.42730905,2.53366967 8.49944356,2.48541067 8.55386082,2.43207177 C8.60827808,2.37873287 8.67408501,2.3190441 8.73482986,2.26443523 C8.79557471,2.20982636 8.85505404,2.14886762 8.91200234,2.08282898 C8.96895064,2.01679034 9.0233679,1.95964152 9.07778516,1.88979296 C9.13220243,1.81994441 9.18155762,1.75898566 9.22711626,1.69294703 C9.27267489,1.62690839 9.31317146,1.55705983 9.35366803,1.49991101 C9.3941646,1.44276219 9.42706806,1.37291363 9.458706,1.31576481 C9.49034395,1.25861599 9.51691982,1.20273715 9.53843362,1.15320817 C9.55907924,1.11182739 9.57766308,1.06944267 9.5941164,1.02621079 C9.6058993,0.997175167 9.61603957,0.967495236 9.62448883,0.937312626 L9.63461297,0.904293307 Z M11.7543552,6.07308661 C12.0416277,6.13150541 12.0783277,6.55186673 11.8049759,6.67886411 L8.08308822,8.44158772 C7.50595989,8.71991453 6.85140464,8.79205264 6.22783922,8.6460535 L3.82335552,8.08091517 L3.67275891,8.0453559 L3.61327957,8.03138619 C2.74513441,7.86374965 2.13515486,8.23077208 1.52517531,8.79337046 C1.40629639,8.90466991 1.23992943,8.9491305 1.08163583,8.91190379 C0.923342218,8.87467707 0.793982112,8.76066884 0.736757759,8.60795429 L0.0318643792,6.71569335 C-0.0391846846,6.52829257 0.0109799778,6.3163557 0.158416153,6.18103439 L1.02782684,5.40000051 C1.87014682,4.63688231 3.02572438,4.32477876 4.1359384,4.56054784 C4.17390393,4.56816768 4.21186946,4.57705749 4.249835,4.58721728 L7.77556741,5.25776344 C7.8603571,5.27300313 7.94514679,5.28824281 8.02867096,5.30602245 C8.10628587,5.32059259 8.18000152,5.35130744 8.24507449,5.39619059 C8.39350357,5.57157097 8.45241076,5.80615276 8.40452973,6.03117748 C8.36932829,6.21797647 8.2625578,6.38348353 8.10713306,6.49217796 C7.95374429,6.60657171 7.75869728,6.64914265 7.57181906,6.60901555 L4.89145249,6.03117748 C4.84797049,6.01938123 4.80151848,6.02739487 4.76445826,6.05308582 C4.72739804,6.07877678 4.703489,6.11953895 4.69909379,6.16452473 C4.67966619,6.25284343 4.73247573,6.3409833 4.81931798,6.36518058 L7.50095006,6.9455586 L7.51233972,6.9455586 C8.01854682,7.04969645 8.3526435,6.8731701 8.66269535,6.77665209 L10.7596582,6.01466782 C10.9264828,5.95534431 11.1061454,5.94218407 11.279786,5.97656861 L11.7543552,6.07308661 Z" id="path-1"></path>
    </defs>
    <g id="SeMI-Website" stroke="none" stroke-width="1" fill="none" fill-rule="evenodd">
        <g id="Products" transform="translate(-768.000000, -2112.000000)">
            <g id="Group-5" transform="translate(-135.000000, 274.000000)">
                <g id="Group-9" transform="translate(463.000000, 1798.000000)">
                    <g id="Group-6" transform="translate(400.000000, 0.000000)">
                        <g id="Group-3">
                            <g id="Group-4">
                                <g id="icons/PointSolutions/SME" transform="translate(40.000000, 40.000000)">
                                    <g id="Group-5-Copy-5">
                                        <g id="Group-3">
                                            <polygon id="Path" fill="#0070E6" points="2.14686045 23.8979852 2.14686045 9.32889278 15.2963807 2.04473095 28.4459009 9.32889278 28.4459009 23.8979852 15.2484921 31.3347351"></polygon>
                                            <path d="M15.2963807,0 L0,8.43415877 L0,25.3036168 L15.1471098,33.6559431 L15.2963807,33.7380607 L30.5927614,25.3036168 L30.5927614,8.43415877 L15.445353,0.0821175701 L15.2963807,0 Z M2.14164962,23.9207962 L2.14164962,9.38914894 L15.2264879,2.12370869 L28.3110604,9.38914894 L28.3110604,23.9207962 L15.2264879,31.1862365 L2.14164962,23.9207962 Z" id="Fill-24" fill="#ABABAB"></path>
                                        </g>
                                        <g id="Group-32-Copy">
                                            <g id="Group-23" transform="translate(1.610145, 8.517582)" fill="#04152A">
                                                <polygon id="Fill-9" points="0.348533935 0.960205655 0.120252845 0.829342874 0.188285393 0.719694177 0.416566484 0.850301366"></polygon>
                                                <polygon id="Fill-13" points="13.6383468 8.58303932 13.3760494 8.4327516 13.444082 8.32284731 13.6383468 8.43428515 13.8326116 8.32284731 13.9006442 8.4327516"></polygon>
                                                <polygon id="Fill-17" points="26.9281597 0.960205655 26.8601271 0.850301366 27.0884082 0.719694177 27.156175 0.829342874"></polygon>
                                                <polygon id="Fill-19" points="13.5719619 23.0727441 13.704838 23.0727441 13.704838 22.8171527 13.5719619 22.8171527"></polygon>
                                                <polygon id="Fill-22" points="13.5719619 9.41317453 13.704838 9.41317453 13.704838 9.15758316 13.5719619 9.15758316"></polygon>
                                            </g>
                                            <path d="M15.2963807,0 L0,8.43415877 L0,25.3036168 L15.1471098,33.6559431 L15.2963807,33.7380607 L30.5927614,25.3036168 L30.5927614,8.43415877 L15.445353,0.0821175701 L15.2963807,0 Z M2.14164962,23.9207962 L2.14164962,9.38914894 L15.2264879,2.12370869 L28.3110604,9.38914894 L28.3110604,23.9207962 L15.2264879,31.1862365 L2.14164962,23.9207962 Z" id="Fill-24" fill="#EAE7E7"></path>
                                            <path d="M15.2237128,16.8064852 L15.2990229,16.9315755 L14.600542,17.3126925 L14.5252319,17.1876022 L15.2237128,16.8064852 Z M13.826751,17.5687192 L13.9020611,17.6938095 L13.2035802,18.0749265 L13.1282701,17.9498362 L13.826751,17.5687192 Z M12.4297892,18.3309532 L12.5050993,18.4560435 L11.8066184,18.8371605 L11.7313083,18.7120701 L12.4297892,18.3309532 Z M11.0328274,19.0931871 L11.1081375,19.2182774 L10.4096566,19.5993944 L10.3343465,19.4743041 L11.0328274,19.0931871 Z M9.63586556,19.8554211 L9.71117572,19.9805114 L9.01269482,20.3616284 L8.93738466,20.2365381 L9.63586556,19.8554211 Z M8.23890376,20.6176551 L8.31421392,20.7427454 L7.61573303,21.1238624 L7.54042287,20.9987721 L8.23890376,20.6176551 Z M6.84194197,21.3798891 L6.91725213,21.5049794 L6.21877123,21.8860964 L6.14346107,21.7610061 L6.84194197,21.3798891 Z M5.44498017,22.142123 L5.52029033,22.2672134 L4.82180943,22.6483304 L4.74649927,22.52324 L5.44498017,22.142123 Z M4.04801837,22.904357 L4.12332853,23.0294473 L3.42484763,23.4105643 L3.34953747,23.285474 L4.04801837,22.904357 Z M2.65105657,23.666591 L2.72636673,23.7916813 L2.1793047,24.0901786 L2.10399454,23.9650883 L2.65105657,23.666591 Z" id="Path-2" fill="#EAE7E7" fill-rule="nonzero"></path>
                                            <path d="M28.3480436,23.8578888 L28.2740772,23.9837037 L27.5715504,23.609387 L27.6455168,23.4835721 L28.3480436,23.8578888 Z M26.9429901,23.1092554 L26.8690237,23.2350703 L26.1664969,22.8607536 L26.2404633,22.7349387 L26.9429901,23.1092554 Z M25.5379366,22.360622 L25.4639702,22.4864369 L24.7614434,22.1121202 L24.8354098,21.9863053 L25.5379366,22.360622 Z M24.1328831,21.6119886 L24.0589167,21.7378035 L23.3563899,21.3634868 L23.4303563,21.2376719 L24.1328831,21.6119886 Z M22.7278296,20.8633552 L22.6538632,20.9891701 L21.9513364,20.6148534 L22.0253028,20.4890386 L22.7278296,20.8633552 Z M21.3227761,20.1147219 L21.2488097,20.2405367 L20.5462829,19.8662201 L20.6202493,19.7404052 L21.3227761,20.1147219 Z M19.9177226,19.3660885 L19.8437562,19.4919034 L19.1412294,19.1175867 L19.2151958,18.9917718 L19.9177226,19.3660885 Z M18.5126691,18.6174551 L18.4387027,18.74327 L17.7361759,18.3689533 L17.8101423,18.2431384 L18.5126691,18.6174551 Z M17.1076156,17.8688217 L17.0336492,17.9946366 L16.3311224,17.6203199 L16.4050888,17.494505 L17.1076156,17.8688217 Z M15.7025621,17.1201883 L15.6285957,17.2460032 L15.4738063,17.1635291 L15.5477727,17.0377143 L15.7025621,17.1201883 Z" id="Path-4" fill="#EAE7E7" fill-rule="nonzero"></path>
                                            <path d="M15.1506311,2.12403856 L15.3626579,2.12337882 L15.3678154,2.8898 L15.1557885,2.89045974 L15.1506311,2.12403856 Z M15.160946,3.65688093 L15.3729728,3.65622119 L15.3781302,4.42264238 L15.1661034,4.42330212 L15.160946,3.65688093 Z M15.1712608,5.18972331 L15.3832876,5.18906357 L15.388445,5.95548476 L15.1764182,5.9561445 L15.1712608,5.18972331 Z M15.1815756,6.72256568 L15.3936024,6.72190594 L15.3987598,7.48832713 L15.186733,7.48898687 L15.1815756,6.72256568 Z M15.1918904,8.25540806 L15.4039173,8.25474832 L15.4090747,9.02116951 L15.1970478,9.02182925 L15.1918904,8.25540806 Z M15.2022053,9.78825044 L15.4142321,9.7875907 L15.4193895,10.5540119 L15.2073627,10.5546716 L15.2022053,9.78825044 Z M15.2125201,11.3210928 L15.4245469,11.3204331 L15.4297043,12.0868543 L15.2176775,12.087514 L15.2125201,11.3210928 Z M15.2228349,12.8539352 L15.4348617,12.8532755 L15.4400191,13.6196966 L15.2279923,13.6203564 L15.2228349,12.8539352 Z M15.2331497,14.3867776 L15.4451766,14.3861178 L15.450334,15.152539 L15.2383071,15.1531988 L15.2331497,14.3867776 Z M15.2434646,15.9196199 L15.4554914,15.9189602 L15.4606488,16.6853814 L15.248622,16.6860411 L15.2434646,15.9196199 Z" id="Path-3" fill="#EAE7E7" fill-rule="nonzero"></path>
                                            <g id="Group-31" transform="translate(8.587442, 10.479246)"></g>
                                        </g>
                                        <g id="icons/industries/SME" transform="translate(9.389857, 10.380942)">
                                            <g id="background/black" transform="translate(0.000000, 1.001868)">
                                                <mask id="mask-2" fill="white">
                                                    <use xlink:href="#path-1"></use>
                                                </mask>
                                                <g id="Mask" fill-rule="nonzero"></g>
                                                <g id="background/white" mask="url(#mask-2)" fill="#FFFFFF">
                                                    <g transform="translate(0.000000, -1.001868)" id="Combined-Shape">
                                                        <polygon points="0 0 12.0224185 0 12.0224185 12.0224185 0 12.0224185"></polygon>
                                                    </g>
                                                </g>
                                            </g>
                                        </g>
                                    </g>
                                </g>
                            </g>
                        </g>
                    </g>
                </g>
            </g>
        </g>
    </g>
</svg>