<svg xmlns="http://www.w3.org/2000/svg" width="87" height="102" viewBox="0 0 87 102">
    <defs>
        <linearGradient id="a" x1="-5061.5%" x2="51.5%" y1="50.5%" y2="50.5%">
            <stop offset="0%" stop-color="#364A68"/>
            <stop offset="11%" stop-color="#543F69"/>
            <stop offset="34%" stop-color="#8F296C"/>
            <stop offset="55%" stop-color="#BD186E"/>
            <stop offset="74%" stop-color="#DE0B70"/>
            <stop offset="90%" stop-color="#F30471"/>
            <stop offset="100%" stop-color="#FA0171"/>
        </linearGradient>
    </defs>
    <g fill="none" fill-rule="evenodd">
        <path fill="#000" fill-rule="nonzero" d="M.51 96.922h.923a1.988 1.988 0 0 1 1.552.488c.383.403.584.945.555 1.5a1.89 1.89 0 0 1-.652 1.5c-.426.284-.94.406-1.448.345H.51v-3.832zm.75.75v2.393h.383c.328.043.659-.065.9-.293.199-.244.3-.554.284-.87a1.125 1.125 0 0 0-1.267-1.23h-.3zM6.697 100.192c-.289.426-.784.664-1.297.623a1.5 1.5 0 0 1 0-3 1.448 1.448 0 0 1 1.5 1.5v.157H4.65a.75.75 0 0 0 .787.653.9.9 0 0 0 .705-.278l.555.346zM6.18 99a.818.818 0 0 0-1.5 0h1.5z"/>
        <path fill="#000" d="M10.088 100.222a1.5 1.5 0 0 1-1.275.593 1.5 1.5 0 0 1-1.583-1.5 1.5 1.5 0 0 1 1.59-1.5 1.5 1.5 0 0 1 1.305.638l-.592.33a.877.877 0 0 0-.705-.323.833.833 0 0 0-.885.855.787.787 0 0 0 .854.817c.288.02.567-.1.75-.322l.54.412z"/>
        <path fill="#000" fill-rule="nonzero" d="M13.32 100.192c-.291.424-.785.66-1.297.623a1.5 1.5 0 0 1 0-3 1.448 1.448 0 0 1 1.5 1.5v.157H11.25c.05.394.4.68.795.653a.892.892 0 0 0 .697-.278l.578.346zm-.525-1.214a.818.818 0 0 0-1.5 0h1.5z"/>
        <path fill="#000" d="M14.685 98.205c.222-.222.52-.35.832-.36a.93.93 0 0 1 .983.968v1.927h-.75v-1.335c0-.555-.053-.915-.48-.915a.563.563 0 0 0-.48.27 1.41 1.41 0 0 0-.135.75v1.2h-.705v-2.82h.705l.03.315zM17.16 96.877h.705v1.043h.42v.6h-.42v2.25h-.705v-2.25h-.36v-.6h.36zM19.027 98.25a.652.652 0 0 1 .593-.427.593.593 0 0 1 .307.075l-.217.6a.532.532 0 0 0-.203-.053c-.202 0-.36.233-.382.645v1.627h-.705v-2.82h.607v.353z"/>
        <path fill="#000" fill-rule="nonzero" d="M22.275 100.44c-.225.241-.54.377-.87.375a1.41 1.41 0 0 1-1.343-1.5 1.372 1.372 0 0 1 1.32-1.5c.338-.002.662.136.893.383v-.308h.705v2.82h-.705v-.27zm-1.5-1.117a.75.75 0 1 0 .75-.833.75.75 0 0 0-.758.833h.008z"/>
        <path fill="#000" d="M23.527 96.832h.706v3.908h-.706z"/>
        <path fill="#000" fill-rule="nonzero" d="M25.5 97.222a.45.45 0 0 1-.45.45.465.465 0 0 1-.45-.487.435.435 0 0 1 .45-.428.458.458 0 0 1 .45.465zm-.802.698h.704v2.82h-.652l-.052-2.82z"/>
        <path fill="#000" d="M25.852 97.92h2.16l-1.267 2.25h1.2v.6h-2.25l1.275-2.25h-1.117z"/>
        <path fill="#000" fill-rule="nonzero" d="M30.968 100.192a1.598 1.598 0 1 1 .187-.817v.157h-2.25a.75.75 0 0 0 .787.653.9.9 0 0 0 .706-.278l.57.285zM30.45 99a.817.817 0 0 0-1.537 0h1.537zM33.75 100.44c-.223.244-.54.38-.87.375a1.41 1.41 0 0 1-1.343-1.5 1.38 1.38 0 0 1 1.328-1.5c.343.012.665.17.885.435v-1.395h.712v3.907h-.712v-.322zm-1.5-1.117a.75.75 0 0 0 .75.84.84.84 0 0 0 0-1.673.75.75 0 0 0-.75.833z"/>
        <path fill="#000" d="M36.525 96.922h.75v1.328l1.035-1.313h.877l-1.342 1.703 1.5 2.115h-.915l-1.178-1.695v1.695h-.75zM40.343 98.205c.222-.22.52-.349.832-.36a.922.922 0 0 1 .968.968v1.927h-.706v-1.335c0-.555-.044-.915-.48-.915a.555.555 0 0 0-.472.27 1.418 1.418 0 0 0-.142.75v1.2h-.706v-2.82h.706v.315z"/>
        <path fill="#000" fill-rule="nonzero" d="M45.563 99.323a1.5 1.5 0 1 1-3 0 1.5 1.5 0 0 1 3 0zm-2.25 0a.75.75 0 1 0 1.495-.12.75.75 0 0 0-1.495.12z"/>
        <path fill="#000" d="M45.75 97.92h.697l.563 1.597.608-1.597H48l.6 1.582.57-1.582h.697l-1.027 2.82h-.45l-.6-1.612-.623 1.612h-.442zM50.138 96.832h.705v3.908h-.706z"/>
        <path fill="#000" fill-rule="nonzero" d="M54 100.192c-.291.424-.785.66-1.297.623a1.433 1.433 0 0 1-1.5-1.5 1.5 1.5 0 1 1 3 .053v.157h-2.25a.75.75 0 0 0 .75.652.923.923 0 0 0 .704-.277l.593.292zm-.525-1.214a.818.818 0 0 0-1.5 0h1.5zM56.782 100.44c-.223.243-.54.38-.87.375a1.41 1.41 0 0 1-1.342-1.5 1.38 1.38 0 0 1 1.328-1.5c.335 0 .655.138.884.383v-1.395h.706v3.907h-.706v-.27zm-1.5-1.117a.75.75 0 1 0 1.491-.166.75.75 0 0 0-1.49.166zM60.9 100.335c.054.44-.105.88-.428 1.185a1.5 1.5 0 0 1-1.027.315 1.357 1.357 0 0 1-1.5-.892h.75a.75.75 0 0 0 .652.247.885.885 0 0 0 .6-.188.75.75 0 0 0 .173-.614c-.223.232-.533.36-.855.352a1.38 1.38 0 0 1-1.358-1.455 1.343 1.343 0 0 1 1.32-1.44c.338-.002.662.136.893.383v-.308h.705l.075 2.415zm-2.205-1.042a.75.75 0 1 0 .75-.706.75.75 0 0 0-.75.75v-.044zM64.17 100.192a1.598 1.598 0 1 1 .188-.817v.157h-2.25a.75.75 0 0 0 .75.653.908.908 0 0 0 .705-.278l.607.285zM63.653 99a.817.817 0 0 0-1.538 0h1.538z"/>
        <path fill="#000" d="M66.308 96.922h.697l1.635 2.505v-2.505h.75v3.818h-.705l-1.65-2.49v2.505h-.75z"/>
        <path fill="#000" fill-rule="nonzero" d="M72.75 100.192a1.5 1.5 0 1 1-1.305-2.347 1.448 1.448 0 0 1 1.5 1.5v.157h-2.25c.05.394.4.68.795.653a.892.892 0 0 0 .698-.278l.562.316zm-.517-1.214a.75.75 0 0 0-.75-.533.75.75 0 0 0-.75.533h1.5z"/>
        <path fill="#000" d="M73.5 96.877h.705v1.043h.42v.6h-.42v2.25H73.5v-2.25h-.36v-.6h.36z"/>
        <path fill="#000" d="M74.565 97.92h.698l.562 1.597.615-1.597h.42l.6 1.582.57-1.582h.72l-1.028 2.82h-.472l-.6-1.612-.623 1.612h-.442z"/>
        <path fill="#000" fill-rule="nonzero" d="M81.87 99.323a1.5 1.5 0 1 1-3 0 1.5 1.5 0 0 1 3 0zm-2.25 0a.75.75 0 0 0 .75.817.817.817 0 1 0-.75-.817z"/>
        <path fill="#000" d="M82.793 98.25a.66.66 0 0 1 .6-.427.638.638 0 0 1 .307.075l-.218.6a.577.577 0 0 0-.21-.053c-.202 0-.36.233-.375.645v1.628h-.705v-2.82h.608l-.007.352zM84 96.832h.705v2.25l1.043-1.162h.884l-1.215 1.35 1.365 1.5h-.877l-1.2-1.305v1.305H84zM19.5 71.722c-1.163-1.5-2.175-2.617-3.93-2.617a2.708 2.708 0 0 0-2.888 2.707 4.305 4.305 0 0 0 1.905 3.3c4.02 3 6.96 5.033 6.96 8.483a5.88 5.88 0 0 1-6 5.745c-2.947 0-4.882-1.635-6.457-4.5l1.815-1.103c1.275 2.356 2.828 3.548 4.463 3.548a3.787 3.787 0 0 0 3.96-3.638c0-2.347-2.206-3.69-7.058-7.62a5.588 5.588 0 0 1-1.77-4.124 4.965 4.965 0 0 1 5.182-5.003c2.618 0 4.193 1.575 5.595 3.48L19.5 71.723z"/>
        <path fill="#000" fill-rule="nonzero" d="M27.578 81.067c.09 3.63 2.557 6.278 5.954 6.278 3.398 0 4.883-1.875 6-3.75l1.718.862c-1.612 3.158-4.08 4.74-7.538 4.74a8.018 8.018 0 0 1-8.25-8.25c0-4.312 3.188-8.362 8.13-8.362 4.5 0 8.123 3.248 8.183 8.483H27.578zm12-1.784c-.833-3.278-3.18-4.733-5.918-4.733-2.737 0-4.942 1.5-5.865 4.733h11.782z"/>
        <path fill="#000" d="M45.405 88.808l3-21.376h.352l8.693 17.535 8.602-17.534h.36l3.038 21.374h-2.047L65.317 73.5 57.75 88.808h-.525l-7.68-15.42-2.055 15.42zM73.86 67.433h2.145v21.374H73.86z"/>
        <path fill="url(#a)" d="M56.273 7.912V7.89l-.023.015z"/>
        <path fill="#000" d="M18 15.195V44.64l12.75 7.358V37.275l12.75-7.357z"/>
        <path fill="#B3B3B3" d="M56.25 7.838L43.5.473 18 15.194l12.75 7.365zM69 44.64l-12.75-7.365-25.5 14.723 12.75 7.364z"/>
        <path fill="#000" d="M69 44.64V15.195L56.25 7.838V22.56L43.5 29.918z"/>
    </g>
</svg>
