<svg xmlns="http://www.w3.org/2000/svg" width="141" height="85" viewBox="0 0 141 85">
    <defs>
        <linearGradient id="a" x1="0%" x2="100.016%" y1="50.002%" y2="50.002%">
            <stop offset="0%" stop-color="#304A6C"/>
            <stop offset="100%" stop-color="#38D611"/>
        </linearGradient>
    </defs>
    <g fill="none" fill-rule="nonzero">
        <path fill="#38D611" d="M137.86 62.86l-1.74-1 .5-.86 1.74 1-.5.86zm-135.5 0l-.5-.86.88-.52.5.86-.88.52zM5 61.34l-.5-.86 1.74-1 .5.86-1.74 1zm129.4-.48l-1.72-1 .5-.86 1.72 1-.5.86zm-126-1.52l-.5-.86 1.74-1 .5.86-1.74 1zm122.6-.48l-1.72-1 .5-.86 1.72 1-.5.86zM11.98 57.34l-.5-.86 1.74-1 .5.86-1.74 1zm115.56-.48l-1.74-1 .5-.86 1.74 1-.5.86zm-112-1.52l-.5-.86 1.72-1 .5.86-1.72 1zm108.62-.48l-1.74-1 .5-.86 1.74 1-.5.86zM19 53.34l-.5-.86 1.72-1 .5.86-1.72 1zm101.68-.48l-1.72-1 .5-.86 1.54 1-.32.86zm-98.22-1.52l-.5-.86 1.74-1 .5.86-1.74 1zm94.54-.48l-1.72-1 .5-.86 1.72 1-.5.86zm-91.3-1.52l-.5-.86 1.74-1 .5.86-1.74 1zm87.84-.48l-1.74-1 .5-.86 1.74 1-.5.86zm-84.38-1.52l-.5-.86 1.74-1 .5.86-1.74 1zm80.92-.48l-1.74-1L109 45l1.74 1-.66.86zm-77.44-1.52l-.5-.86 1.72-1 .5.86-1.72 1zm74-.48l-1.74-1 .5-.86 1.74 1-.5.86zm-70.52-1.52l-.5-.86 1.72-1 .5.86-1.72 1zm67.04-.48l-1.72-1 .5-.86 1.72 1-.5.86zm-63.58-1.52l-.5-.86 1.74-1 .5.86-1.74 1zm60.12-.48l-1.72-1 .5-.86 1.72 1-.5.86zM43 39.34l-.5-.86 1.74-1 .5.86-1.74 1zm53.2-.48l-1.74-1L95 37l1.74 1-.54.86zm-49.72-1.52l-.5-.86 1.72-1 .5.86-1.72 1zm46.26-.48l-1.74-1 .5-.86 1.74 1-.5.86zm-42.8-1.52l-.5-.86 1.72-1 .5.86-1.72 1zm39.34-.48l-1.74-1 .5-.86 1.74 1-.5.86zM53.4 33.34l-.4-.86 1.74-1 .5.86-1.84 1zm32.4-.48l-1.72-1 .5-.86 1.72 1-.5.86zM57 31.34l-.5-.86 1.74-1 .5.86-1.74 1zm25.48-.48l-1.72-1 .5-.86L83 30l-.52.86zm-22-1.52l-.5-.86 1.74-1 .5.86-1.74 1zM79 28.86l-1.74-1 .5-.86 1.74 1-.5.86zm-15.08-1.52l-.5-.86 1.72-1 .5.86-1.72 1zm11.62-.48l-1.74-1 .5-.86 1.74 1-.5.86zm-8.16-1.52l-.5-.86 1.72-1 .5.86-1.72 1zm4.7-.48l-1.74-1 .5-.86 1.74 1-.5.86z"/>
        <path fill="url(#a)" d="M104.1 84.38l-34-19.64-34 19.64-36-20.8V22l38-22v39.34l32-18.48 32 18.48V0l38 22v41.58l-36 20.8zm-34-24.26l34 19.64 32-18.48V24.32L106.1 7v39.26l-36-20.78-36 20.78V7l-30 17.32v36.96l32 18.48 34-19.64z"/>
        <path fill="#38D611" d="M138.1 62.92h-2V62h2v.92zm-4 0h-2V62h2v.92zm-4 0h-2V62h2v.92zm-4 0h-2V62h2v.92zm-4 0h-2V62h2v.92zm-4 0h-2V62h2v.92zm-4 0h-2V62h2v.92zm-4 0h-2V62h2v.92zm-4 0h-2V62h2v.92zm-4 0h-2V62h2v.92zm-4 0h-2V62h2v.92zm-4 0h-2V62h2v.92zm-4 0h-2V62h2v.92zm-4 0h-2V62h2v.92zm-4 0h-2V62h2v.92zm-4 0h-2V62h2v.92zm-4 0h-2V62h2v.92zm-4 0h-2V62h2v.92zm-4 0h-2V62h2v.92zm-4 0h-2V62h2v.92zm-4 0h-2V62h2v.92zm-4 0h-2V62h2v.92zm-4 0h-2V62h2v.92zm-4 0h-2V62h2v.92zm-4 0h-2V62h2v.92zm-4 0h-2V62h2v.92zm-4 0h-2V62h2v.92zm-4 0h-2V62h2v.92zm-4 0h-2V62h2v.92zm-4 0h-2V62h2v.92zm-4 0h-2V62h2v.92zm-4 0h-2V62h2v.92zm-4 0h-2V62h2v.92zm-4 0h-2V62h2v.92z"/>
        <path fill="url(#a)" d="M104.1 84.38l-34-19.64-34 19.64-36-20.8V22l38-22v78.6l32-18.48 32 18.48V0l38 22v41.58l-36 20.8zm-100-23.1l30 17.32V7l-30 17.32v36.96zM106.1 7v71.6l30-17.32V24.32L106.1 7z"/>
    </g>
</svg>
