<svg xmlns="http://www.w3.org/2000/svg" width="142" height="163" viewBox="0 0 142 163">
    <g fill="#00152B" fill-rule="nonzero">
        <path d="M1.931 42.387l.676-1.17 1.04.602-.675 1.17zM67.837 80.483l-2.032-1.156.681-1.156 2.02 1.156-.67 1.156zm-4.052-2.312l-2.032-1.156.68-1.156 2.021 1.156-.67 1.156zm-4.064-2.312l-2.02-1.156.67-1.156 2.031 1.156-.681 1.156zm-4.052-2.312l-2.02-1.157.669-1.156 2.032 1.156-.681 1.157zm-4.053-2.313l-1.974-1.294.67-1.156 2.032 1.156-.728 1.294zm-4.052-2.312l-2.032-1.156.681-1.156 2.02 1.156-.669 1.156zm-4.052-2.312l-2.032-1.156.681-1.156 2.02 1.156-.669 1.156zm-4.052-2.312l-2.032-1.156.681-1.156 2.02 1.156-.67 1.156zm-4.064-2.312l-2.02-1.156.67-1.156 2.031 1.156-.68 1.156zm-4.052-2.312l-2.02-1.156.67-1.156 2.031 1.156-.681 1.156zm-4.052-2.312l-2.032-1.156.681-1.156 2.032 1.156-.681 1.156zM23.24 55.05l-2.032-1.156.68-1.156 2.021 1.156-.67 1.156zm-4.053-2.312l-2.032-1.156.682-1.156 2.02 1.156-.67 1.156zm-4.052-2.312l-2.032-1.156.681-1.156 2.02 1.156-.669 1.156zm-4.064-2.312l-2.02-1.156.67-1.156 2.032 1.156-.682 1.156zM7.02 45.802L5 44.646l.67-1.156L7.7 44.646l-.68 1.156zM71.23 82.344a.692.692 0 0 1-.334-.093l-1.039-.6.681-1.157.693.405.704-.405.67 1.156-1.028.601a.773.773 0 0 1-.346.093zM74.637 80.483l-.682-1.156 2.032-1.156.67 1.156-2.02 1.156zm4.052-2.312l-.681-1.156 2.032-1.156.68 1.156-2.031 1.156zm4.052-2.312l-.67-1.156 2.02-1.156.682 1.156-2.032 1.156zm4.052-2.312l-.67-1.157 2.02-1.156.682 1.156-2.032 1.157zm4.052-2.313l-.67-1.156 2.021-1.156.681 1.156-2.032 1.156zm4.064-2.312l-.681-1.156 2.032-1.156.67 1.156-2.02 1.156zm4.052-2.312l-.68-1.156 2.031-1.156.67 1.156-2.02 1.156zm4.052-2.312l-.68-1.156 2.031-1.156.681 1.156-2.032 1.156zm4.053-2.312l-.67-1.156 2.02-1.156.682 1.156-2.032 1.156zm4.052-2.312l-.67-1.156 2.02-1.156.682 1.156-2.032 1.156zm4.064-2.312l-.682-1.156 2.032-1.156.67 1.156-2.02 1.156zm4.052-2.312l-.681-1.156 2.032-1.156.67 1.156-2.021 1.156zm4.052-2.312l-.681-1.156 2.032-1.156.67 1.156-2.021 1.156zm4.052-2.312l-.68-1.156 2.03-1.156.682 1.156-2.032 1.156zm4.052-2.312l-.67-1.156 2.021-1.156.681 1.156-2.032 1.156zm4.053-2.312l-.67-1.156 2.02-1.156.681 1.156-2.031 1.156zM138.818 41.81l1.04-.602.677 1.171-1.04.602z"/>
        <path d="M70.561 81.673h1.351v1.202h-1.351zM71.912 157.867h-1.35v-2.312h1.35v2.312zm0-4.682h-1.35v-2.312h1.35v2.312zm0-4.693h-1.35v-2.312h1.35v2.312zm0-4.694h-1.35v-2.312h1.35v2.312zm0-4.624h-1.35v-2.312h1.35v2.312zm0-4.693h-1.35v-2.312h1.35v2.312zm0-4.624h-1.35v-2.312h1.35v2.312zm0-4.694h-1.35v-2.312h1.35v2.312zm0-4.624h-1.35v-2.312h1.35v2.312zm0-4.693h-1.35v-2.312h1.35v2.312zm0-4.625h-1.35v-2.554h1.35v2.554zm0-4.693h-1.35v-2.312h1.35v2.312zm0-4.624h-1.35v-2.312h1.35v2.312zm0-4.682h-1.35V94.91h1.35v2.312zm0-4.693h-1.35v-2.313h1.35v2.313zm0-4.682h-1.35v-2.312h1.35v2.312zM70.561 160.214h1.351v1.202h-1.351z"/>
        <path d="M140.846 40.634L71.912.751a1.35 1.35 0 0 0-1.35 0L1.592 40.634c-.42.232-.682.675-.681 1.156v79.766c.011.478.27.916.681 1.156l68.968 39.86c.2.128.433.196.67.197.24-.003.476-.07.681-.197l68.934-39.86c.415-.237.674-.677.68-1.156V41.79a1.295 1.295 0 0 0-.68-1.156zM3.625 42.577l66.255-38.3V82.24L3.625 120.55V42.578zm67.606 117.267L6.153 122.215l65.078-37.628 65.089 37.628-65.09 37.629zm67.617-39.305l-66.266-38.3V4.278l66.266 38.3v77.962z"/>
        <path d="M25.26 81.673v26.577l22.985 13.295 22.986-13.295 22.985 13.295 22.997-13.295V81.673L94.228 68.38l-.012 26.577-22.985-13.283-22.986 13.283V68.38z"/>
    </g>
</svg>
