<svg xmlns="http://www.w3.org/2000/svg" width="68" height="90" viewBox="0 0 68 90">
    <defs>
        <linearGradient id="a" x1="-3360%" x2="1753%" y1="49.5%" y2="49.5%">
            <stop offset="0%" stop-color="#364A68"/>
            <stop offset="11%" stop-color="#543F69"/>
            <stop offset="34%" stop-color="#8F296C"/>
            <stop offset="55%" stop-color="#BD186E"/>
            <stop offset="74%" stop-color="#DE0B70"/>
            <stop offset="90%" stop-color="#F30471"/>
            <stop offset="100%" stop-color="#FA0171"/>
        </linearGradient>
    </defs>
    <g fill="none" fill-rule="evenodd">
        <path fill="url(#a)" d="M34.756.495v.007z"/>
        <path fill="#BB075A" d="M9.067 15.195V44.64l12.844 7.358V37.275l12.845-7.357z"/>
        <path fill="#FA0171" d="M47.6 7.838L34.756.473 9.066 15.194l12.845 7.365zM60.444 44.64L47.6 37.275 21.911 51.998l12.845 7.364z"/>
        <path fill="#BB075A" d="M60.444 44.64V15.195L47.6 7.838V22.56l-12.844 7.358z"/>
        <path fill="#FFF" d="M10.578 71.722c-1.171-1.5-2.191-2.617-3.96-2.617a2.74 2.74 0 0 0-2.046.726 2.698 2.698 0 0 0-.862 1.981 4.306 4.306 0 0 0 1.919 3.3c4.05 3 7.011 5.033 7.011 8.483-.074 3.242-2.778 5.812-6.044 5.745-2.97 0-4.919-1.635-6.505-4.5l1.828-1.103c1.285 2.356 2.849 3.548 4.496 3.548a3.832 3.832 0 0 0 2.757-.994 3.776 3.776 0 0 0 1.232-2.644c0-2.347-2.221-3.69-7.11-7.62a5.568 5.568 0 0 1-1.783-4.124 4.947 4.947 0 0 1 1.528-3.615A5.023 5.023 0 0 1 6.732 66.9c2.637 0 4.224 1.575 5.636 3.48l-1.79 1.343z"/>
        <path fill="#FFF" fill-rule="nonzero" d="M18.715 81.067c.09 3.63 2.577 6.278 6 6.278 3.422 0 4.918-1.875 6.044-3.75l1.715.9c-1.625 3.15-4.11 4.733-7.594 4.733a8.109 8.109 0 0 1-5.948-2.345 7.986 7.986 0 0 1-2.363-5.905c0-4.313 3.211-8.363 8.19-8.363 4.534 0 8.183 3.248 8.244 8.483l-14.288-.03zm12.089-1.784c-.839-3.278-3.204-4.733-5.961-4.733-2.758 0-4.98 1.5-5.909 4.733h11.87z"/>
        <path fill="#FFF" d="M36.675 88.808l3.022-21.376h.355l8.757 17.535 8.666-17.534h.363l3.06 21.374h-2.063l-2.1-15.307-7.624 15.308h-.529l-7.737-15.42-2.07 15.42zM65.34 67.433h2.161v21.374h-2.16z"/>
    </g>
</svg>
