<svg xmlns="http://www.w3.org/2000/svg" xmlns:xlink="http://www.w3.org/1999/xlink" width="92" height="133" viewBox="0 0 92 133">
    <defs>
        <path id="a" d="M3.77 15L.536.755h2.678l2.044 9.087L7.817.755h2.262l2.579 9.087L14.682.755h2.678L14.146 15h-2.6L8.909 5.794 6.348 15z"/>
        <path id="b" d="M25.858 11.905l2.222 1.051c-1.131 1.608-2.62 2.322-4.841 2.322-3.353 0-5.516-2.46-5.516-5.555 0-2.877 2.083-5.536 5.476-5.536 3.333 0 5.595 2.381 5.595 5.714 0 .238-.02.357-.02.595h-8.492c.258 1.568 1.449 2.44 2.957 2.44 1.13 0 1.884-.317 2.619-1.031zm-5.456-3.492h5.733c-.357-1.23-1.488-1.984-2.896-1.984-1.31 0-2.322.655-2.837 1.984zM38.694 15v-1.111c-.932.913-1.924 1.389-3.254 1.389-2.678 0-5.02-2.302-5.02-5.536 0-3.293 2.223-5.555 4.96-5.555 1.27 0 2.362.476 3.314 1.429V4.465h2.639V15h-2.639zm-2.778-8.392c-1.746 0-2.837 1.388-2.837 3.115 0 1.805 1.19 3.134 2.837 3.134 1.627 0 2.897-1.23 2.897-3.154 0-1.845-1.23-3.095-2.897-3.095zM47.364 15L42.86 4.465h2.699l2.658 6.21 2.659-6.21h2.678L49.07 15h-1.706zm7.48 0V4.465h2.638V15h-2.638zM56.154.12c.952 0 1.686.794 1.686 1.746 0 .932-.754 1.686-1.687 1.686-.972 0-1.686-.853-1.686-1.825 0-.913.774-1.607 1.686-1.607zM67.66 15v-1.111c-.932.913-1.924 1.389-3.253 1.389-2.679 0-5.02-2.302-5.02-5.536 0-3.293 2.222-5.555 4.96-5.555 1.27 0 2.361.476 3.313 1.429V4.465h2.64V15h-2.64zm-2.777-8.392c-1.746 0-2.837 1.388-2.837 3.115 0 1.805 1.19 3.134 2.837 3.134 1.627 0 2.896-1.23 2.896-3.154 0-1.845-1.23-3.095-2.896-3.095zm8.392-2.143V.576h2.639v3.889h1.567v2.262h-1.567V15h-2.639V6.727h-1.349V4.465h1.35zm13.293 7.44l2.222 1.051c-1.13 1.608-2.619 2.322-4.841 2.322-3.353 0-5.515-2.46-5.515-5.555 0-2.877 2.083-5.536 5.475-5.536 3.333 0 5.595 2.381 5.595 5.714 0 .238-.02.357-.02.595h-8.491c.258 1.568 1.448 2.44 2.956 2.44 1.13 0 1.885-.317 2.619-1.031zm-5.456-3.492h5.734c-.357-1.23-1.488-1.984-2.897-1.984-1.31 0-2.321.655-2.837 1.984z"/>
        <path id="c" d="M.686 15.84V1.595H8.82v1.389H2.114v4.464H8.82v1.388H2.114v5.615H8.82v1.389H.686zM12.43 5.305V7.19c1.091-1.429 2.4-2.163 3.948-2.163 2.302 0 3.909 1.587 3.909 4.9v5.913h-1.35v-5.734c0-2.48-.773-3.849-2.817-3.849-1.13 0-2.063.496-2.777 1.429-.794 1.031-.913 2.063-.913 3.73v4.424h-1.349V5.305h1.35zm11.964 0V1.377h1.349v3.928h2.162v1.19h-2.162v9.345h-1.35V6.495H22.53v-1.19h1.865zm15.892 5.377h-9.484c.06 2.42 1.706 4.186 3.968 4.186 2.202 0 3.254-1.25 4.028-2.52l1.13.595c-1.07 2.103-2.718 3.155-5.02 3.155-3.49 0-5.495-2.678-5.495-5.496 0-2.877 2.123-5.575 5.417-5.575 2.995 0 5.416 2.163 5.456 5.655zm-9.345-1.19h7.857c-.556-2.183-2.123-3.155-3.949-3.155-1.884 0-3.293 1.011-3.908 3.154zm12.757-4.187v1.528c.794-1.151 1.647-1.806 2.718-1.806.615 0 .933.199 1.21.357l-.714 1.151c-.159-.08-.417-.198-.714-.198-.992 0-1.885.853-2.282 2.301-.178.675-.218 1.766-.218 3.194v4.008h-1.428V5.305h1.428zm6.448 0v1.924c1.052-1.468 2.5-2.202 4.186-2.202 3.075 0 5.456 2.52 5.456 5.516s-2.321 5.555-5.416 5.555c-1.647 0-3.075-.675-4.226-2.063v5.654h-1.35V5.305h1.35zm4.087 1.032c-2.36 0-4.186 1.845-4.186 4.285 0 2.619 2.024 4.246 4.186 4.246 2.341 0 4.166-1.984 4.166-4.286 0-2.261-1.745-4.245-4.166-4.245zm8.968-1.032v1.528c.793-1.151 1.646-1.806 2.718-1.806.615 0 .932.199 1.21.357l-.714 1.151c-.159-.08-.417-.198-.714-.198-.992 0-1.885.853-2.282 2.301-.179.675-.218 1.766-.218 3.194v4.008h-1.429V5.305h1.429zm4.9 10.535V5.305h1.35V15.84h-1.35zM68.757.96c.615 0 1.13.496 1.13 1.111s-.515 1.13-1.13 1.13c-.615 0-1.111-.515-1.111-1.13A1.11 1.11 0 0 1 68.757.96zm2.5 13.65l.853-.972c.674.754 1.409 1.17 2.202 1.17 1.032 0 1.944-.754 1.944-1.746 0-.615-.357-1.19-.872-1.468-2.421-1.349-3.651-1.924-3.651-3.77 0-1.666 1.29-2.797 2.897-2.797 1.15 0 2.023.556 2.916 1.429l-.873.892c-.635-.615-1.27-1.011-2.123-1.011-.873 0-1.587.615-1.587 1.408 0 .536.337 1.131.813 1.409 2.421 1.409 3.77 1.944 3.77 3.849 0 1.647-1.27 3.115-3.174 3.115-1.17 0-2.361-.536-3.115-1.508zm19.066-3.928H80.84c.059 2.42 1.706 4.186 3.968 4.186 2.202 0 3.253-1.25 4.027-2.52l1.13.595c-1.07 2.103-2.717 3.155-5.019 3.155-3.491 0-5.495-2.678-5.495-5.496 0-2.877 2.123-5.575 5.416-5.575 2.996 0 5.416 2.163 5.456 5.655zm-9.345-1.19h7.857c-.555-2.183-2.123-3.155-3.948-3.155-1.885 0-3.294 1.011-3.909 3.154z"/>
    </defs>
    <g fill="#000" fill-rule="evenodd">
        <g fill-rule="nonzero">
            <g transform="translate(.86 93.24)">
                <use xlink:href="#a"/>
                <use xlink:href="#a"/>
            </g>
            <g transform="translate(.86 93.24)">
                <use xlink:href="#b"/>
                <use xlink:href="#b"/>
            </g>
            <g transform="translate(.86 112.24)">
                <use xlink:href="#c"/>
                <use xlink:href="#c"/>
            </g>
        </g>
        <path d="M13.81 35h-3.28V21.82a1.63 1.63 0 0 1 .82-1.42L45.18.86a1.65 1.65 0 0 1 1.64 0L80.65 20.4c.509.291.822.834.82 1.42v13h-3.28V22.76L46 4.18 13.81 22.76V35zM46 81.14a1.71 1.71 0 0 1-.82-.22L11.35 61.38 13 58.54 46 77.6l33-19.06 1.64 2.84-33.82 19.54a1.71 1.71 0 0 1-.82.22z"/>
        <path d="M23.69 41.91V54.8l11.15 6.44L46 54.8l11.16 6.44 11.15-6.44V41.91l-11.15-6.44v12.88L46 41.91l-11.16 6.44V35.47z"/>
    </g>
</svg>
