<svg xmlns="http://www.w3.org/2000/svg" xmlns:xlink="http://www.w3.org/1999/xlink" width="146" height="132" viewBox="0 0 146 132">
    <defs>
        <path id="a" d="M30.77 15L27.536.755h2.678l2.044 9.087L34.817.755h2.262l2.579 9.087L41.682.755h2.678L41.146 15h-2.6l-2.638-9.206L33.348 15z"/>
        <path id="b" d="M52.858 11.905l2.222 1.051c-1.131 1.608-2.62 2.322-4.841 2.322-3.353 0-5.516-2.46-5.516-5.555 0-2.877 2.083-5.536 5.476-5.536 3.333 0 5.595 2.381 5.595 5.714 0 .238-.02.357-.02.595h-8.492c.258 1.568 1.449 2.44 2.957 2.44 1.13 0 1.884-.317 2.619-1.031zm-5.456-3.492h5.733c-.357-1.23-1.488-1.984-2.896-1.984-1.31 0-2.322.655-2.837 1.984zM65.694 15v-1.111c-.932.913-1.924 1.389-3.254 1.389-2.678 0-5.02-2.302-5.02-5.536 0-3.293 2.223-5.555 4.96-5.555 1.27 0 2.362.476 3.314 1.429V4.465h2.639V15h-2.639zm-2.778-8.392c-1.746 0-2.837 1.388-2.837 3.115 0 1.805 1.19 3.134 2.837 3.134 1.627 0 2.897-1.23 2.897-3.154 0-1.845-1.23-3.095-2.897-3.095zM74.364 15L69.86 4.465h2.699l2.658 6.21 2.659-6.21h2.678L76.07 15h-1.706zm7.48 0V4.465h2.638V15h-2.638zM83.154.12c.952 0 1.686.794 1.686 1.746 0 .932-.754 1.686-1.687 1.686-.972 0-1.686-.853-1.686-1.825 0-.913.774-1.607 1.686-1.607zM94.66 15v-1.111c-.932.913-1.924 1.389-3.253 1.389-2.679 0-5.02-2.302-5.02-5.536 0-3.293 2.222-5.555 4.96-5.555 1.27 0 2.361.476 3.313 1.429V4.465h2.64V15h-2.64zm-2.777-8.392c-1.746 0-2.837 1.388-2.837 3.115 0 1.805 1.19 3.134 2.837 3.134 1.627 0 2.896-1.23 2.896-3.154 0-1.845-1.23-3.095-2.896-3.095zm8.392-2.143V.576h2.639v3.889h1.567v2.262h-1.567V15h-2.639V6.727h-1.349V4.465h1.35zm13.293 7.44l2.222 1.051c-1.13 1.608-2.619 2.322-4.841 2.322-3.353 0-5.515-2.46-5.515-5.555 0-2.877 2.083-5.536 5.475-5.536 3.333 0 5.595 2.381 5.595 5.714 0 .238-.02.357-.02.595h-8.491c.258 1.568 1.448 2.44 2.956 2.44 1.13 0 1.885-.317 2.619-1.031zm-5.456-3.492h5.734c-.357-1.23-1.488-1.984-2.897-1.984-1.31 0-2.321.655-2.837 1.984z"/>
        <path id="c" d="M1.794 14.84H.366V.595h.297l9.444 10.912V.595h1.429V14.84h-.318L1.794 4.067V14.84zm23.372-5.158h-9.484c.06 2.42 1.706 4.186 3.968 4.186 2.202 0 3.254-1.25 4.028-2.52l1.13.595c-1.07 2.103-2.717 3.155-5.019 3.155-3.492 0-5.496-2.678-5.496-5.496 0-2.877 2.123-5.575 5.417-5.575 2.996 0 5.416 2.163 5.456 5.655zm-9.345-1.19h7.857c-.556-2.183-2.123-3.155-3.948-3.155-1.885 0-3.294 1.011-3.909 3.154zm13.075-4.187V.377h1.349v3.928h2.162v1.19h-2.162v9.345h-1.35V5.495h-1.864v-1.19h1.865zm8.57 10.535L32.984 4.305h1.408l3.214 7.638 3.373-7.638h.238l3.393 7.638 3.274-7.638h1.408L44.728 14.84h-.258L41.117 7.3l-3.373 7.54h-.277zM55.899 4.027c3.154 0 5.496 2.56 5.496 5.575 0 2.996-2.322 5.516-5.496 5.516-3.174 0-5.496-2.52-5.496-5.516 0-3.015 2.341-5.575 5.496-5.575zm0 1.31c-2.262 0-4.107 1.944-4.107 4.285 0 2.302 1.726 4.186 4.107 4.186 2.36 0 4.107-1.884 4.107-4.186 0-2.341-1.865-4.285-4.107-4.285zm8.888-1.032v1.528c.794-1.151 1.647-1.806 2.718-1.806.615 0 .933.199 1.21.357L68 5.535c-.158-.08-.416-.198-.714-.198-.992 0-1.885.853-2.282 2.301-.178.675-.218 1.766-.218 3.194v4.008h-1.428V4.305h1.428zm5.1 10.535V.238h1.348V8.55l4.861-4.246h2.004l-5.774 5.02 6.111 5.515h-1.924l-5.278-4.742v4.742h-1.349zm17.121 0h-1.428V.595h.297l9.444 10.912V.595h1.428V14.84h-.317L87.007 4.067V14.84zm17.995-10.813c3.154 0 5.496 2.56 5.496 5.575 0 2.996-2.322 5.516-5.496 5.516-3.174 0-5.496-2.52-5.496-5.516 0-3.015 2.341-5.575 5.496-5.575zm0 1.31c-2.262 0-4.107 1.944-4.107 4.285 0 2.302 1.726 4.186 4.107 4.186 2.36 0 4.107-1.884 4.107-4.186 0-2.341-1.865-4.285-4.107-4.285zm17.181 9.503v-1.805c-1.15 1.388-2.599 2.063-4.245 2.063-3.076 0-5.397-2.56-5.397-5.555 0-2.996 2.38-5.516 5.436-5.516 1.707 0 3.155.734 4.206 2.202V.238h1.35V14.84h-1.35zm-4.087-9.503c-2.42 0-4.166 1.984-4.166 4.245 0 2.282 1.786 4.286 4.146 4.286 2.163 0 4.187-1.627 4.187-4.246 0-2.44-1.806-4.285-4.167-4.285zm18.868 4.345h-9.483c.06 2.42 1.706 4.186 3.968 4.186 2.202 0 3.253-1.25 4.027-2.52l1.131.595c-1.071 2.103-2.718 3.155-5.02 3.155-3.491 0-5.495-2.678-5.495-5.496 0-2.877 2.123-5.575 5.416-5.575 2.996 0 5.416 2.163 5.456 5.655zm-9.344-1.19h7.856c-.555-2.183-2.123-3.155-3.948-3.155-1.885 0-3.293 1.011-3.908 3.154zm10.872 5.118l.853-.972c.675.754 1.409 1.17 2.202 1.17 1.032 0 1.945-.754 1.945-1.746 0-.615-.358-1.19-.873-1.468-2.42-1.349-3.651-1.924-3.651-3.77 0-1.666 1.29-2.797 2.897-2.797 1.15 0 2.023.556 2.916 1.429l-.873.892c-.635-.615-1.27-1.011-2.123-1.011-.873 0-1.587.615-1.587 1.408 0 .536.337 1.131.814 1.409 2.42 1.409 3.77 1.944 3.77 3.849 0 1.647-1.27 3.115-3.175 3.115-1.17 0-2.361-.536-3.115-1.508z"/>
    </defs>
    <g fill="none" fill-rule="evenodd">
        <path fill="#005DCF" d="M72.317 5.703l1.27-2.2 32.623 18.835-1.27 2.2z"/>
        <path fill="#005DCF" d="M104.31 23.45h2.54v24.5h-2.54zM72.316 78.855L94.668 65.95l1.27 2.2-22.352 12.905z"/>
        <path fill="#005DCF" d="M39.692 62.216l1.27-2.2 32.623 18.835-1.27 2.2zM41.6 34.78v-10.6l11.15-6.44-1.27-2.2-11.79 6.81a1.27 1.27 0 0 0-.64 1.1v11.33h2.55z"/>
        <path fill="#005DCF" d="M51.14 17.974l1.27-2.2 52.975 30.585-1.27 2.2zM39.088 35.956l1.27-2.2 56.154 32.42-1.27 2.2z"/>
        <path fill="#005DCF" d="M51.35 41.48v12.47l10.8 6.24 10.8-6.24 10.8 6.24 10.81-6.24V41.48l-10.8-6.24-.01 12.48-10.8-6.24-10.8 6.24V35.24z"/>
        <circle cx="72.97" cy="4.96" r="3.53" fill="#FFF"/>
        <path fill="#005DCF" fill-rule="nonzero" d="M73 9.44A4.48 4.48 0 1 1 77.45 5 4.49 4.49 0 0 1 73 9.44zm0-7.06A2.58 2.58 0 1 0 75.55 5 2.59 2.59 0 0 0 73 2.38z"/>
        <circle cx="105.47" cy="23.04" r="3.53" fill="#FFF"/>
        <path fill="#005DCF" fill-rule="nonzero" d="M105.47 27.53a4.49 4.49 0 1 1 .08-8.98 4.49 4.49 0 0 1-.08 8.98zm0-7.06a2.58 2.58 0 1 0 .001 5.16 2.58 2.58 0 0 0-.001-5.16z"/>
        <circle cx="72.97" cy="78.82" r="3.53" fill="#FFF"/>
        <path fill="#005DCF" fill-rule="nonzero" d="M73 83.3a4.48 4.48 0 1 1 4.48-4.48A4.49 4.49 0 0 1 73 83.3zm0-7a2.58 2.58 0 1 0 2.58 2.57A2.58 2.58 0 0 0 73 76.25v.05z"/>
        <circle cx="95.05" cy="67.15" r="3.53" fill="#FFF"/>
        <path fill="#005DCF" fill-rule="nonzero" d="M95.05 71.63a4.49 4.49 0 1 1-.02-8.98 4.49 4.49 0 0 1 .02 8.98zm0-7.06a2.58 2.58 0 1 0-.02 5.16 2.58 2.58 0 0 0 .02-5.16z"/>
        <circle cx="105.69" cy="47.59" r="3.53" fill="#FFF"/>
        <path fill="#005DCF" fill-rule="nonzero" d="M105.69 52.07a4.48 4.48 0 1 1 4.48-4.48 4.49 4.49 0 0 1-4.48 4.48zm0-7.06a2.58 2.58 0 1 0 2.58 2.58 2.59 2.59 0 0 0-2.58-2.59v.01z"/>
        <circle cx="51.64" cy="16.88" r="3.53" fill="#FFF"/>
        <path fill="#005DCF" fill-rule="nonzero" d="M51.64 21.36a4.49 4.49 0 1 1 0-8.98 4.49 4.49 0 0 1 0 8.98zm0-7.06a2.58 2.58 0 1 0 2.58 2.58 2.57 2.57 0 0 0-2.58-2.58z"/>
        <circle cx="72.94" cy="29.35" r="3.53" fill="#FFF"/>
        <path fill="#005DCF" fill-rule="nonzero" d="M72.94 33.83a4.48 4.48 0 1 1 4.48-4.48 4.49 4.49 0 0 1-4.48 4.48zm0-7.06a2.58 2.58 0 1 0 2.57 2.58 2.59 2.59 0 0 0-2.57-2.58z"/>
        <circle cx="40.33" cy="34.78" r="3.53" fill="#FFF"/>
        <path fill="#005DCF" fill-rule="nonzero" d="M40.33 39.27a4.49 4.49 0 1 1-.02-8.98 4.49 4.49 0 0 1 .02 8.98zm0-7.06a2.58 2.58 0 1 0-.02 5.16 2.58 2.58 0 0 0 .02-5.16z"/>
        <circle cx="40.33" cy="60.19" r="3.53" fill="#FFF"/>
        <path fill="#005DCF" fill-rule="nonzero" d="M40.33 64.67a4.48 4.48 0 1 1 4.48-4.48 4.49 4.49 0 0 1-4.48 4.48zm0-7.06a2.58 2.58 0 1 0 2.57 2.58 2.59 2.59 0 0 0-2.57-2.58z"/>
        <g fill-rule="nonzero">
            <g transform="translate(.82 95.59)">
                <use fill="#000" xlink:href="#a"/>
                <use fill="#2E3536" xlink:href="#a"/>
            </g>
            <g transform="translate(.82 95.59)">
                <use fill="#000" xlink:href="#b"/>
                <use fill="#2E3536" xlink:href="#b"/>
            </g>
            <g transform="translate(.82 115.59)">
                <use fill="#000" xlink:href="#c"/>
                <use fill="#2E3536" xlink:href="#c"/>
            </g>
        </g>
    </g>
</svg>
