<svg xmlns="http://www.w3.org/2000/svg" width="240" height="102" viewBox="0 0 240 102">
    <g fill="#00152B" fill-rule="nonzero">
        <path d="M22.92 63.945l-.629-1.083 2.174-1.259.628 1.083-2.174 1.26zm4.347-2.518l-.628-1.083 2.174-1.26.628 1.083-2.174 1.26zm4.36-2.519L31 57.825l2.174-1.26.628 1.084-2.174 1.26zm4.348-2.518l-.628-1.083 2.173-1.26.629 1.083-2.174 1.26zm4.36-2.519l-.628-1.083 2.174-1.26.628 1.084-2.174 1.26zm4.26-3.287h-1.257v-2.518h1.257v2.518zm0-5.037h-1.257V43.03h1.257v2.518zm0-5.037h-1.257v-2.518h1.257v2.518zm0-5.037h-1.257v-2.518h1.257v2.518zm0-5.037h-1.257v-2.518h1.257v2.518zM65.014 63.945l-2.174-1.26.628-1.082 2.174 1.26-.628 1.082zm-4.36-2.518l-2.174-1.26.628-1.083 2.174 1.26-.629 1.083zm-4.348-2.519l-2.174-1.26.628-1.082 2.174 1.26-.628 1.082zm-4.348-2.518l-2.186-1.26.628-1.083 2.186 1.26-.628 1.083zm-4.36-2.519l-2.174-1.26.628-1.082 2.174 1.26-.628 1.082z"/>
        <path d="M87.317 74.674L65.956 62.321a1.254 1.254 0 0 0-1.257 0L43.98 74.296l-20.105-11.61V39.415L43.98 27.792 64.712 39.78c.389.225.868.225 1.257 0l21.36-12.353a1.26 1.26 0 0 0 0-2.191L44.608.516a1.254 1.254 0 0 0-1.256 0L.628 25.186a.93.93 0 0 0-.251.2 1.095 1.095 0 0 0-.214.265c-.105.193-.161.41-.163.63V75.77c-.002.451.238.87.628 1.095l42.635 24.67h.151c.172.083.361.126.552.125H44.406a.138.138 0 0 0 .1 0H44.67l42.647-24.845a1.26 1.26 0 0 0 0-2.191v.05zM43.98 3.073L84.19 26.33 65.34 37.236l-20.745-12.05a1.254 1.254 0 0 0-1.257 0l-20.72 12.05L3.77 26.331 43.98 3.073zM42.723 98.31L2.513 75.04V28.521l18.848 10.893v24.001c.003.447.242.86.629 1.083L42.723 76.5v21.81zm2.513 0V76.5L65.34 64.864 84.188 75.77 45.236 98.31zM126.496 61.628a8.06 8.06 0 0 0-6.672-3.236 8.038 8.038 0 0 0-7.197 3.984 8.074 8.074 0 0 0 .058 8.24 8.037 8.037 0 0 0 7.252 3.882 8.362 8.362 0 0 0 6.56-3.11l1.482 1.12a10.044 10.044 0 0 1-8.18 3.778 9.55 9.55 0 0 1-7.207-2.743 9.594 9.594 0 0 1-2.845-7.18 10.222 10.222 0 0 1 7.112-9.278 10.19 10.19 0 0 1 11.145 3.485l-1.508 1.058zM145.231 68.881c-.048 3.988-3.304 7.185-7.283 7.153-3.978-.032-7.182-3.282-7.166-7.27.016-3.987 3.245-7.211 7.224-7.211a7.154 7.154 0 0 1 5.16 2.132 7.186 7.186 0 0 1 2.065 5.196zm-12.565 0a5.418 5.418 0 0 0 2.62 4.907 5.393 5.393 0 0 0 5.553 0 5.418 5.418 0 0 0 2.62-4.907 5.418 5.418 0 0 0-2.62-4.906 5.393 5.393 0 0 0-5.553 0 5.418 5.418 0 0 0-2.62 4.906zM150.283 64.399a6.355 6.355 0 0 1 5.19-2.846c3.015 0 5.126 2.077 5.126 6.447v7.782h-1.772v-7.555c0-3.262-1.018-5.037-3.694-5.037a4.458 4.458 0 0 0-3.657 1.876c-1.042 1.36-1.256 2.72-1.256 4.911v5.83h-1.772V61.956h1.772l.063 2.443zM164.218 72.873a3.943 3.943 0 0 0 2.902 1.55 2.44 2.44 0 0 0 2.514-2.305 2.217 2.217 0 0 0-1.144-1.927c-3.179-1.775-4.787-2.518-4.787-4.961a3.643 3.643 0 0 1 1.098-2.649 3.627 3.627 0 0 1 2.671-1.028 5.349 5.349 0 0 1 3.833 1.876L170.16 64.6a3.905 3.905 0 0 0-2.79-1.335 1.97 1.97 0 0 0-2.085 1.864 2.268 2.268 0 0 0 1.068 1.851c3.179 1.851 4.95 2.519 4.95 5.037a4.084 4.084 0 0 1-1.218 2.938 4.066 4.066 0 0 1-2.953 1.167 5.198 5.198 0 0 1-4.084-1.99l1.169-1.259zM184.561 61.918h1.885v7.178c0 4.671-2.11 7.026-6.069 7.026-3.958 0-6.107-2.355-6.107-7.026v-7.178h1.885v6.762a9.035 9.035 0 0 0 .39 3.5 4.02 4.02 0 0 0 3.832 2.217 4.318 4.318 0 0 0 3.116-1.26c1.106-1.17 1.068-2.518 1.068-4.482v-6.737zM190.09 56.553h1.772v19.23h-1.772zM197.152 56.742h1.772v5.176h2.84v1.561h-2.84v12.303h-1.772V63.48h-2.513v-1.561h2.513zM206.5 57.661a1.51 1.51 0 0 1-1.482 1.524 1.484 1.484 0 0 1-1.483-1.486c0-.82.664-1.486 1.483-1.486.819 0 1.483.666 1.483 1.486v-.038zm-2.35 4.257h1.773V75.77h-1.772V61.918zM211.376 64.399a6.342 6.342 0 0 1 5.177-2.846c3.028 0 5.14 2.077 5.14 6.447v7.782h-1.798v-7.555c0-3.262-1.018-5.037-3.77-5.037a4.445 4.445 0 0 0-3.643 1.876c-1.043 1.36-1.194 2.72-1.194 4.911v5.83h-1.772V61.956h1.772l.088 2.443zM239.22 72.961c0 2.267-.125 4.143-1.256 5.692a7.055 7.055 0 0 1-5.868 2.519c-3.983 0-5.918-1.625-7.137-4.307h1.923a5.312 5.312 0 0 0 5.114 2.682 5.123 5.123 0 0 0 4.812-2.342 6.043 6.043 0 0 0 .604-3.035v-1.045a7.103 7.103 0 0 1-7.855 2.254 7.126 7.126 0 0 1-4.786-6.636c.006-3.936 3.16-7.141 7.087-7.203a6.818 6.818 0 0 1 5.629 2.77v-2.392h1.797l-.063 11.043zm-12.565-4.105a5.156 5.156 0 0 0 1.647 3.85 5.132 5.132 0 0 0 3.958 1.351 5.02 5.02 0 0 0 3.793-1.5 5.043 5.043 0 0 0 1.434-3.827 5.27 5.27 0 0 0-1.496-3.885 5.247 5.247 0 0 0-3.844-1.58 5.46 5.46 0 0 0-3.955 1.617 5.484 5.484 0 0 0-1.587 3.974h.05zM108.063 43.797l1.822-1.096c1.298 2.36 2.785 3.539 4.46 3.539a4.19 4.19 0 0 0 2.024-.504 3.514 3.514 0 0 0 1.935-3.135 3.632 3.632 0 0 0-.73-2.128 17.858 17.858 0 0 0-3.668-3.438 18.86 18.86 0 0 1-3.33-2.934 5.372 5.372 0 0 1-1.131-3.287 5.045 5.045 0 0 1 .666-2.518 4.793 4.793 0 0 1 1.847-1.852 5.494 5.494 0 0 1 2.651-.667 5.645 5.645 0 0 1 2.84.756 9.71 9.71 0 0 1 2.79 2.77l-1.747 1.322a8.39 8.39 0 0 0-2.073-2.115 3.525 3.525 0 0 0-1.86-.504 2.95 2.95 0 0 0-2.11.78 2.521 2.521 0 0 0-.83 1.94c.002.468.1.931.289 1.36.27.537.63 1.023 1.068 1.435.276.265 1.256.983 2.764 2.141a15.571 15.571 0 0 1 3.77 3.665 5.902 5.902 0 0 1 1.043 3.223 5.458 5.458 0 0 1-1.722 4.043 5.962 5.962 0 0 1-4.31 1.725 6.273 6.273 0 0 1-3.543-1.045 9.59 9.59 0 0 1-2.915-3.476zm29.478-1.26l1.722.907a9.582 9.582 0 0 1-1.948 2.683 7.712 7.712 0 0 1-2.513 1.549c-1 .371-2.061.555-3.129.541a7.531 7.531 0 0 1-6.069-2.518 8.729 8.729 0 0 1-.34-11.145 7.533 7.533 0 0 1 6.284-2.997 7.834 7.834 0 0 1 6.483 3.073 8.664 8.664 0 0 1 1.747 5.427h-14.262a6.442 6.442 0 0 0 1.772 4.546 5.598 5.598 0 0 0 4.21 1.776c.8 0 1.596-.141 2.35-.416a6.28 6.28 0 0 0 1.947-1.133 9.33 9.33 0 0 0 1.734-2.305l.012.013zm0-4.28a6.87 6.87 0 0 0-1.18-2.607 5.605 5.605 0 0 0-2.074-1.574 6.271 6.271 0 0 0-2.69-.605 5.823 5.823 0 0 0-4.007 1.499 6.88 6.88 0 0 0-1.86 3.286h11.811zm4.775 9.595l3.054-21.47h.39l8.72 17.63 1.91-3.892h2.173l-3.77 7.732h-.54l-7.677-15.464-2.186 15.464h-2.074zm27.896-21.47h2.148v21.47h-2.148v-21.47zM166.04 44.666c.169.082.322.192.452.327.664.708.664 1.811 0 2.519a1.757 1.757 0 0 1-2.513 0 1.841 1.841 0 0 1 0-2.519l-1.721-12.592-1.873 3.778c.056.192.086.391.088.591a1.74 1.74 0 0 1-.527 1.26 1.657 1.657 0 0 1-1.257.529c-.475.009-.93-.183-1.257-.53a1.841 1.841 0 0 1 0-2.518 1.682 1.682 0 0 1 1.257-.529h.088l2.965-6.019-.138-.126a1.816 1.816 0 0 1-.399-1.967 1.81 1.81 0 0 1 1.656-1.13 1.72 1.72 0 0 1 1.256.528c.67.705.67 1.813 0 2.519-.1.098-.21.187-.326.264l2.249 15.615z"/>
    </g>
</svg>
