<svg xmlns="http://www.w3.org/2000/svg" xmlns:xlink="http://www.w3.org/1999/xlink" width="113" height="131" viewBox="0 0 113 131">
    <defs>
        <path id="a" d="M14.77 15L11.536.755h2.678l2.044 9.087L18.817.755h2.262l2.579 9.087L25.682.755h2.678L25.146 15h-2.6l-2.638-9.206L17.348 15z"/>
        <path id="b" d="M36.858 11.905l2.222 1.051c-1.131 1.608-2.62 2.322-4.841 2.322-3.353 0-5.516-2.46-5.516-5.555 0-2.877 2.083-5.536 5.476-5.536 3.333 0 5.595 2.381 5.595 5.714 0 .238-.02.357-.02.595h-8.492c.258 1.568 1.449 2.44 2.957 2.44 1.13 0 1.884-.317 2.619-1.031zm-5.456-3.492h5.733c-.357-1.23-1.488-1.984-2.896-1.984-1.31 0-2.322.655-2.837 1.984zM49.694 15v-1.111c-.932.913-1.924 1.389-3.254 1.389-2.678 0-5.02-2.302-5.02-5.536 0-3.293 2.223-5.555 4.96-5.555 1.27 0 2.362.476 3.314 1.429V4.465h2.639V15h-2.639zm-2.778-8.392c-1.746 0-2.837 1.388-2.837 3.115 0 1.805 1.19 3.134 2.837 3.134 1.627 0 2.897-1.23 2.897-3.154 0-1.845-1.23-3.095-2.897-3.095zM58.364 15L53.86 4.465h2.699l2.658 6.21 2.659-6.21h2.678L60.07 15h-1.706zm7.48 0V4.465h2.638V15h-2.638zM67.154.12c.952 0 1.686.794 1.686 1.746 0 .932-.754 1.686-1.687 1.686-.972 0-1.686-.853-1.686-1.825 0-.913.774-1.607 1.686-1.607zM78.66 15v-1.111c-.932.913-1.924 1.389-3.253 1.389-2.679 0-5.02-2.302-5.02-5.536 0-3.293 2.222-5.555 4.96-5.555 1.27 0 2.361.476 3.313 1.429V4.465h2.64V15h-2.64zm-2.777-8.392c-1.746 0-2.837 1.388-2.837 3.115 0 1.805 1.19 3.134 2.837 3.134 1.627 0 2.896-1.23 2.896-3.154 0-1.845-1.23-3.095-2.896-3.095zm8.392-2.143V.576h2.639v3.889h1.567v2.262h-1.567V15h-2.639V6.727h-1.349V4.465h1.35zm13.293 7.44l2.222 1.051c-1.13 1.608-2.619 2.322-4.841 2.322-3.353 0-5.515-2.46-5.515-5.555 0-2.877 2.083-5.536 5.475-5.536 3.333 0 5.595 2.381 5.595 5.714 0 .238-.02.357-.02.595h-8.491c.258 1.568 1.448 2.44 2.956 2.44 1.13 0 1.885-.317 2.619-1.031zm-5.456-3.492h5.734c-.357-1.23-1.488-1.984-2.897-1.984-1.31 0-2.321.655-2.837 1.984z"/>
        <path id="c" d="M4.41 15.84L.382 1.595h1.469l2.896 10.257L8.834 1.595h.298l4.027 10.257 2.957-10.257h1.448L13.477 15.84h-.278L8.993 5.067 4.668 15.84H4.41zm15.594 0V1.238h1.35V7.19c1.09-1.429 2.38-2.163 3.948-2.163 2.281 0 3.888 1.607 3.888 4.762v6.051h-1.349v-5.734c0-2.48-.754-3.849-2.797-3.849-1.131 0-2.064.496-2.778 1.429-.774 1.012-.913 2.043-.913 3.73v4.424h-1.349zm11.924 0V5.305h1.35V15.84h-1.35zM32.583.96c.615 0 1.13.496 1.13 1.111s-.515 1.13-1.13 1.13c-.615 0-1.111-.515-1.111-1.13A1.11 1.11 0 0 1 32.582.96zm4.702 4.345V1.377h1.349v3.928h2.163v1.19h-2.163v9.345h-1.35V6.495H35.42v-1.19h1.865zm15.892 5.377h-9.484c.06 2.42 1.706 4.186 3.968 4.186 2.202 0 3.254-1.25 4.028-2.52l1.13.595c-1.07 2.103-2.717 3.155-5.019 3.155-3.492 0-5.496-2.678-5.496-5.496 0-2.877 2.123-5.575 5.417-5.575 2.996 0 5.416 2.163 5.456 5.655zm-9.345-1.19h7.857c-.556-2.183-2.123-3.155-3.948-3.155-1.885 0-3.294 1.011-3.909 3.154zM61.43 15.84V1.595h1.429V14.45h5.475v1.389H61.43zm18.114-8.61V5.304h1.33V15.84h-1.33v-1.805c-1.15 1.388-2.599 2.063-4.246 2.063-3.075 0-5.396-2.56-5.396-5.555 0-2.996 2.38-5.516 5.436-5.516 1.706 0 3.155.734 4.206 2.202zm-4.087-.893c-2.42 0-4.166 1.984-4.166 4.245 0 2.282 1.785 4.286 4.146 4.286 2.163 0 4.206-1.627 4.206-4.246 0-2.44-1.825-4.285-4.186-4.285zm9.92 7.559v1.944h-1.35V1.238h1.35V7.11c1.15-1.388 2.58-2.083 4.226-2.083 3.075 0 5.416 2.56 5.416 5.555 0 2.976-2.38 5.536-5.456 5.536-1.706 0-3.115-.754-4.186-2.222zm4.087.912c2.44 0 4.166-2.004 4.166-4.265 0-2.282-1.805-4.286-4.166-4.286-2.162 0-4.186 1.607-4.186 4.246 0 2.44 1.805 4.305 4.186 4.305zm18.372-4.126h-9.484c.06 2.42 1.707 4.186 3.968 4.186 2.203 0 3.254-1.25 4.028-2.52l1.13.595c-1.07 2.103-2.717 3.155-5.019 3.155-3.492 0-5.495-2.678-5.495-5.496 0-2.877 2.122-5.575 5.416-5.575 2.996 0 5.416 2.163 5.456 5.655zm-9.345-1.19h7.857c-.556-2.183-2.123-3.155-3.948-3.155-1.885 0-3.294 1.011-3.909 3.154zm11.666 6.348V1.238h1.35V15.84h-1.35z"/>
    </defs>
    <g fill="#000" fill-rule="evenodd">
        <g fill-rule="nonzero">
            <g transform="translate(.84 94.68)">
                <use xlink:href="#a"/>
                <use xlink:href="#a"/>
            </g>
            <g transform="translate(.84 94.68)">
                <use xlink:href="#b"/>
                <use xlink:href="#b"/>
            </g>
            <g transform="translate(.84 113.68)">
                <use xlink:href="#c"/>
                <use xlink:href="#c"/>
            </g>
        </g>
        <path d="M34.85 40.26v12.78l11.07 6.4 11.07-6.4 11.08 6.4 11.07-6.4V40.26l-11.07-6.4v12.79l-11.08-6.39-11.07 6.39V33.86z"/>
        <path fill-rule="nonzero" d="M57 81.22a1.58 1.58 0 0 1-.82-.22L22.73 61.69a1.61 1.61 0 0 1-.82-1.41V21.67a1.61 1.61 0 0 1 .82-1.41L56.17 1a1.59 1.59 0 0 1 1.63 0l33.44 19.31c.509.287.823.826.82 1.41v38.56a1.61 1.61 0 0 1-.82 1.41L57.8 81a1.57 1.57 0 0 1-.8.22zM25.17 59.34L57 77.71l31.8-18.37V22.61L57 4.24 25.17 22.61v36.73z"/>
        <path fill-rule="nonzero" d="M88.65 60l-2.25-1.3.65-1.13 2.25 1.3-.65 1.13zm-4.51-2.6l-2.26-1.3.65-1.1 2.26 1.31-.65 1.09zm-4.51-2.6l-2.26-1.3.63-1.13 2.26 1.3-.63 1.13zm-4.52-2.61l-2.25-1.3.65-1.13 2.25 1.3-.65 1.13zm-4.51-2.6l-2.26-1.31.66-1.12 2.25 1.3-.65 1.13zM66.09 47l-2.26-1.3.65-1.13 2.26 1.3-.65 1.13zm-4.52-2.6l-2.25-1.31L60 42l2.26 1.3-.69 1.1zm-4.51-2.61l-2.26-1.3.66-1.13 2.25 1.3-.65 1.13zm-4.51-2.6l-2.26-1.31.65-1.13L53.2 38l-.65 1.19zM48 36.56l-2.26-1.3.65-1.13 2.26 1.3-.65 1.13zM43.52 34l-2.25-1.3.65-1.13 2.25 1.31-.65 1.12zM39 31.35l-2.26-1.3.65-1.13 2.26 1.3-.65 1.13zm-4.5-2.61l-2.26-1.3.65-1.13 2.26 1.31-.65 1.12zm-4.5-2.6l-2.25-1.3.65-1.13L30.64 25 30 26.14zm-4.51-2.61l-2.26-1.3.66-1.13 2.25 1.3-.65 1.13z"/>
        <path fill-rule="nonzero" d="M25.32 60l-.65-1.13 2.25-1.3.66 1.13-2.26 1.3zm4.51-2.61l-.65-1.12L31.44 55l.65 1.13-2.26 1.26zm4.52-2.6l-.66-1.13L36 52.37l.65 1.13-2.3 1.29zm4.51-2.61l-.65-1.13 2.25-1.3.65 1.13-2.25 1.3zm4.51-2.6l-.65-1.13L45 47.16l.65 1.12-2.28 1.3zM47.88 47l-.65-1.13 2.26-1.3.65 1.13-2.26 1.3zm4.52-2.6l-.65-1.13L54 42l.65 1.12-2.25 1.28zm4.51-2.61l-.65-1.13 2.25-1.3.66 1.13-2.26 1.3zm4.51-2.6L60.77 38 63 36.73l.65 1.13-2.23 1.33zm4.52-2.61l-.66-1.13 2.26-1.3.65 1.13-2.25 1.3zM70.45 34l-.65-1.12 2.25-1.31.65 1.13-2.25 1.3zM75 31.35l-.65-1.13 2.26-1.3.65 1.13-2.26 1.3zm4.51-2.61l-.65-1.12 2.26-1.31.65 1.13-2.26 1.3zm4.49-2.6L83.34 25l2.25-1.3.65 1.13L84 26.14zm4.51-2.61l-.65-1.13 2.26-1.3.65 1.13-2.26 1.3z"/>
        <path fill-rule="nonzero" d="M57.64 77.92h-1.31v-2.61h1.31v2.61zm0-5.22h-1.31v-2.6h1.31v2.6zm0-5.21h-1.31v-2.6h1.31v2.6zm0-5.21h-1.31v-2.6h1.31v2.6zm0-5.21h-1.31v-2.6h1.31v2.6zm0-5.21h-1.31v-2.6h1.31v2.6zm0-5.21h-1.31V44h1.31v2.65zm0-5.21h-1.31v-2.61h1.31v2.61zm0-5.21h-1.31v-2.61h1.31v2.61zm0-5.21h-1.31v-2.61h1.31v2.61zm0-5.21h-1.31V23.2h1.31v2.61zm0-5.22h-1.31V18h1.31v2.59zm0-5.21h-1.31v-2.6h1.31v2.6zm0-5.21h-1.31v-2.6h1.31v2.6zm0-5.21h-1.31v-2.6h1.31v2.6z"/>
    </g>
</svg>
