<svg xmlns="http://www.w3.org/2000/svg" width="142" height="160" viewBox="0 0 142 160">
    <g fill="#00152B" fill-rule="nonzero">
        <path d="M8.326 68.49H.581V42.503a3.87 3.87 0 0 1 2-3.355L69.065.735a3.874 3.874 0 0 1 3.872 0l66.547 38.413a3.87 3.87 0 0 1 1.936 3.355v25.549h-7.745V44.735L71 8.568 8.326 44.697V68.49zM71 159.78a3.952 3.952 0 0 1-1.936-.515L2.582 120.852l3.873-6.71L71 151.432l64.61-37.29 3.873 6.71-66.547 38.413a3.952 3.952 0 0 1-1.936.516z"/>
        <path d="M27.11 82.013v25.329L49.054 120 71 107.342 92.945 120l21.946-12.658v-25.33l-21.946-12.67V94.67L71 82.013 49.055 94.67v-25.33z"/>
    </g>
</svg>
