<svg xmlns="http://www.w3.org/2000/svg" width="151" height="60" viewBox="0 0 151 60">
    <g fill="none" fill-rule="evenodd">
        <path fill="#FFF" d="M78.167 22.672c-1.503-1.95-2.802-3.367-5.063-3.367a3.497 3.497 0 0 0-2.64.921 3.485 3.485 0 0 0-1.117 2.559 5.548 5.548 0 0 0 2.457 4.253c5.168 3.825 8.97 6.464 8.97 10.905-.103 4.172-3.566 7.475-7.746 7.387-3.756 0-6.288-2.108-8.316-5.82l2.337-1.417c1.645 3 3.643 4.56 5.747 4.56a4.88 4.88 0 0 0 3.525-1.276 4.864 4.864 0 0 0 1.575-3.397c0-3-2.84-4.747-9.082-9.795a7.187 7.187 0 0 1-2.344-5.25c0-3.75 2.952-6.427 6.671-6.427 3.373 0 5.409 2.024 7.205 4.5l-2.18 1.665z"/>
        <path fill="#FFF" fill-rule="nonzero" d="M88.55 34.688c.097 4.672 3.297 8.062 7.67 8.062 4.251 0 6.28-2.415 7.775-4.86l2.186 1.148c-2.066 4.057-5.259 6.082-9.699 6.082-6.761 0-10.615-5.167-10.615-10.597 0-5.55 4.102-10.756 10.465-10.756 5.785 0 10.465 4.17 10.517 10.905l-18.3.016zm15.445-2.296c-1.067-4.207-4.095-6.082-7.625-6.082-3.644 0-6.363 1.95-7.55 6.082h15.175z"/>
        <path fill="#FFF" d="M111.507 44.64l3.914-27.48h.458l11.194 22.545 11.08-22.545h.459l3.906 27.48h-2.681l-2.682-19.672-9.767 19.672h-.69l-9.857-19.823-2.652 19.823zM148.153 17.16h2.764v27.48h-2.764z"/>
        <path fill="#BB075A" d="M.39 15.195V44.64l12.772 7.365V37.282l12.77-7.364z"/>
        <path fill="#FA0171" d="M38.704 7.838L25.933.473.39 15.194l12.77 7.365zM51.475 44.64l-12.77-7.358-25.543 14.723 12.77 7.357z"/>
        <path fill="#BB075A" d="M51.475 44.64V15.195l-12.77-7.357V22.56l-12.772 7.358z"/>
    </g>
</svg>
