<svg xmlns="http://www.w3.org/2000/svg" width="167" height="48" viewBox="0 0 167 48">
    <g fill="none" fill-rule="evenodd">
        <path fill="#BB075A" d="M.312 12.156v23.556l10.187 5.886V29.82l10.188-5.886z"/>
        <path fill="#FA0171" d="M30.875 6.27L20.687.378.312 12.156l10.187 5.892zM41.063 35.712L30.875 29.82 10.5 41.598l10.188 5.892z"/>
        <path fill="#BB075A" d="M41.063 35.712V12.156L30.875 6.27v11.778l-10.188 5.886z"/>
        <path fill="#FFF" fill-rule="nonzero" d="M123.153 14.754h1.198c.51-.017 1.02.066 1.498.246a2.316 2.316 0 0 1 1.397 2.274 2.222 2.222 0 0 1-2.397 2.4h-1.696v-4.92zm1.198 4.41c.923 0 1.534-.084 1.972-.6.287-.368.437-.824.425-1.29a2.066 2.066 0 0 0-.407-1.296c-.462-.6-1.15-.732-2.211-.732h-.498v3.93l.72-.012zM128.325 17.874a1.38 1.38 0 0 0 1.36 1.434 1.516 1.516 0 0 0 1.378-.864l.39.204a1.893 1.893 0 0 1-3.596-.804 1.861 1.861 0 0 1 1.852-1.908 1.839 1.839 0 0 1 1.87 1.938h-3.254zm2.738-.408a1.379 1.379 0 0 0-2.69 0h2.69z"/>
        <path fill="#FFF" d="M135.822 18.912a1.935 1.935 0 0 1-1.696.816 1.88 1.88 0 0 1-1.984-1.86 1.94 1.94 0 0 1 2.02-1.932 1.87 1.87 0 0 1 1.66.84l-.378.234a1.54 1.54 0 0 0-1.3-.63 1.463 1.463 0 0 0 0 2.928c.508.009.99-.228 1.294-.636l.384.24z"/>
        <path fill="#FFF" fill-rule="nonzero" d="M136.9 17.874a1.375 1.375 0 0 0 1.36 1.434 1.516 1.516 0 0 0 1.379-.864l.39.204a1.893 1.893 0 0 1-3.596-.804 1.861 1.861 0 0 1 1.852-1.908 1.839 1.839 0 0 1 1.87 1.938H136.9zm2.739-.408a1.379 1.379 0 0 0-2.69 0h2.69z"/>
        <path fill="#FFF" d="M141.353 16.674c.3-.454.805-.73 1.348-.738.791 0 1.343.54 1.343 1.68v2.022h-.462v-1.962c0-.852-.27-1.32-.965-1.32a1.162 1.162 0 0 0-.952.486 1.862 1.862 0 0 0-.312 1.284v1.512h-.462v-3.6h.462v.636zM145.332 14.682h.462v1.344h.743v.408h-.743v3.204h-.462v-3.204h-.635v-.408h.635zM147.424 16.554c.186-.346.537-.573.929-.6a.742.742 0 0 1 .419.12l-.246.396a.52.52 0 0 0-.245-.072c-.342 0-.648.294-.78.792-.069.36-.095.726-.077 1.092v1.374h-.486v-3.6h.486v.498z"/>
        <path fill="#FFF" fill-rule="nonzero" d="M152.17 16.026h.455v3.6h-.455v-.6a1.797 1.797 0 0 1-1.456.708 1.895 1.895 0 0 1-1.894-1.896c0-1.047.848-1.896 1.894-1.896a1.701 1.701 0 0 1 1.444.75l.012-.666zm-2.829 1.8a1.451 1.451 0 0 0 1.42 1.47 1.463 1.463 0 0 0 0-2.928 1.437 1.437 0 0 0-1.42 1.47v-.012z"/>
        <path fill="#FFF" d="M153.482 14.634h.462v5.004h-.462z"/>
        <path fill="#FFF" fill-rule="nonzero" d="M155.373 14.922c0 .212-.179.384-.4.384-.22 0-.4-.172-.4-.384 0-.212.18-.384.4-.384.221 0 .4.172.4.384zm-.625 1.104h.494v3.6h-.481l-.013-3.6z"/>
        <path fill="#FFF" d="M155.736 16.026h2.655l-2.044 3.204h1.978v.408h-2.781l2.067-3.204h-1.857z"/>
        <path fill="#FFF" fill-rule="nonzero" d="M159.116 17.874a1.369 1.369 0 0 0 1.354 1.434 1.516 1.516 0 0 0 1.378-.864l.39.204a1.798 1.798 0 0 1-1.72 1.08 1.833 1.833 0 0 1-1.882-1.884 1.861 1.861 0 0 1 1.858-1.908 1.833 1.833 0 0 1 1.864 1.938h-3.242zm2.732-.408a1.379 1.379 0 0 0-2.69 0h2.69zM166.247 19.02c-.343.45-.878.713-1.444.708a1.895 1.895 0 0 1-1.894-1.896c0-1.047.848-1.896 1.894-1.896a1.701 1.701 0 0 1 1.438.75v-2.052h.462v5.004h-.462l.006-.618zm-2.828-1.2a1.451 1.451 0 0 0 1.42 1.47 1.463 1.463 0 0 0 0-2.928 1.437 1.437 0 0 0-1.42 1.476v-.018z"/>
        <path fill="#FFF" d="M123.159 21.954h.491v1.8l1.948-1.8h.659l-2.343 2.19 2.535 2.694h-.647l-2.146-2.274v2.274h-.491zM127.444 23.874c.3-.454.804-.73 1.348-.738.791 0 1.342.54 1.342 1.68v2.022h-.461v-1.962c0-.852-.27-1.32-.965-1.32a1.162 1.162 0 0 0-.953.486 1.862 1.862 0 0 0-.311 1.284v1.512h-.462v-3.6h.462v.636z"/>
        <path fill="#FFF" fill-rule="nonzero" d="M134.605 25.044a1.883 1.883 0 1 1-1.882-1.908 1.869 1.869 0 0 1 1.882 1.908zm-3.29 0a1.41 1.41 0 0 0 2.136 1.297 1.41 1.41 0 0 0 .675-1.297 1.41 1.41 0 0 0-2.136-1.297 1.41 1.41 0 0 0-.675 1.297z"/>
        <path fill="#FFF" d="M134.839 23.226h.48l1.102 2.622 1.15-2.622h.084l1.163 2.622 1.12-2.622h.48l-1.558 3.6h-.09l-1.15-2.58-1.151 2.58h-.096zM140.832 21.834h.461v5.004h-.461z"/>
        <path fill="#FFF" fill-rule="nonzero" d="M142.414 25.074a1.369 1.369 0 0 0 1.354 1.434 1.516 1.516 0 0 0 1.378-.864l.39.204a1.798 1.798 0 0 1-1.72 1.08 1.833 1.833 0 0 1-1.882-1.884 1.861 1.861 0 0 1 1.858-1.908 1.833 1.833 0 0 1 1.864 1.938h-3.242zm2.732-.408a1.379 1.379 0 0 0-2.69 0h2.69zM149.551 26.22a1.797 1.797 0 0 1-1.45.708 1.895 1.895 0 0 1-1.894-1.896c0-1.047.848-1.896 1.894-1.896a1.701 1.701 0 0 1 1.438.75v-2.052h.462v5.004h-.462l.012-.618zm-2.823-1.2a1.451 1.451 0 0 0 1.42 1.47 1.465 1.465 0 0 0 1.093-2.481 1.461 1.461 0 0 0-2.513 1.011zM154.52 26.106a2.432 2.432 0 0 1-.324 1.494 1.833 1.833 0 0 1-1.529.66 1.798 1.798 0 0 1-1.863-1.122h.503c.266.477.787.752 1.33.702.499.05.984-.18 1.259-.6.117-.247.17-.52.156-.792v-.27a1.856 1.856 0 0 1-3.296-1.146 1.87 1.87 0 0 1 1.845-1.872 1.797 1.797 0 0 1 1.45.72v-.6h.468v2.826zm-3.29-1.068a1.345 1.345 0 0 0 1.461 1.362 1.318 1.318 0 0 0 1.379-1.392 1.369 1.369 0 0 0-1.39-1.422 1.431 1.431 0 0 0-1.45 1.452zM155.7 25.074a1.38 1.38 0 0 0 1.36 1.434 1.516 1.516 0 0 0 1.378-.864l.39.204a1.798 1.798 0 0 1-1.72 1.08 1.833 1.833 0 0 1-1.894-1.884 1.861 1.861 0 0 1 1.858-1.908 1.833 1.833 0 0 1 1.864 1.938H155.7zm2.738-.408a1.379 1.379 0 0 0-2.69 0h2.69z"/>
        <path fill="#FFF" d="M123.17 34.038v-4.884h.103l3.23 3.744v-3.744h.491v4.884h-.108l-3.23-3.69v3.69z"/>
        <path fill="#FFF" fill-rule="nonzero" d="M128.3 32.274a1.369 1.369 0 0 0 1.355 1.434 1.516 1.516 0 0 0 1.378-.864l.39.204a1.798 1.798 0 0 1-1.72 1.08 1.833 1.833 0 0 1-1.882-1.884 1.861 1.861 0 0 1 1.858-1.908 1.833 1.833 0 0 1 1.864 1.938H128.3zm2.733-.408a1.373 1.373 0 0 0-2.685 0h2.685z"/>
        <path fill="#FFF" d="M132.7 29.082h.46v1.344h.744v.408h-.743v3.204h-.462v-3.204h-.635v-.408h.635zM133.988 30.426h.48l1.102 2.622 1.156-2.622h.078l1.163 2.622 1.12-2.622h.486l-1.564 3.6h-.09l-1.15-2.58-1.151 2.58h-.096z"/>
        <path fill="#FFF" fill-rule="nonzero" d="M143.6 32.244a1.883 1.883 0 1 1-1.882-1.908 1.869 1.869 0 0 1 1.882 1.908zm-3.29 0a1.41 1.41 0 1 0 2.818.002 1.41 1.41 0 0 0-2.818-.002z"/>
        <path fill="#FFF" d="M144.643 30.954c.186-.346.537-.573.929-.6.147-.002.29.04.413.12l-.245.396a.52.52 0 0 0-.246-.072c-.336 0-.641.294-.78.792-.062.36-.087.726-.071 1.092v1.374h-.491v-3.6h.491v.498zM146.267 29.034h.461v2.85l1.66-1.458h.69l-1.978 1.722 2.122 1.89h-.66l-1.798-1.626v1.626h-.461zM61.127 18.498c-1.055-1.386-1.984-2.4-3.596-2.4a2.473 2.473 0 0 0-2.637 2.502 3.955 3.955 0 0 0 1.738 3c3.668 2.718 6.359 4.596 6.359 7.752a5.396 5.396 0 0 1-5.46 5.256c-2.69 0-4.452-1.5-5.897-4.14l1.66-1.002c1.199 2.148 2.583 3.234 4.075 3.234a3.45 3.45 0 0 0 3.596-3.318c0-2.148-2.008-3.372-6.442-6.966a5.115 5.115 0 0 1-1.654-3.756 4.539 4.539 0 0 1 1.383-3.303 4.528 4.528 0 0 1 3.345-1.269c2.397 0 3.83 1.446 5.106 3.186l-1.576 1.224z"/>
        <path fill="#FFF" fill-rule="nonzero" d="M68.48 27.042c.084 3.318 2.337 5.742 5.436 5.742 3.098 0 4.458-1.716 5.519-3.456l1.552.816c-1.468 2.886-3.727 4.326-6.88 4.326-4.794 0-7.527-3.672-7.527-7.536 0-3.864 2.937-7.65 7.42-7.65 4.105 0 7.419 3 7.473 7.758H68.48zm10.955-1.632c-.761-3-2.907-4.326-5.394-4.326s-4.512 1.386-5.357 4.326h10.751z"/>
        <path fill="#FFF" d="M84.763 34.116l2.774-19.536h.324l7.934 16.02 7.881-16.02H104l2.774 19.536h-1.9l-1.9-13.986-6.933 13.986h-.491l-7.012-14.094-1.876 14.094zM110.748 14.58h1.953v19.536h-1.953z"/>
    </g>
</svg>
