<svg xmlns="http://www.w3.org/2000/svg" width="141" height="142" viewBox="0 0 141 142">
    <defs>
        <linearGradient id="a" x1="0%" x2="100.016%" y1="50.002%" y2="50.002%">
            <stop offset="0%" stop-color="#304A6C"/>
            <stop offset="100%" stop-color="#38D611"/>
        </linearGradient>
    </defs>
    <g fill="none" fill-rule="nonzero">
        <path fill="#38D611" d="M137.86 62.86l-1.74-1 .5-.86 1.74 1-.5.86zm-135.5 0l-.5-.86.88-.52.5.86-.88.52zM5 61.34l-.5-.86 1.74-1 .5.86-1.74 1zm129.4-.48l-1.72-1 .5-.86 1.72 1-.5.86zm-126-1.52l-.5-.86 1.74-1 .5.86-1.74 1zm122.6-.48l-1.72-1 .5-.86 1.72 1-.5.86zM11.98 57.34l-.5-.86 1.74-1 .5.86-1.74 1zm115.56-.48l-1.74-1 .5-.86 1.74 1-.5.86zm-112-1.52l-.5-.86 1.72-1 .5.86-1.72 1zm108.62-.48l-1.74-1 .5-.86 1.74 1-.5.86zM19 53.34l-.5-.86 1.72-1 .5.86-1.72 1zm101.68-.48l-1.72-1 .5-.86 1.54 1-.32.86zm-98.22-1.52l-.5-.86 1.74-1 .5.86-1.74 1zm94.54-.48l-1.72-1 .5-.86 1.72 1-.5.86zm-91.3-1.52l-.5-.86 1.74-1 .5.86-1.74 1zm87.84-.48l-1.74-1 .5-.86 1.74 1-.5.86zm-84.38-1.52l-.5-.86 1.74-1 .5.86-1.74 1zm80.92-.48l-1.74-1L109 45l1.74 1-.66.86zm-77.44-1.52l-.5-.86 1.72-1 .5.86-1.72 1zm74-.48l-1.74-1 .5-.86 1.74 1-.5.86zm-70.52-1.52l-.5-.86 1.72-1 .5.86-1.72 1zm67.04-.48l-1.72-1 .5-.86 1.72 1-.5.86zm-63.58-1.52l-.5-.86 1.74-1 .5.86-1.74 1zm60.12-.48l-1.72-1 .5-.86 1.72 1-.5.86zM43 39.34l-.5-.86 1.74-1 .5.86-1.74 1zm53.2-.48l-1.74-1L95 37l1.74 1-.54.86zm-49.72-1.52l-.5-.86 1.72-1 .5.86-1.72 1zm46.26-.48l-1.74-1 .5-.86 1.74 1-.5.86zm-42.8-1.52l-.5-.86 1.72-1 .5.86-1.72 1zm39.34-.48l-1.74-1 .5-.86 1.74 1-.5.86zM53.4 33.34l-.4-.86 1.74-1 .5.86-1.84 1zm32.4-.48l-1.72-1 .5-.86 1.72 1-.5.86zM57 31.34l-.5-.86 1.74-1 .5.86-1.74 1zm25.48-.48l-1.72-1 .5-.86L83 30l-.52.86zm-22-1.52l-.5-.86 1.74-1 .5.86-1.74 1zM79 28.86l-1.74-1 .5-.86 1.74 1-.5.86zm-15.08-1.52l-.5-.86 1.72-1 .5.86-1.72 1zm11.62-.48l-1.74-1 .5-.86 1.74 1-.5.86zm-8.16-1.52l-.5-.86 1.72-1 .5.86-1.72 1zm4.7-.48l-1.74-1 .5-.86 1.74 1-.5.86z"/>
        <path fill="url(#a)" d="M104.1 84.38l-34-19.64-34 19.64-36-20.8V22l38-22v39.34l32-18.48 32 18.48V0l38 22v41.58l-36 20.8zm-34-24.26l34 19.64 32-18.48V24.32L106.1 7v39.26l-36-20.78-36 20.78V7l-30 17.32v36.96l32 18.48 34-19.64z"/>
        <path fill="#38D611" d="M138.1 62.92h-2V62h2v.92zm-4 0h-2V62h2v.92zm-4 0h-2V62h2v.92zm-4 0h-2V62h2v.92zm-4 0h-2V62h2v.92zm-4 0h-2V62h2v.92zm-4 0h-2V62h2v.92zm-4 0h-2V62h2v.92zm-4 0h-2V62h2v.92zm-4 0h-2V62h2v.92zm-4 0h-2V62h2v.92zm-4 0h-2V62h2v.92zm-4 0h-2V62h2v.92zm-4 0h-2V62h2v.92zm-4 0h-2V62h2v.92zm-4 0h-2V62h2v.92zm-4 0h-2V62h2v.92zm-4 0h-2V62h2v.92zm-4 0h-2V62h2v.92zm-4 0h-2V62h2v.92zm-4 0h-2V62h2v.92zm-4 0h-2V62h2v.92zm-4 0h-2V62h2v.92zm-4 0h-2V62h2v.92zm-4 0h-2V62h2v.92zm-4 0h-2V62h2v.92zm-4 0h-2V62h2v.92zm-4 0h-2V62h2v.92zm-4 0h-2V62h2v.92zm-4 0h-2V62h2v.92zm-4 0h-2V62h2v.92zm-4 0h-2V62h2v.92zm-4 0h-2V62h2v.92zm-4 0h-2V62h2v.92z"/>
        <path fill="url(#a)" d="M104.1 84.38l-34-19.64-34 19.64-36-20.8V22l38-22v78.6l32-18.48 32 18.48V0l38 22v41.58l-36 20.8zm-100-23.1l30 17.32V7l-30 17.32v36.96zM106.1 7v71.6l30-17.32V24.32L106.1 7z"/>
        <path fill="#00152B" d="M27 141.12h-5.1l-3.44-11.02h-.32l-3.48 11.02H9.54L3.1 118h4.76l.36 2.84 4 15.22h.32l4-12.44-1.66-5.62h4.94l.54 3.34 4.14 14.72h.32l4.66-14.9.58-3.16h4.5zM48.14 133.4h-9.66A4.18 4.18 0 0 0 43 138a12.42 12.42 0 0 0 4.94-1.26l.4.26-.72 3.54a15 15 0 0 1-5.12 1c-5.26 0-8.4-3.26-8.4-8.62 0-5.36 3.1-8.7 8-8.7a6 6 0 0 1 6.66 6.58 16.26 16.26 0 0 1-.18 2l-.44.6zm-3.44-3.2c0-1.9-.92-2.9-2.6-2.9-1.68 0-3.12 1.26-3.52 3.56l6-.16.12-.5zM64.58 128.84c0 1.22-.4 6.8-.4 8 0 .78.22 1.06.84 1.06a3.1 3.1 0 0 0 .92-.14l.36.28-.42 2.52a5.66 5.66 0 0 1-2.62.88 2.98 2.98 0 0 1-2.76-2.6h-.26a10.3 10.3 0 0 1-3.68 2.64c-3.44 0-5.52-2-5.52-4.96a4 4 0 0 1 3.7-4.2l5.48-1.04v-1.46a2 2 0 0 0-2.3-2.34 9.18 9.18 0 0 0-5.12 2l-.36-.2-.54-3.16a12.9 12.9 0 0 1 6.8-2c3.66.04 5.88 1.76 5.88 4.72zm-8.2 5.62a1.3 1.3 0 0 0-1.1 1.5 1.76 1.76 0 0 0 2 2 4.24 4.24 0 0 0 2.92-1.64v-2.66l-3.82.8zM72.24 127.12l2.52 9.52H75l3.02-9.26.6-2.9h4.16l-5.6 16.64h-5.12l-4.72-16.54 4.44-.2zM90 118.76a2.42 2.42 0 0 1-2.54 2.64 2.22 2.22 0 0 1-2.46-2.48 2.44 2.44 0 0 1 2.6-2.6 2.2 2.2 0 0 1 2.4 2.44zm-4.6 15.5l-.18-9.46 4.68-.4-.22 9.38.22 7.34h-4.76l.26-6.86zM106.84 128.84c0 1.22-.4 6.8-.4 8 0 .78.22 1.06.82 1.06a3.2 3.2 0 0 0 .94-.14l.36.28-.44 2.52a5.64 5.64 0 0 1-2.6.88 2.98 2.98 0 0 1-2.76-2.6h-.26a10.3 10.3 0 0 1-3.68 2.64c-3.44 0-5.52-2-5.52-4.96a4 4 0 0 1 3.7-4.24l5.46-1.04v-1.46c0-1.58-.74-2.34-2.28-2.34a9.18 9.18 0 0 0-5.12 2l-.36-.2-.54-3.16a12.9 12.9 0 0 1 6.8-2c3.66.08 5.88 1.8 5.88 4.76zm-8.2 5.62c-.76.18-1.1.58-1.1 1.5a1.76 1.76 0 0 0 1.88 2 4.28 4.28 0 0 0 2.94-1.64v-2.66l-3.72.8zM120.76 137l.4.36-.46 2.84a10.84 10.84 0 0 1-3.72 1.14c-3.22-.32-4.84-2-4.84-4.72l.18-2.98v-6.16h-2.26l-.18-.24.26-2.62h2.1v-2.76l4.34-1.4.32.3v3.86h4.1l.14.26-.14 2.6h-4.28l-.22 8c0 1.58.58 2.12 1.88 2.12a5.34 5.34 0 0 0 2.38-.6zM136.38 133.4h-9.66c.28 3.08 1.74 4.6 4.54 4.6a12.5 12.5 0 0 0 4.94-1.26l.4.26-.72 3.54a15.08 15.08 0 0 1-5.12 1c-5.26 0-8.42-3.26-8.42-8.62 0-5.36 3.12-8.7 8-8.7a6 6 0 0 1 6.66 6.58 16.26 16.26 0 0 1-.18 2l-.44.6zm-3.38-3.2c0-1.9-.92-2.9-2.6-2.9-1.68 0-3.12 1.26-3.52 3.56l6-.16.12-.5z"/>
    </g>
</svg>
