<?xml version="1.0" encoding="UTF-8"?>
<svg width="30px" height="35px" viewBox="0 0 30 35" version="1.1" xmlns="http://www.w3.org/2000/svg" xmlns:xlink="http://www.w3.org/1999/xlink">
    <!-- Generator: sketchtool 53 (72520) - https://sketchapp.com -->
    <title>E4190982-F93A-4ABA-AC0E-B84C3C98D5C5</title>
    <desc>Created with sketchtool.</desc>
    <defs>
        <path d="M6.90830368,4.87301761 C7.03957023,4.77257725 7.20354178,4.73229427 7.36321481,4.76125936 C7.52288784,4.79022445 7.66480626,4.88599663 7.7569433,5.02696296 C7.95025998,5.31705259 7.88488146,5.71797701 7.61086318,5.92277843 C7.33684489,6.12757985 6.95779739,6.05881969 6.76392894,5.76914245 C6.5700605,5.4794652 6.63467577,5.07840233 6.90830368,4.87301761 Z M4.93086458,3.08466187 C5.10411549,3.19318934 5.22838369,3.3713747 5.2752851,3.57851868 C5.32218652,3.78566266 5.28771511,4.00407219 5.17974447,4.18386041 C4.96133505,4.55513231 4.50030811,4.66976368 4.14842995,4.44029011 C3.7965518,4.21081654 3.68623398,3.7235888 3.90164965,3.35036456 C4.11706532,2.97714033 4.57715369,2.85836366 4.93086458,3.08466187 Z M9.77110239,6.7980538 C9.72078241,7.24694116 9.67182243,7.66993118 9.65006244,8.01810663 C9.62009274,8.48495434 9.62600549,8.95360568 9.66774243,9.4194409 L9.88942233,11.862424 C9.90017004,11.983701 9.86197774,12.1041361 9.78426721,12.1940189 C9.70655668,12.2839017 9.59656362,12.3348631 9.48142252,12.3343313 L3.98566501,12.4005134 C3.87481417,12.4005922 3.76870463,12.3529519 3.69174486,12.268551 C3.61478509,12.1841501 3.57360064,12.0702549 3.5776652,11.9530648 L3.61710518,10.6337388 L2.19182582,10.7358894 C1.98822435,10.7503729 1.80581868,10.603497 1.76478602,10.3920302 L1.38670619,8.44685161 L0.369426651,8.34470096 C0.241967317,8.33189527 0.127582001,8.25653708 0.0604952304,8.14117385 C-0.00659154002,8.02581063 -0.0185985273,7.88382307 0.0280668055,7.75769441 L1.30782623,4.29464351 C1.3540662,1.95812724 3.32198531,-9.9475983e-14 5.63398426,-9.9475983e-14 C7.44278344,-9.9475983e-14 9.16046266,1.22868528 9.72622241,2.92352282 C10.1070222,3.81698132 9.92886231,5.39959702 9.77110239,6.7980538 Z M5.71014423,5.10609375 C5.72557881,5.05694405 5.72265937,5.00341045 5.70198423,4.95646462 L5.58094429,4.59246301 C5.60678428,4.55649447 5.62854427,4.51764845 5.65166425,4.47880243 C5.67478424,4.43995641 5.69382424,4.40542661 5.71286423,4.36514185 L6.06782407,4.33780576 C6.11896006,4.33765238 6.16792007,4.3158986 6.203824,4.27737861 C6.23954051,4.23923676 6.25874023,4.18715636 6.25686398,4.13350446 L6.26910397,3.43859229 C6.26827432,3.34500226 6.20702814,3.26416055 6.12086404,3.24292344 L6.10726405,3.24292344 L5.75094421,3.20551616 C5.71906357,3.1279894 5.68035976,3.05380721 5.63534426,2.98394997 L5.79310419,2.64728444 C5.8386097,2.55539264 5.80957427,2.4419295 5.72646422,2.38687222 L5.16750447,2.02430935 C5.08367218,1.97366115 4.97719424,1.9985546 4.92134459,2.08185902 L4.69694469,2.38687222 C4.61559502,2.37731022 4.53349446,2.37731022 4.4521448,2.38687222 L4.25086489,2.07466531 L4.25086489,2.06603286 C4.22271971,2.03075318 4.18456095,2.00602772 4.14206494,1.99553452 C4.09531603,1.98322 4.04582057,1.99264501 4.006065,2.02143187 L3.43350526,2.34514872 C3.38822796,2.36812737 3.35382385,2.40972287 3.3383053,2.46024804 C3.32143369,2.50654544 3.32143369,2.5578248 3.3383053,2.6041222 L3.47430524,2.95373639 C3.44982525,2.98826619 3.42942526,3.02423473 3.40630527,3.06308075 C3.38318528,3.10192677 3.36414529,3.13645657 3.3451053,3.17674133 L3.00238546,3.20695491 C2.95124946,3.20710828 2.90228945,3.22886207 2.86638552,3.26738205 C2.83066901,3.30552391 2.81146929,3.35760431 2.81334554,3.4112562 L2.80110555,4.10616837 C2.80098608,4.19867295 2.8604414,4.27937189 2.94526548,4.30183722 L2.95614548,4.30183722 L3.30838532,4.34931569 C3.34053104,4.42789757 3.37969538,4.50305313 3.42534526,4.57375937 L3.26758534,4.91042489 C3.22157589,5.00159824 3.24937761,5.11486342 3.33150531,5.17083711 L3.89182505,5.53771621 C3.97630289,5.58896516 4.08379956,5.56334678 4.13934494,5.47872781 L4.35286484,5.17659208 C4.43377592,5.18584229 4.51539365,5.18584229 4.59630473,5.17659208 L4.79758464,5.488799 L4.79758464,5.49887019 C4.85620447,5.5781166 4.96208309,5.59740701 5.04238453,5.54347117 L5.61494427,5.21975433 C5.65994325,5.19710502 5.69430653,5.15607821 5.71014423,5.10609375 Z M8.60014292,5.73626254 C8.63421017,5.66490225 8.61262181,5.57786979 8.54982294,5.53339998 L8.54030294,5.53339998 L8.29414306,5.38952583 C8.29416693,5.3229027 8.28824735,5.25642586 8.27646306,5.1909795 L8.48454297,5.00250435 C8.54491349,4.95230557 8.55854603,4.8613852 8.51582296,4.79388683 L8.21798309,4.34931569 C8.1727743,4.28467656 8.08841776,4.26720286 8.02350318,4.30903093 L7.77190329,4.45290508 C7.71645262,4.41882567 7.65761663,4.39132316 7.59646337,4.37089682 L7.5434234,4.08314851 L7.5434234,4.07451606 C7.53360671,4.04001593 7.51358544,4.00975811 7.48630342,3.98819156 C7.45589435,3.96431031 7.41744955,3.95492476 7.38022347,3.96229422 L6.8715837,4.00833395 C6.83233247,4.01017305 6.7954913,4.02888068 6.76958375,4.06012864 C6.74452949,4.08976055 6.73093504,4.12828258 6.73150376,4.16803426 L6.73150376,4.48167991 C6.70294378,4.49894481 6.67710379,4.51908719 6.6499038,4.53922958 C6.62270381,4.55937196 6.59686383,4.5780756 6.57238384,4.60109546 L6.30854396,4.50326104 C6.27273322,4.48820293 6.23283475,4.48820293 6.19702401,4.50326104 C6.16043251,4.51876173 6.13143639,4.5494367 6.11678404,4.58814679 L5.90326414,5.08595136 C5.87614028,5.15392536 5.89701494,5.23270893 5.95358412,5.27586525 L5.96038411,5.27586525 L6.20110401,5.4197394 C6.20036376,5.48775816 6.20582908,5.55569379 6.217424,5.62260196 L6.00798409,5.80963836 C5.94761358,5.85983715 5.93398103,5.95075752 5.97670411,6.01825589 L6.27454397,6.46282702 C6.32027318,6.52779903 6.40551196,6.54470666 6.47038388,6.50167304 L6.70974377,6.35779889 C6.7648317,6.39164112 6.82319218,6.41913448 6.8838237,6.43980716 L6.93686367,6.72755547 L6.93686367,6.73618792 C6.95617348,6.81287624 7.0274271,6.86146773 7.1014236,6.84840976 L7.61006337,6.80237003 C7.6493146,6.80053093 7.68615577,6.7818233 7.71206332,6.75057533 C7.73668755,6.72123938 7.75024268,6.68334092 7.7501433,6.64410846 L7.76918329,6.34197273 C7.79774328,6.32470783 7.82630327,6.30312671 7.85350326,6.28298433 C7.88070324,6.26284195 7.90654323,6.24413831 7.93102322,6.22111844 L8.1948631,6.31895287 C8.23067384,6.33401098 8.27057231,6.33401098 8.30638305,6.31895287 C8.34297454,6.30345217 8.37197067,6.27277721 8.38662301,6.23406712 L8.60014292,5.73626254 Z" id="path-1"></path>
    </defs>
    <g id="SeMI-Website" stroke="none" stroke-width="1" fill="none" fill-rule="evenodd">
        <g id="Products" transform="translate(-368.000000, -2112.000000)">
            <g id="Group-5" transform="translate(-135.000000, 274.000000)">
                <g id="Group-9" transform="translate(463.000000, 1798.000000)">
                    <g id="Group-2">
                        <g id="icons/PointSolutions/common-knowledge" transform="translate(40.000000, 40.000000)">
                            <g id="Group-5-Copy-5">
                                <g id="Group-3">
                                    <polygon id="Path" fill="#0070E6" points="2.10526316 24.6165346 2.10526316 9.60938799 15 2.10621062 27.8947368 9.60938799 27.8947368 24.6165346 14.9530393 32.2768879"></polygon>
                                    <path d="M15,0 L0,8.68775168 L0,26.0644299 L14.8536214,34.6678886 L15,34.7524752 L30,26.0644299 L30,8.68775168 L15.1460858,0.084586629 L15,0 Z M2.1001533,24.6400315 L2.1001533,9.6714559 L14.9314614,2.18756301 L27.7625089,9.6714559 L27.7625089,24.6400315 L14.9314614,32.1239244 L2.1001533,24.6400315 Z" id="Fill-24" fill="#ABABAB"></path>
                                </g>
                                <g id="Group-32-Copy">
                                    <g id="Group-23" transform="translate(1.578947, 8.773684)" fill="#04152A">
                                        <polygon id="Fill-9" points="0.341780787 0.989076508 0.117922841 0.854279028 0.1846372 0.741333483 0.408495146 0.875867687"></polygon>
                                        <polygon id="Fill-13" points="13.374092 8.84110869 13.1168769 8.68630221 13.1835912 8.57309338 13.374092 8.68788186 13.5645927 8.57309338 13.6313071 8.68630221"></polygon>
                                        <polygon id="Fill-17" points="26.4064032 0.989076508 26.3396888 0.875867687 26.5635468 0.741333483 26.6300005 0.854279028"></polygon>
                                        <polygon id="Fill-19" points="13.3089934 23.7664806 13.4392948 23.7664806 13.4392948 23.5032043 13.3089934 23.5032043"></polygon>
                                        <polygon id="Fill-22" points="13.3089934 9.69620387 13.4392948 9.69620387 13.4392948 9.43292754 13.3089934 9.43292754"></polygon>
                                    </g>
                                    <path d="M15,0 L0,8.68775168 L0,26.0644299 L14.8536214,34.6678886 L15,34.7524752 L30,26.0644299 L30,8.68775168 L15.1460858,0.084586629 L15,0 Z M2.1001533,24.6400315 L2.1001533,9.6714559 L14.9314614,2.18756301 L27.7625089,9.6714559 L27.7625089,24.6400315 L14.9314614,32.1239244 L2.1001533,24.6400315 Z" id="Fill-24" fill="#EAE7E7"></path>
                                    <path d="M14.9287401,17.3118119 L15.002591,17.4406634 L14.3176438,17.8332395 L14.2437929,17.7043881 L14.9287401,17.3118119 Z M13.5588456,18.0969642 L13.6326966,18.2258157 L12.9477494,18.6183919 L12.8738984,18.4895404 L13.5588456,18.0969642 Z M12.1889512,18.8821166 L12.2628021,19.010968 L11.5778549,19.4035442 L11.504004,19.2746928 L12.1889512,18.8821166 Z M10.8190567,19.6672689 L10.8929077,19.7961204 L10.2079605,20.1886966 L10.1341095,20.0598451 L10.8190567,19.6672689 Z M9.44916229,20.4524213 L9.52301325,20.5812727 L8.83806602,20.9738489 L8.76421506,20.8449974 L9.44916229,20.4524213 Z M8.07926784,21.2375736 L8.1531188,21.3664251 L7.46817157,21.7590012 L7.39432061,21.6301498 L8.07926784,21.2375736 Z M6.70937339,22.022726 L6.78322435,22.1515774 L6.09827712,22.5441536 L6.02442616,22.4153021 L6.70937339,22.022726 Z M5.33947894,22.8078783 L5.4133299,22.9367298 L4.72838268,23.3293059 L4.65453172,23.2004545 L5.33947894,22.8078783 Z M3.96958449,23.5930307 L4.04343545,23.7218821 L3.35848823,24.1144583 L3.28463727,23.9856068 L3.96958449,23.5930307 Z M2.59969004,24.378183 L2.673541,24.5070345 L2.13707878,24.8145067 L2.06322782,24.6856553 L2.59969004,24.378183 Z" id="Path-2" fill="#EAE7E7" fill-rule="nonzero"></path>
                                    <path d="M27.7987756,24.5752326 L27.7262423,24.7048304 L27.0373276,24.319259 L27.1098609,24.1896612 L27.7987756,24.5752326 Z M26.4209462,23.8040898 L26.348413,23.9336876 L25.6594983,23.5481162 L25.7320315,23.4185184 L26.4209462,23.8040898 Z M25.0431168,23.032947 L24.9705836,23.1625448 L24.2816689,22.7769734 L24.3542021,22.6473756 L25.0431168,23.032947 Z M23.6652875,22.2618042 L23.5927542,22.391402 L22.9038395,22.0058305 L22.9763728,21.8762327 L23.6652875,22.2618042 Z M22.2874581,21.4906613 L22.2149249,21.6202591 L21.5260102,21.2346877 L21.5985434,21.1050899 L22.2874581,21.4906613 Z M20.9096287,20.7195185 L20.8370955,20.8491163 L20.1481808,20.4635449 L20.220714,20.3339471 L20.9096287,20.7195185 Z M19.5317994,19.9483757 L19.4592661,20.0779735 L18.7703515,19.6924021 L18.8428847,19.5628043 L19.5317994,19.9483757 Z M18.15397,19.1772329 L18.0814368,19.3068307 L17.3925221,18.9212593 L17.4650553,18.7916615 L18.15397,19.1772329 Z M16.7761406,18.4060901 L16.7036074,18.5356879 L16.0146927,18.1501165 L16.087226,18.0205187 L16.7761406,18.4060901 Z M15.3983113,17.6349473 L15.325778,17.7645451 L15.1739879,17.6795912 L15.2465211,17.5499934 L15.3983113,17.6349473 Z" id="Path-4" fill="#EAE7E7" fill-rule="nonzero"></path>
                                    <path d="M14.8570745,2.18790279 L15.0055878,2.18722322 L15.0092003,2.97668867 L14.860687,2.97736825 L14.8570745,2.18790279 Z M14.8642994,3.7668337 L15.0128127,3.76615412 L15.0164252,4.55561958 L14.8679119,4.55629915 L14.8642994,3.7668337 Z M14.8715244,5.34576461 L15.0200377,5.34508503 L15.0236502,6.13455048 L14.8751369,6.13523006 L14.8715244,5.34576461 Z M14.8787494,6.92469551 L15.0272627,6.92401593 L15.0308752,7.71348139 L14.8823619,7.71416096 L14.8787494,6.92469551 Z M14.8859744,8.50362642 L15.0344877,8.50294684 L15.0381002,9.29241229 L14.8895869,9.29309187 L14.8859744,8.50362642 Z M14.8931994,10.0825573 L15.0417126,10.0818777 L15.0453251,10.8713432 L14.8968118,10.8720228 L14.8931994,10.0825573 Z M14.9004243,11.6614882 L15.0489376,11.6608086 L15.0525501,12.4502741 L14.9040368,12.4509537 L14.9004243,11.6614882 Z M14.9076493,13.2404191 L15.0561626,13.2397396 L15.0597751,14.029205 L14.9112618,14.0298846 L14.9076493,13.2404191 Z M14.9148743,14.81935 L15.0633876,14.8186705 L15.0670001,15.6081359 L14.9184868,15.6088155 L14.9148743,14.81935 Z M14.9220993,16.3982809 L15.0706126,16.3976014 L15.074225,17.1870668 L14.9257117,17.1877464 L14.9220993,16.3982809 Z" id="Path-3" fill="#EAE7E7" fill-rule="nonzero"></path>
                                    <g id="Group-31" transform="translate(8.421053, 10.794329)"></g>
                                </g>
                                <g id="icons/industries/common-knowledge" transform="translate(8.910891, 10.990099)">
                                    <g id="background/black" transform="translate(0.995359, 0.269576)">
                                        <mask id="mask-2" fill="white">
                                            <use xlink:href="#path-1"></use>
                                        </mask>
                                        <g id="Mask" fill-rule="nonzero"></g>
                                        <g id="background/white" mask="url(#mask-2)" fill="#FFFFFF">
                                            <g transform="translate(-0.947961, 0.000000)" id="Combined-Shape">
                                                <polygon points="0 0 10.9321297 0 10.9321297 12.3234917 0 12.3234917"></polygon>
                                            </g>
                                        </g>
                                    </g>
                                </g>
                            </g>
                        </g>
                    </g>
                </g>
            </g>
        </g>
    </g>
</svg>