<?xml version="1.0" encoding="UTF-8"?>
<svg width="71px" height="82px" viewBox="0 0 71 82" version="1.1" xmlns="http://www.w3.org/2000/svg" xmlns:xlink="http://www.w3.org/1999/xlink">
    <!-- Generator: sketchtool 53 (72520) - https://sketchapp.com -->
    <title>44EFC5E0-168D-4230-89D3-7303F43F11CE</title>
    <desc>Created with sketchtool.</desc>
    <defs>
        <path d="M25.0341218,0.570584636 C25.5503715,3.17189138 25.0250648,5.6227611 23.6212279,7.40920067 C22.217391,9.19564023 20.0588031,10.2330288 17.4926497,10.358393 L15.9378626,10.3051132 C10.8055557,9.84126576 9.9843866,4.86430781 9.89985449,4.23748691 C9.89523809,4.19676475 9.91940889,4.15846594 9.95721557,4.14659788 C11.801015,3.6169435 13.7760658,3.96115451 15.3521758,5.08682923 C15.7186078,5.36394751 16.0397062,5.70046254 16.3031621,6.08347446 C16.3163327,6.10403705 16.3399052,6.11465624 16.363368,6.11059668 C16.3868309,6.10653711 16.4058116,6.08855533 16.4118462,6.06466983 C16.7516594,4.56833883 17.4829824,3.19851621 18.5251491,2.10629584 C20.0346511,0.60819389 22.0422888,-0.118918355 24.406169,0.015848139 L24.8650576,0.0377868705 C24.8992101,0.0459415034 24.926724,0.0721241588 24.9375137,0.10673717 L25.0341218,0.570584636 Z M14.9174392,7.81350015 L14.9174392,7.80723194 C14.9262568,7.79756309 14.9262568,7.78242563 14.9174392,7.77275679 C14.9174392,7.77275679 14.754413,7.62545388 14.5068547,7.41546887 L13.6011535,6.64447917 L12.6743192,5.89542819 C12.4207229,5.6917114 12.2486396,5.56321311 12.2486396,5.56321311 C12.2417832,5.5608242 12.234363,5.5608242 12.2275066,5.56321311 C12.2209907,5.56468113 12.2153492,5.56888027 12.2119187,5.5748157 C12.2084882,5.58075114 12.207574,5.58789475 12.2093926,5.59455416 L12.2093926,5.61335878 C12.2093926,5.61335878 12.2275066,5.67917498 12.2667537,5.78260043 C12.3222038,5.91831078 12.3878165,6.04929972 12.4629889,6.17436349 C12.508274,6.249582 12.5565781,6.33106872 12.6139391,6.40942133 C12.6713002,6.48777394 12.7316803,6.56612655 12.8011174,6.64447917 C12.8686515,6.72558709 12.9401976,6.80299926 13.0154667,6.8764029 C13.0939608,6.95475551 13.1754739,7.02370581 13.256987,7.09579021 C13.56828,7.35625367 13.9206724,7.55878423 14.2985434,7.69440418 C14.4327333,7.73868439 14.5699975,7.7722132 14.709128,7.79469552 C14.8147931,7.81350015 14.8812112,7.81350015 14.8812112,7.81350015 L14.8993252,7.81350015 C14.9049297,7.81685927 14.9118347,7.81685927 14.9174392,7.81350015 Z M22.9842181,2.23166002 L22.9691231,2.20031898 C22.97629,2.18888647 22.97629,2.17414223 22.9691231,2.16270972 C22.9553709,2.14994043 22.9345712,2.14994043 22.920819,2.16270972 L22.7306217,2.37269473 C22.6068426,2.50746122 22.4287213,2.69550749 22.2234291,2.92429712 L20.713927,4.62298176 L19.222539,6.34047103 C19.0202658,6.57552887 18.8542205,6.77611156 18.7394984,6.91401215 L18.5553391,7.13339947 C18.5477872,7.14355407 18.5477872,7.15772002 18.5553391,7.16787462 C18.5580946,7.17663696 18.5641154,7.1838889 18.5720569,7.18801107 C18.5799985,7.19213324 18.5891994,7.19278231 18.5976052,7.18981335 L18.6157192,7.18981335 L18.6881753,7.15847231 C18.7364794,7.13653357 18.8059165,7.10519253 18.8934676,7.06131507 C18.9810187,7.0174376 19.0836648,6.96729193 19.195368,6.89834163 C19.3070711,6.82939133 19.4278313,6.74790461 19.5606675,6.66014969 C19.6935037,6.57239476 19.8444539,6.47210342 19.974271,6.36240976 C20.1040882,6.2527161 20.2761714,6.13362013 20.4059886,6.00198774 C20.5358058,5.87035535 20.692794,5.72305244 20.8377062,5.58828595 C20.9826184,5.45351945 21.1245116,5.30308244 21.2603668,5.140109 C21.3962219,4.97713557 21.5260391,4.83610087 21.6558563,4.66372512 C21.7856735,4.49134937 21.9034146,4.34091236 22.0120988,4.17793892 C22.1207829,4.01496549 22.217391,3.84258974 22.3139992,3.70155504 C22.4106073,3.56052033 22.4891014,3.38814459 22.5645765,3.24710988 C22.6400516,3.10607518 22.7034507,2.96817458 22.7547738,2.84594451 C22.8040257,2.74382297 22.8483591,2.63922384 22.88761,2.53253406 C22.9157191,2.4608785 22.9399096,2.38763289 22.960066,2.31314674 L22.9842181,2.23166002 Z M28.0410499,14.9874654 C28.7263638,15.1316342 28.8139149,16.1690228 28.16181,16.4824332 L19.2829191,20.8325703 C17.9061286,21.519439 16.3446294,21.697465 14.8570592,21.3371611 L9.12095144,19.9424846 L8.76168996,19.8547297 L8.61979677,19.8202545 C6.54875999,19.4065527 5.09360003,20.3123089 3.63844007,21.7007172 C3.35484394,21.9753875 2.9579609,22.0851096 2.58033756,21.9932396 C2.20271421,21.9013697 1.89411428,21.6200145 1.75760054,21.2431379 L0.076015284,16.5733222 C-0.0934785174,16.1108453 0.0261937044,15.5878169 0.37791569,15.2538642 L2.45197148,13.32639 C4.4614,11.4431289 7.21813208,10.6729042 9.86664545,11.2547469 C9.95721557,11.2735515 10.0477857,11.2954903 10.1383558,11.3205631 L18.5493011,12.9753703 C18.7515744,13.0129795 18.9538477,13.0505888 19.1531019,13.0944662 C19.3382591,13.1304231 19.5141143,13.2062228 19.6693516,13.3169877 C20.0234423,13.7498001 20.1639706,14.3287127 20.0497461,14.8840399 C19.96577,15.3450318 19.7110596,15.7534783 19.3402802,16.0217198 C18.9743578,16.3040264 18.5090559,16.4090851 18.0632415,16.3100575 L11.6689909,14.8840399 C11.5652607,14.8549285 11.4544454,14.874705 11.3660349,14.9381064 C11.2776245,15.0015078 11.2205874,15.1021027 11.2101023,15.2131209 C11.163756,15.4310782 11.2897378,15.6485941 11.4969076,15.7083094 L17.8941772,17.1405952 L17.9213483,17.1405952 C19.1289499,17.3975917 19.925967,16.9619512 20.665623,16.7237593 L25.6681127,14.8432966 C26.0660874,14.696895 26.4946884,14.6644175 26.9089234,14.7492734 L28.0410499,14.9874654 Z" id="path-1"></path>
    </defs>
    <g id="SeMI-Website" stroke="none" stroke-width="1" fill="none" fill-rule="evenodd">
        <g id="Styleguide-–-Product-Branding" transform="translate(-509.000000, -5765.000000)">
            <g id="icons/PointSolutions/SME" transform="translate(509.000000, 5765.000000)">
                <g id="Group-5-Copy-5">
                    <g id="Group-3">
                        <polygon id="Path" fill="#0070E6" points="4.98245614 58.0838004 4.98245614 22.6737753 35.5 4.96969697 66.0175439 22.6737753 66.0175439 58.0838004 35.3888598 76.1587424"></polygon>
                        <path d="M35.5,0 L0,20.4991337 L0,61.5001733 L35.1535707,81.8004141 L35.5,82 L71,61.5001733 L71,20.4991337 L35.8457365,0.199585886 L35.5,0 Z M4.9703628,58.1392424 L4.9703628,22.8202273 L35.337792,5.16165152 L65.7046045,22.8202273 L65.7046045,58.1392424 L35.337792,75.7978182 L4.9703628,58.1392424 Z" id="Fill-24" fill="#ABABAB"></path>
                    </g>
                    <g id="Group-32-Copy">
                        <g id="Group-23" transform="translate(3.736842, 20.701894)" fill="#04152A">
                            <polygon id="Fill-9" points="0.808881196 2.3337697 0.279084057 2.01570909 0.436974706 1.74920909 0.966771845 2.06664848"></polygon>
                            <polygon id="Fill-13" points="31.6520177 20.8609864 31.0432752 20.4957136 31.2011659 20.2285924 31.6520177 20.4994409 32.1028695 20.2285924 32.2607601 20.4957136"></polygon>
                            <polygon id="Fill-17" points="62.4951542 2.3337697 62.3372635 2.06664848 62.8670607 1.74920909 63.0243345 2.01570909"></polygon>
                            <polygon id="Fill-19" points="31.4979509 56.0780606 31.8063311 56.0780606 31.8063311 55.4568485 31.4979509 55.4568485"></polygon>
                            <polygon id="Fill-22" points="31.4979509 22.8786212 31.8063311 22.8786212 31.8063311 22.2574091 31.4979509 22.2574091"></polygon>
                        </g>
                        <path d="M35.5,0 L0,20.4991337 L0,61.5001733 L35.1535707,81.8004141 L35.5,82 L71,61.5001733 L71,20.4991337 L35.8457365,0.199585886 L35.5,0 Z M4.9703628,58.1392424 L4.9703628,22.8202273 L35.337792,5.16165152 L65.7046045,22.8202273 L65.7046045,58.1392424 L35.337792,75.7978182 L4.9703628,58.1392424 Z" id="Fill-24" fill="#EAE7E7"></path>
                        <path d="M35.3313515,40.8479847 L35.5061321,41.1520153 L33.8850904,42.0783162 L33.7103098,41.7742855 L35.3313515,40.8479847 Z M32.089268,42.7005863 L32.2640486,43.004617 L30.6430068,43.9309178 L30.4682262,43.6268871 L32.089268,42.7005863 Z M28.8471845,44.5531879 L29.0219651,44.8572186 L27.4009233,45.7835194 L27.2261427,45.4794887 L28.8471845,44.5531879 Z M25.6051009,46.4057895 L25.7798815,46.7098202 L24.1588398,47.636121 L23.9840592,47.3320904 L25.6051009,46.4057895 Z M22.3630174,48.2583912 L22.537798,48.5624219 L20.9167563,49.4887227 L20.7419756,49.184692 L22.3630174,48.2583912 Z M19.1209339,50.1109928 L19.2957145,50.4150235 L17.6746727,51.3413243 L17.4998921,51.0372936 L19.1209339,50.1109928 Z M15.8788504,51.9635944 L16.053631,52.2676251 L14.4325892,53.1939259 L14.2578086,52.8898952 L15.8788504,51.9635944 Z M12.6367668,53.8161961 L12.8115474,54.1202267 L11.1905057,55.0465276 L11.0157251,54.7424969 L12.6367668,53.8161961 Z M9.3946833,55.6687977 L9.5694639,55.9728284 L7.94842214,56.8991292 L7.77364153,56.5950985 L9.3946833,55.6687977 Z M6.15259977,57.5213993 L6.32738037,57.82543 L5.0577531,58.5509244 L4.8829725,58.2468937 L6.15259977,57.5213993 Z" id="Path-2" fill="#EAE7E7" fill-rule="nonzero"></path>
                        <path d="M65.7904355,57.9863466 L65.6187735,58.2921383 L63.9883421,57.3823655 L64.1600041,57.0765738 L65.7904355,57.9863466 Z M62.5295727,56.166801 L62.3579107,56.4725928 L60.7274793,55.56282 L60.8991412,55.2570283 L62.5295727,56.166801 Z M59.2687098,54.3472555 L59.0970478,54.6530472 L57.4666164,53.7432745 L57.6382784,53.4374827 L59.2687098,54.3472555 Z M56.007847,52.52771 L55.836185,52.8335017 L54.2057536,51.9237289 L54.3774156,51.6179372 L56.007847,52.52771 Z M52.7469842,50.7081644 L52.5753222,51.0139562 L50.9448908,50.1041834 L51.1165527,49.7983917 L52.7469842,50.7081644 Z M49.4861213,48.8886189 L49.3144593,49.1944107 L47.6840279,48.2846379 L47.8556899,47.9788461 L49.4861213,48.8886189 Z M46.2252585,47.0690734 L46.0535965,47.3748651 L44.4231651,46.4650924 L44.5948271,46.1593006 L46.2252585,47.0690734 Z M42.9643957,45.2495278 L42.7927337,45.5553196 L41.1623023,44.6455468 L41.3339643,44.3397551 L42.9643957,45.2495278 Z M39.7035328,43.4299823 L39.5318709,43.7357741 L37.9014394,42.8260013 L38.0731014,42.5202096 L39.7035328,43.4299823 Z M36.44267,41.6104368 L36.271008,41.9162285 L35.9117713,41.7157762 L36.0834332,41.4099844 L36.44267,41.6104368 Z" id="Path-4" fill="#EAE7E7" fill-rule="nonzero"></path>
                        <path d="M35.1617429,5.16245326 L35.6617377,5.16084977 L35.6738997,7.02362837 L35.173905,7.02523186 L35.1617429,5.16245326 Z M35.186067,8.88801046 L35.6860618,8.88640697 L35.6982238,10.7491856 L35.198229,10.7507891 L35.186067,8.88801046 Z M35.2103911,12.6135677 L35.7103859,12.6119642 L35.7225479,14.4747428 L35.2225531,14.4763463 L35.2103911,12.6135677 Z M35.2347152,16.3391248 L35.7347099,16.3375214 L35.746872,18.2003 L35.2468772,18.2019034 L35.2347152,16.3391248 Z M35.2590393,20.064682 L35.759034,20.0630786 L35.7711961,21.9258572 L35.2712013,21.9274606 L35.2590393,20.064682 Z M35.2833633,23.7902392 L35.7833581,23.7886357 L35.7955202,25.6514143 L35.2955254,25.6530178 L35.2833633,23.7902392 Z M35.3076874,27.5157964 L35.8076822,27.5141929 L35.8198442,29.3769715 L35.3198495,29.378575 L35.3076874,27.5157964 Z M35.3320115,31.2413536 L35.8320063,31.2397501 L35.8441683,33.1025287 L35.3441736,33.1041322 L35.3320115,31.2413536 Z M35.3563356,34.9669108 L35.8563304,34.9653073 L35.8684924,36.8280859 L35.3684977,36.8296894 L35.3563356,34.9669108 Z M35.3806597,38.692468 L35.8806545,38.6908645 L35.8928165,40.5536431 L35.3928217,40.5552466 L35.3806597,38.692468 Z" id="Path-3" fill="#EAE7E7" fill-rule="nonzero"></path>
                        <g id="Group-31" transform="translate(19.929825, 25.469697)"></g>
                    </g>
                    <g id="icons/industries/SME" transform="translate(21.792079, 25.230769)">
                        <g id="background/black" transform="translate(0.000000, 2.472460)">
                            <mask id="mask-2" fill="white">
                                <use xlink:href="#path-1"></use>
                            </mask>
                            <g id="Mask" fill-rule="nonzero"></g>
                            <g id="background/white" mask="url(#mask-2)" fill="#FFFFFF">
                                <g transform="translate(0.000000, -2.472460)" id="Combined-Shape">
                                    <polygon points="0 0 28.9498394 0 28.9498394 29.6695226 0 29.6695226"></polygon>
                                </g>
                            </g>
                        </g>
                    </g>
                </g>
            </g>
        </g>
    </g>
</svg>