<svg xmlns="http://www.w3.org/2000/svg" xmlns:xlink="http://www.w3.org/1999/xlink" width="202" height="82" viewBox="0 0 202 82">
    <defs>
        <path id="a" d="M3.77 15L.536.755h2.678l2.044 9.087L7.817.755h2.262l2.579 9.087L14.682.755h2.678L14.146 15h-2.6L8.909 5.794 6.348 15H3.77zm22.082-3.095l2.222 1.051c-1.131 1.608-2.62 2.322-4.841 2.322-3.353 0-5.516-2.46-5.516-5.555 0-2.877 2.083-5.536 5.476-5.536 3.333 0 5.595 2.381 5.595 5.714 0 .238-.02.357-.02.595h-8.492c.258 1.568 1.449 2.44 2.957 2.44 1.13 0 1.884-.317 2.619-1.031zm-5.456-3.492h5.733c-.357-1.23-1.488-1.984-2.896-1.984-1.31 0-2.322.655-2.837 1.984zM38.688 15v-1.111c-.932.913-1.924 1.389-3.254 1.389-2.678 0-5.02-2.302-5.02-5.536 0-3.293 2.223-5.555 4.96-5.555 1.27 0 2.362.476 3.314 1.429V4.465h2.639V15h-2.639zM35.91 6.608c-1.746 0-2.837 1.388-2.837 3.115 0 1.805 1.19 3.134 2.837 3.134 1.627 0 2.897-1.23 2.897-3.154 0-1.845-1.23-3.095-2.897-3.095zM47.358 15L42.854 4.465h2.699l2.658 6.21 2.659-6.21h2.678L49.064 15h-1.706zm7.48 0V4.465h2.638V15h-2.638zM56.148.12c.952 0 1.686.794 1.686 1.746 0 .932-.754 1.686-1.687 1.686-.972 0-1.686-.853-1.686-1.825 0-.913.774-1.607 1.686-1.607zM67.653 15v-1.111c-.932.913-1.924 1.389-3.253 1.389-2.679 0-5.02-2.302-5.02-5.536 0-3.293 2.222-5.555 4.96-5.555 1.27 0 2.361.476 3.313 1.429V4.465h2.64V15h-2.64zm-2.777-8.392c-1.746 0-2.837 1.388-2.837 3.115 0 1.805 1.19 3.134 2.837 3.134 1.627 0 2.896-1.23 2.896-3.154 0-1.845-1.23-3.095-2.896-3.095zm8.392-2.143V.576h2.639v3.889h1.567v2.262h-1.567V15h-2.639V6.727H71.92V4.465h1.35zm13.293 7.44l2.222 1.051c-1.13 1.608-2.619 2.322-4.841 2.322-3.353 0-5.515-2.46-5.515-5.555 0-2.877 2.083-5.536 5.475-5.536 3.333 0 5.595 2.381 5.595 5.714 0 .238-.02.357-.02.595h-8.491c.258 1.568 1.448 2.44 2.956 2.44 1.13 0 1.885-.317 2.619-1.031zm-5.456-3.492h5.734c-.357-1.23-1.488-1.984-2.897-1.984-1.31 0-2.321.655-2.837 1.984z"/>
        <path id="b" d="M4.96 15.84L.932 1.595h1.469l2.896 10.257L9.384 1.595h.298l4.027 10.257 2.957-10.257h1.448L14.027 15.84h-.278L9.543 5.067 5.218 15.84H4.96zm15.594 0V1.238h1.35V7.19c1.09-1.429 2.38-2.163 3.948-2.163 2.281 0 3.888 1.607 3.888 4.762v6.051h-1.349v-5.734c0-2.48-.754-3.849-2.797-3.849-1.131 0-2.064.496-2.778 1.429-.774 1.012-.913 2.043-.913 3.73v4.424h-1.349zm11.924 0V5.305h1.35V15.84h-1.35zM33.133.96c.615 0 1.13.496 1.13 1.111s-.515 1.13-1.13 1.13c-.615 0-1.111-.515-1.111-1.13A1.11 1.11 0 0 1 33.132.96zm4.702 4.345V1.377h1.349v3.928h2.163v1.19h-2.163v9.345h-1.35V6.495H35.97v-1.19h1.865zm15.892 5.377h-9.484c.06 2.42 1.706 4.186 3.968 4.186 2.202 0 3.254-1.25 4.028-2.52l1.13.595c-1.07 2.103-2.717 3.155-5.019 3.155-3.492 0-5.496-2.678-5.496-5.496 0-2.877 2.123-5.575 5.417-5.575 2.996 0 5.416 2.163 5.456 5.655zm-9.345-1.19h7.857c-.556-2.183-2.123-3.155-3.948-3.155-1.885 0-3.294 1.011-3.909 3.154zM61.98 15.84V1.595h1.429V14.45h5.475v1.389H61.98zm18.114-8.61V5.304h1.33V15.84h-1.33v-1.805c-1.15 1.388-2.599 2.063-4.246 2.063-3.075 0-5.396-2.56-5.396-5.555 0-2.996 2.38-5.516 5.436-5.516 1.706 0 3.155.734 4.206 2.202zm-4.087-.893c-2.42 0-4.166 1.984-4.166 4.245 0 2.282 1.785 4.286 4.146 4.286 2.163 0 4.206-1.627 4.206-4.246 0-2.44-1.825-4.285-4.186-4.285zm9.92 7.559v1.944h-1.35V1.238h1.35V7.11c1.15-1.388 2.58-2.083 4.226-2.083 3.075 0 5.416 2.56 5.416 5.555 0 2.976-2.38 5.536-5.456 5.536-1.706 0-3.115-.754-4.186-2.222zm4.087.912c2.44 0 4.166-2.004 4.166-4.265 0-2.282-1.805-4.286-4.166-4.286-2.162 0-4.186 1.607-4.186 4.246 0 2.44 1.805 4.305 4.186 4.305zm18.372-4.126h-9.484c.06 2.42 1.707 4.186 3.968 4.186 2.203 0 3.254-1.25 4.028-2.52l1.13.595c-1.07 2.103-2.717 3.155-5.019 3.155-3.492 0-5.495-2.678-5.495-5.496 0-2.877 2.122-5.575 5.416-5.575 2.996 0 5.416 2.163 5.456 5.655zm-9.345-1.19h7.857c-.556-2.183-2.123-3.155-3.948-3.155-1.885 0-3.294 1.011-3.909 3.154zm11.666 6.348V1.238h1.35V15.84h-1.35z"/>
    </defs>
    <g fill="none" fill-rule="evenodd">
        <g fill-rule="nonzero">
            <g transform="translate(87.19 25.95)">
                <use fill="#000" xlink:href="#a"/>
                <use fill="#FFF" xlink:href="#a"/>
            </g>
            <g transform="translate(87.19 44.95)">
                <use fill="#000" xlink:href="#b"/>
                <use fill="#FFF" xlink:href="#b"/>
            </g>
        </g>
        <path fill="#FFF" d="M13.46 40.17v12.79l11.07 6.39 11.08-6.39 11.07 6.39 11.07-6.39V40.17l-11.07-6.39v12.78l-11.07-6.39-11.08 6.39V33.78z"/>
        <path fill="#FFF" fill-rule="nonzero" d="M35.6 81.14a1.57 1.57 0 0 1-.81-.22L1.34 61.61a1.63 1.63 0 0 1-.81-1.41V21.58c0-.58.308-1.118.81-1.41L34.79.86a1.62 1.62 0 0 1 1.62 0l33.45 19.31c.502.292.81.83.81 1.41V60.2a1.63 1.63 0 0 1-.81 1.41L36.41 80.92a1.57 1.57 0 0 1-.81.22zM3.78 59.26L35.6 77.63l31.82-18.37V22.52L35.6 4.15 3.78 22.52v36.74z"/>
        <path fill="#FFF" fill-rule="nonzero" d="M67.27 59.92L65 58.62l.65-1.13 2.26 1.31-.64 1.12zm-4.52-2.6L60.5 56l.65-1.13 2.25 1.3-.65 1.15zm-4.51-2.61L56 53.41l.65-1.13 2.26 1.31-.67 1.12zm-4.51-2.6l-2.26-1.3.65-1.13L54.38 51l-.65 1.11zm-4.52-2.61L47 48.2l.65-1.13 2.26 1.3-.7 1.13zm-4.51-2.6l-2.26-1.31.66-1.12 2.25 1.3-.65 1.13zm-4.51-2.61L37.93 43l.65-1.13 2.26 1.3-.65 1.12zm-4.52-2.6l-2.25-1.31.65-1.13 2.26 1.31-.66 1.13zm-4.51-2.61l-2.25-1.3.65-1.13L31.81 38l-.65 1.08zm-4.51-2.6l-2.26-1.31L25 34l2.26 1.31-.61 1.17zm-4.51-2.61l-2.26-1.3.65-1.13 2.26 1.3-.65 1.13zm-4.52-2.61L15.37 30l.63-1.17 2.25 1.31-.63 1.12zm-4.51-2.6l-2.26-1.3.66-1.13 2.25 1.3-.65 1.13zM8.6 26.05l-2.26-1.3.66-1.13 2.26 1.3-.66 1.13zm-4.52-2.6l-2.25-1.31.65-1.14 2.26 1.3-.66 1.15z"/>
        <path fill="#FFF" fill-rule="nonzero" d="M3.93 59.92l-.65-1.12 2.26-1.31.65 1.13-2.26 1.3zm4.52-2.6l-.66-1.13 2.26-1.3.65 1.11-2.25 1.32zM13 54.71l-.65-1.12 2.25-1.31.66 1.13-2.26 1.3zm4.51-2.6L16.82 51l2.26-1.3.65 1.13-2.22 1.28zM22 49.5l-.65-1.13 2.26-1.3.65 1.13L22 49.5zm4.52-2.6l-.65-1.13 2.25-1.3.65 1.12-2.25 1.31zM31 44.29l-.65-1.13 2.26-1.3.66 1.14L31 44.29zm4.51-2.6l-.65-1.13 2.26-1.31.65 1.13-2.26 1.31zM40 39.08L39.39 38l2.25-1.3.65 1.13L40 39.08zm4.51-2.6l-.65-1.13L46.15 34l.66 1.13-2.3 1.35zm4.51-2.61l-.65-1.13 2.26-1.3.65 1.13-2.26 1.3zm4.52-2.61l-.66-1.12 2.26-1.31.69 1.17-2.29 1.26zm4.51-2.6l-.65-1.13 2.25-1.3.65 1.13-2.25 1.3zm4.51-2.61L62 24.92l2.26-1.3.65 1.13-2.35 1.3zm4.51-2.6l-.65-1.13 2.26-1.3.65 1.12-2.26 1.31z"/>
        <path fill="#FFF" fill-rule="nonzero" d="M36.25 77.83H35v-2.6h1.3l-.05 2.6zm0-5.21H35V70h1.3l-.05 2.62zm0-5.21H35V64.8h1.3l-.05 2.61zm0-5.21H35v-2.61h1.3l-.05 2.61zm0-5.21H35v-2.61h1.3l-.05 2.61zm0-5.21H35v-2.61h1.3l-.05 2.61zm0-5.22H35V44h1.3l-.05 2.56zm0-5.21H35v-2.6h1.3l-.05 2.6zm0-5.21H35v-2.6h1.3l-.05 2.6zm0-5.21H35v-2.6h1.3l-.05 2.6zm0-5.21H35v-2.61h1.3l-.05 2.61zm0-5.21H35V17.9h1.3l-.05 2.61zm0-5.21H35v-2.61h1.3l-.05 2.61zm0-5.21H35V7.48h1.3l-.05 2.61zm0-5.21H35V2.27h1.3l-.05 2.61z"/>
    </g>
</svg>
