<svg xmlns="http://www.w3.org/2000/svg" width="286" height="268" viewBox="0 0 286 268">
    <g fill="none" fill-rule="evenodd">
        <g opacity=".5" transform="translate(1 11.063)">
            <path stroke="#B3B3B3" stroke-width=".86" d="M108.983 82.945L88.26 94.473v23.056l20.722 11.529 20.717-11.529V94.473"/>
            <path stroke="#B3B3B3" stroke-width=".86" d="M88.261 94.473l20.722 11.528V152.386"/>
            <path stroke="#B3B3B3" stroke-width=".86" d="M129.7 94.473l-20.717 11.528L88.26 117.53"/>
            <path stroke="#B3B3B3" stroke-width=".86" d="M108.983 106.001L129.7 117.53l14.237 8.338 6.62 3.88V82.84l20.722-11.533M46.822 117.538L26.101 106.01M46.822 94.473l20.717 11.528v23.07l-20.717 12.081 20.717 11.76 20.722-11.628"/>
            <path stroke="#B3B3B3" stroke-width=".86" d="M88.261 94.473l-20.722 11.528-20.717 11.528M108.983 82.945L88.26 71.417V33.32l14.2-8.034M116.153 40.838l13.547 8.22M26.1 152.386L5.385 141.284M267.938 171.835V148.78l-20.717-11.528-20.722 11.528v23.056l20.722 11.528z"/>
            <path stroke="#B3B3B3" stroke-width=".86" d="M267.938 148.779l-20.717 11.528-20.722 11.528M150.558 59.78l20.721 11.528v23.06l-20.721 11.529-20.717-11.528V71.308"/>
            <path stroke="#B3B3B3" stroke-width=".86" d="M129.84 71.308l20.718 11.533 20.721 11.528M150.558 82.836L129.84 94.37M150.558 59.78V36.723l20.721-11.528 20.717 11.528V59.78L171.28 71.308z"/>
            <path stroke="#B3B3B3" stroke-width=".86" d="M191.86 59.78l-20.722-11.528-20.721-11.529L129.7 25.898v23.138M212.718 94.373V71.317l20.717-11.528 20.721 11.528v23.056l-20.721 11.529"/>
            <path stroke="#B3B3B3" stroke-width=".86" d="M254.156 56.4l13.862 7.445-13.862 7.472-20.721 11.528v23.07"/>
            <path stroke="#B3B3B3" stroke-width=".86" d="M212.718 71.317l20.717 11.528 20.721 11.528v23.746L275 129.225v-22.73M212.718 94.373l20.722-11.528"/>
            <path stroke="#B3B3B3" stroke-width=".86" d="M171.28 94.369V71.308l20.716-11.528 20.722 11.528v23.06l-20.722 11.529z"/>
            <path stroke="#B3B3B3" stroke-width=".86" d="M212.718 71.308L191.996 82.84v23.07l20.722 12.08-20.722 11.755-20.797-11.668"/>
            <path stroke="#B3B3B3" stroke-width=".86" d="M171.28 71.308l20.716 11.533 20.722 11.528M150.558 59.78l20.721-11.528V10.155l-14.2-8.034M143.246 17.677l-13.546 8.22M129.76 187.591v23.057l-20.716 11.528-20.722-11.528V187.59l20.722-11.533z"/>
            <path stroke="#B3B3B3" stroke-width=".86" d="M109.044 176.045v23.074l-20.722 11.529-20.717 11.528v15.044"/>
            <path stroke="#B3B3B3" stroke-width=".86" d="M129.76 210.648l-20.716-11.529-20.722-11.528M129.76 187.591l-20.716 11.528M171.2 187.596l-20.718-11.528V153.01l20.717-11.528 20.722 11.528v23.057"/>
            <path stroke="#B3B3B3" stroke-width=".86" d="M150.482 176.068l20.717-11.529v-46.461"/>
            <path stroke="#B3B3B3" stroke-width=".86" d="M191.921 176.068l-20.722-11.529-20.717-11.528"/>
            <path stroke="#B3B3B3" stroke-width=".86" d="M171.2 164.54l20.721-11.529 14.238-8.338M171.2 187.596v23.056l-20.718 11.533-20.721-11.533v-23.056l20.721-11.528z"/>
            <path stroke="#B3B3B3" stroke-width=".86" d="M129.76 187.596l20.722 11.528 20.717 11.528 15.55 8.125 19.033 10.123M109.044 153.002v23.056l-20.722 11.533-20.717-11.533v-23.056"/>
            <path stroke="#B3B3B3" stroke-width=".86" d="M67.605 190.98l-13.866-7.45 13.866-7.472 20.717-11.528v-23.07M109.044 153.002L88.322 164.53M150.482 153.011v23.057l-20.721 11.528-20.717-11.528V153.01l20.717-11.528z"/>
            <path stroke="#B3B3B3" stroke-width=".86" d="M109.044 176.068l20.717-11.529v-23.07l-20.717-12.08"/>
            <path stroke="#B3B3B3" stroke-width=".86" d="M150.482 176.068l-20.721-11.529-20.717-11.528M53.739 214.49l13.866 7.686M53.739 168.446v15.09M129.76 256.493V233.5l-20.716-11.324v23.21M171.2 187.596l-20.718 11.528v38.096l14.2 8.035M226.5 148.779l41.438 23.056"/>
            <ellipse cx="88.266" cy="71.308" fill="gray" rx="1.989" ry="1.917"/>
            <ellipse cx="46.832" cy="94.496" fill="gray" rx="1.989" ry="1.917"/>
            <ellipse cx="46.822" cy="117.679" fill="gray" rx="1.989" ry="1.917"/>
            <ellipse cx="25.866" cy="106.024" fill="gray" rx="1.989" ry="1.917"/>
            <ellipse cx="5.384" cy="141.284" fill="gray" rx="1.989" ry="1.917"/>
            <ellipse cx="25.442" cy="152.096" fill="gray" rx="1.989" ry="1.917"/>
            <ellipse cx="67.539" cy="106.024" fill="gray" rx="1.989" ry="1.917"/>
            <ellipse cx="67.605" cy="129.058" fill="gray" rx="1.989" ry="1.917"/>
            <ellipse cx="88.261" cy="117.679" fill="gray" rx="1.989" ry="1.917"/>
            <ellipse cx="46.832" cy="141.284" fill="gray" rx="1.989" ry="1.917"/>
            <ellipse cx="88.266" cy="48.641" fill="gray" rx="1.989" ry="1.917"/>
            <ellipse cx="88.332" cy="33.32" fill="gray" rx="1.989" ry="1.917"/>
            <ellipse cx="102.376" cy="25.286" fill="gray" rx="1.989" ry="1.917"/>
            <ellipse cx="108.973" cy="60.169" fill="gray" rx="1.989" ry="1.917"/>
            <ellipse cx="116.153" cy="40.92" fill="gray" rx="1.989" ry="1.917"/>
            <ellipse cx="129.7" cy="49.058" fill="gray" rx="1.989" ry="1.917"/>
            <ellipse cx="129.7" cy="25.898" fill="gray" rx="1.989" ry="1.917"/>
            <ellipse cx="143.246" cy="17.677" fill="gray" rx="1.989" ry="1.917"/>
            <ellipse cx="150.558" cy="36.732" fill="gray" rx="1.989" ry="1.917"/>
            <ellipse cx="150.558" cy="59.893" fill="gray" rx="1.989" ry="1.917"/>
            <ellipse cx="191.86" cy="59.78" fill="gray" rx="1.989" ry="1.917"/>
            <ellipse cx="171.199" cy="48.746" fill="gray" rx="1.989" ry="1.917"/>
            <ellipse cx="171.279" cy="71.308" fill="gray" rx="1.989" ry="1.917"/>
            <ellipse cx="171.35" cy="94.242" fill="gray" rx="1.989" ry="1.917"/>
            <ellipse cx="212.647" cy="94.129" fill="gray" rx="1.989" ry="1.917"/>
            <ellipse cx="233.44" cy="82.845" fill="gray" rx="1.989" ry="1.917"/>
            <ellipse cx="233.44" cy="106.001" fill="gray" rx="1.989" ry="1.917"/>
            <ellipse cx="212.647" cy="118.078" fill="gray" rx="1.989" ry="1.917"/>
            <ellipse cx="192.499" cy="129.388" fill="gray" rx="1.989" ry="1.917"/>
            <ellipse cx="171.35" cy="118.608" fill="gray" rx="1.989" ry="1.917"/>
            <ellipse cx="171.199" cy="141.483" fill="gray" rx="1.989" ry="1.917"/>
            <ellipse cx="191.921" cy="153.011" fill="gray" rx="1.989" ry="1.917"/>
            <ellipse cx="150.558" cy="153.351" fill="gray" rx="1.989" ry="1.917"/>
            <ellipse cx="205.782" cy="144.673" fill="gray" rx="1.989" ry="1.917"/>
            <ellipse cx="254.156" cy="94.242" fill="gray" rx="1.989" ry="1.917"/>
            <ellipse cx="275" cy="106.926" fill="gray" rx="1.989" ry="1.917"/>
            <ellipse cx="275" cy="129.058" fill="gray" rx="1.989" ry="1.917"/>
            <ellipse cx="254.156" cy="118.078" fill="gray" rx="1.989" ry="1.917"/>
            <ellipse cx="191.992" cy="83.094" fill="gray" rx="1.989" ry="1.917"/>
            <ellipse cx="192.067" cy="105.657" fill="gray" rx="1.989" ry="1.917"/>
            <ellipse cx="191.996" cy="36.973" fill="gray" rx="1.989" ry="1.917"/>
            <ellipse cx="171.279" cy="25.286" fill="gray" rx="1.989" ry="1.917"/>
            <ellipse cx="232.866" cy="59.734" fill="gray" rx="1.989" ry="1.917"/>
            <ellipse cx="212.718" cy="71.263" fill="gray" rx="1.989" ry="1.917"/>
            <ellipse cx="247.155" cy="160.547" fill="gray" rx="1.989" ry="1.917"/>
            <ellipse cx="267.943" cy="149.268" fill="gray" rx="1.989" ry="1.917"/>
            <ellipse cx="267.943" cy="171.64" fill="gray" rx="1.989" ry="1.917"/>
            <ellipse cx="247.155" cy="182.928" fill="gray" rx="1.989" ry="1.917"/>
            <ellipse cx="226.495" cy="149.513" fill="gray" rx="1.989" ry="1.917"/>
            <ellipse cx="226.575" cy="172.075" fill="gray" rx="1.989" ry="1.917"/>
            <ellipse cx="171.199" cy="164.53" fill="gray" rx="1.989" ry="1.917"/>
            <ellipse cx="150.558" cy="175.891" fill="gray" rx="1.989" ry="1.917"/>
            <ellipse cx="191.921" cy="176.068" fill="gray" rx="1.989" ry="1.917"/>
            <ellipse cx="171.246" cy="187.564" fill="gray" rx="1.989" ry="1.917"/>
            <ellipse cx="150.529" cy="198.834" fill="gray" rx="1.989" ry="1.917"/>
            <ellipse cx="171.246" cy="210.548" fill="gray" rx="1.989" ry="1.917"/>
            <ellipse cx="150.529" cy="221.999" fill="gray" rx="1.989" ry="1.917"/>
            <ellipse cx="150.529" cy="237.22" fill="gray" rx="1.989" ry="1.917"/>
            <ellipse cx="129.761" cy="233.387" fill="gray" rx="1.989" ry="1.917"/>
            <ellipse cx="109.044" cy="245.255" fill="gray" rx="1.989" ry="1.917"/>
            <ellipse cx="109.044" cy="221.999" fill="gray" rx="1.989" ry="1.917"/>
            <ellipse cx="88.261" cy="210.548" fill="gray" rx="1.989" ry="1.917"/>
            <ellipse cx="67.605" cy="221.999" fill="gray" rx="1.989" ry="1.917"/>
            <ellipse cx="67.539" cy="237.22" fill="gray" rx="1.989" ry="1.917"/>
            <ellipse cx="53.739" cy="214.49" fill="gray" rx="1.989" ry="1.917"/>
            <ellipse cx="164.762" cy="245.255" fill="gray" rx="1.989" ry="1.917"/>
            <ellipse cx="129.874" cy="188.584" fill="gray" rx="1.989" ry="1.917"/>
            <ellipse cx="108.973" cy="199.124" fill="gray" rx="1.989" ry="1.917"/>
            <ellipse cx="88.322" cy="187.564" fill="gray" rx="1.989" ry="1.917"/>
            <ellipse cx="109.044" cy="176.068" fill="gray" rx="1.989" ry="1.917"/>
            <ellipse cx="129.7" cy="164.53" fill="gray" rx="1.989" ry="1.917"/>
            <ellipse cx="129.7" cy="141.483" fill="gray" rx="1.989" ry="1.917"/>
            <ellipse cx="108.973" cy="153.011" fill="gray" rx="1.989" ry="1.917"/>
            <ellipse cx="88.322" cy="164.53" fill="gray" rx="1.989" ry="1.917"/>
            <ellipse cx="67.605" cy="176.045" fill="gray" rx="1.989" ry="1.917"/>
            <ellipse cx="67.605" cy="152.911" fill="gray" rx="1.989" ry="1.917"/>
            <ellipse cx="88.261" cy="141.46" fill="gray" rx="1.989" ry="1.917"/>
            <ellipse cx="53.739" cy="183.363" fill="gray" rx="1.989" ry="1.917"/>
            <ellipse cx="53.739" cy="168.446" fill="gray" rx="1.989" ry="1.917"/>
            <ellipse cx="67.539" cy="190.981" fill="gray" rx="1.989" ry="1.917"/>
            <ellipse cx="129.954" cy="211.146" fill="gray" rx="1.989" ry="1.917"/>
            <ellipse cx="205.862" cy="228.9" fill="gray" rx="1.989" ry="1.917"/>
            <ellipse cx="247.226" cy="137.686" fill="gray" rx="1.989" ry="1.917"/>
            <ellipse cx="254.97" cy="56.848" fill="gray" rx="1.989" ry="1.917"/>
            <ellipse cx="268.018" cy="63.731" fill="gray" rx="1.989" ry="1.917"/>
            <ellipse cx="254.156" cy="71.263" fill="gray" rx="1.989" ry="1.917"/>
            <ellipse cx="171.199" cy="10.155" fill="gray" rx="1.989" ry="1.917"/>
            <ellipse cx="157.446" cy="2.121" fill="gray" rx="1.989" ry="1.917"/>
            <ellipse cx="108.973" cy="83.113" fill="gray" rx="1.989" ry="1.917"/>
            <ellipse cx="88.266" cy="94.768" fill="gray" rx="1.989" ry="1.917"/>
            <ellipse cx="109.039" cy="105.883" fill="gray" rx="1.989" ry="1.917"/>
            <ellipse cx="109.1" cy="128.917" fill="gray" rx="1.989" ry="1.917"/>
            <ellipse cx="129.756" cy="117.538" fill="gray" rx="1.989" ry="1.917"/>
            <ellipse cx="150.558" cy="129.388" fill="gray" rx="1.989" ry="1.917"/>
            <ellipse cx="129.765" cy="94.627" fill="gray" rx="1.989" ry="1.917"/>
            <ellipse cx="150.558" cy="82.836" fill="gray" rx="1.989" ry="1.917"/>
            <ellipse cx="129.841" cy="71.263" fill="gray" rx="1.989" ry="1.917"/>
            <ellipse cx="150.482" cy="105.657" fill="gray" rx="1.989" ry="1.917"/>
            <ellipse cx="116.153" cy="40.743" stroke="#B3B3B3" stroke-width=".86" rx="5.182" ry="4.994"/>
            <ellipse cx="171.199" cy="10.336" stroke="#B3B3B3" stroke-width=".86" rx="5.182" ry="4.994"/>
            <ellipse cx="254.156" cy="71.331" stroke="#B3B3B3" stroke-width=".86" rx="5.182" ry="4.994"/>
            <ellipse cx="275" cy="128.917" stroke="#B3B3B3" stroke-width=".86" rx="5.182" ry="4.994"/>
            <ellipse cx="268.018" cy="171.64" stroke="#B3B3B3" stroke-width=".86" rx="5.182" ry="4.994"/>
            <ellipse cx="247.221" cy="137.686" stroke="#B3B3B3" stroke-width=".86" rx="5.182" ry="4.994"/>
            <ellipse cx="150.449" cy="237.22" stroke="#B3B3B3" stroke-width=".86" rx="5.182" ry="4.994"/>
            <ellipse cx="109.044" cy="245.255" stroke="#B3B3B3" stroke-width=".86" rx="5.182" ry="4.994"/>
            <ellipse cx="67.539" cy="221.999" stroke="#B3B3B3" stroke-width=".86" rx="5.182" ry="4.994"/>
            <ellipse cx="192.499" cy="129.058" stroke="#B3B3B3" stroke-width=".86" rx="5.182" ry="4.994"/>
            <ellipse cx="88.261" cy="141.483" stroke="#B3B3B3" stroke-width=".86" rx="5.182" ry="4.994"/>
            <ellipse cx="108.973" cy="83.113" stroke="#B3B3B3" stroke-width=".86" rx="5.182" ry="4.994"/>
            <ellipse cx="53.739" cy="183.535" stroke="#B3B3B3" stroke-width=".86" rx="5.182" ry="4.994"/>
            <ellipse cx="129.7" cy="164.539" stroke="#B3B3B3" stroke-width=".86" rx="5.182" ry="4.994"/>
            <ellipse cx="5.384" cy="141.284" stroke="#B3B3B3" stroke-width=".86" rx="5.182" ry="4.994"/>
        </g>
        <path stroke="#364A68" stroke-dasharray="4" stroke-width="3" d="M209.289 154.118V89.254l-58.286-32.432-58.286 32.432v64.864l58.286 32.428 58.286-32.428z"/>
        <path stroke="#364A68" stroke-dasharray="4" stroke-width="3" d="M268.05 226.994V162.13l-58.286-32.432-58.291 32.432v64.864l58.29 32.432 58.286-32.432z"/>
        <path stroke="#364A68" stroke-dasharray="4" stroke-width="3" d="M268.05 130.763V65.899l-58.286-32.432-58.291 32.432v64.864l58.29 32.432 58.286-32.432zM150.594 143.17V78.306L92.308 45.874 34.022 78.306v64.864l58.286 32.432 58.286-32.432z"/>
        <path stroke="#364A68" stroke-dasharray="4" stroke-width="3" d="M209.354 216.05v-64.863l-58.285-32.432-58.286 32.432v64.864l58.286 32.432 58.285-32.432z"/>
        <path stroke="#364A68" stroke-dasharray="4" stroke-width="3" d="M209.354 119.82V54.954L151.07 22.523 92.783 54.955v64.864l58.286 32.432 58.285-32.432z"/>
        <path fill="#38D611" stroke="#364A68" stroke-width="2" d="M69.593 78.256V58.467L51.81 48.575l-17.783 9.892v19.79l17.783 9.896zM110.566 206.602v-19.789l-17.783-9.896L75 186.813v19.79l17.783 9.892zM51.805 132.73v-19.79l-17.783-9.892-17.783 9.893v19.789l17.783 9.897zM226.554 205.805v-19.79l-17.783-9.891-17.783 9.892v19.789l17.783 9.892zM169.726 31.754v-19.79l-17.783-9.891-17.783 9.892v19.789l17.783 9.892zM226.554 84.687v-19.79l-17.783-9.892-17.783 9.892v19.79l17.783 9.896z"/>
        <path fill="#364A68" d="M50.32 78.99v-2.583a11.766 11.766 0 0 1-4.783-1.169l.842-3.172a10.456 10.456 0 0 0 4.678 1.188c1.608 0 2.709-.612 2.709-1.682 0-1.07-.903-1.676-2.995-2.351-3.014-.984-5.07-2.348-5.07-4.985 0-2.402 1.74-4.278 4.764-4.84v-2.565h2.765v2.398a10.47 10.47 0 0 1 4.081.906l-.828 3.04a9.324 9.324 0 0 0-4.048-.938c-1.81 0-2.407.78-2.407 1.537 0 .883.982 1.468 3.37 2.32 3.353 1.137 4.703 2.633 4.703 5.093s-1.759 4.455-4.994 4.985v2.787l-2.788.031zM207.887 206.983V204.4a11.77 11.77 0 0 1-4.782-1.164l.842-3.172a10.475 10.475 0 0 0 4.679 1.191c1.608 0 2.708-.611 2.708-1.685s-.903-1.673-2.995-2.352c-3.014-.984-5.069-2.343-5.069-4.985 0-2.402 1.74-4.278 4.763-4.835v-2.579h2.77v2.398c1.41.023 2.798.332 4.076.906l-.879 3.068a9.261 9.261 0 0 0-4.048-.938c-1.81 0-2.408.775-2.408 1.531 0 .907.983 1.473 3.371 2.325 3.358 1.133 4.702 2.628 4.702 5.089 0 2.46-1.758 4.459-4.993 4.985v2.787l-2.737.013zM207.558 78.02v-1.146h-2.755a1.451 1.451 0 0 1-.823-.208 1.125 1.125 0 0 1-.521-1.205c.105-.467.5-.822.991-.889.4-.05.795-.072 1.18-.104-.268-.159-.56-.317-.832-.503-1.639-1.067-2.71-2.773-2.93-4.667a15.192 15.192 0 0 1-.056-1.813v-1.051a1.15 1.15 0 0 1 .618-.99c.375-.201.832-.193 1.2.02.366.212.588.598.58 1.01v2.03c.017 2.184 1.705 4.02 3.952 4.298 2.247.278 4.362-1.088 4.95-3.196.094-.391.145-.79.15-1.192.028-.644 0-1.283 0-1.926-.03-.596.41-1.118 1.02-1.214.318-.058.646.016.904.203.259.187.424.47.455.78.11 1.23.059 2.47-.155 3.689a6.483 6.483 0 0 1-2.525 3.806c-.357.263-.738.485-1.115.73h.94a1.365 1.365 0 0 1 1.303.906c.088.32.029.662-.163.937a1.201 1.201 0 0 1-.838.5c-.156.02-.313.03-.47.031h-2.666v1.147h2.787c.272.017.537.09.777.213.444.226.683.706.587 1.182a1.177 1.177 0 0 1-1.043.943 3.413 3.413 0 0 1-.47.032h-2.643v2.718c.027.626-.47 1.158-1.12 1.197-.608.032-1.146-.378-1.255-.956a2.394 2.394 0 0 1 0-.318V80.395h-2.76a1.45 1.45 0 0 1-.87-.244 1.121 1.121 0 0 1-.464-1.202 1.17 1.17 0 0 1 .986-.86c.33-.037.663-.064.997-.068.687-.01 1.383 0 2.097 0zM32.804 126.685v-1.147h-2.75a1.48 1.48 0 0 1-.828-.208 1.122 1.122 0 0 1-.484-1.224c.108-.466.509-.817 1.001-.874.395-.046.795-.073 1.176-.105-.264-.158-.56-.317-.833-.503-1.636-1.068-2.705-2.774-2.924-4.667a16.27 16.27 0 0 1-.061-1.813v-1.051c-.02-.43.211-.836.598-1.052a1.243 1.243 0 0 1 1.245.02c.379.23.594.643.56 1.073v2.03c.004 2.188 1.692 4.034 3.944 4.314 2.252.28 4.37-1.093 4.952-3.208.098-.392.15-.794.155-1.197v-1.926c-.021-.583.405-1.093 1.001-1.196.318-.057.646.017.904.203.259.187.424.47.455.78.115 1.231.064 2.47-.15 3.69a6.497 6.497 0 0 1-2.53 3.806c-.353.262-.738.484-1.11.73h.94a1.36 1.36 0 0 1 1.303.905c.088.32.029.662-.163.937a1.201 1.201 0 0 1-.838.5 3.086 3.086 0 0 1-.47.032H35.22v1.146h2.788c.272.016.537.089.776.213.45.225.689.71.588 1.187a1.186 1.186 0 0 1-1.044.943 4.111 4.111 0 0 1-.47.027h-2.647v2.714c.048.621-.424 1.166-1.067 1.231-.642.065-1.221-.374-1.308-.99a1.8 1.8 0 0 1 0-.318v-2.637h-2.76a1.498 1.498 0 0 1-.874-.24 1.13 1.13 0 0 1-.47-1.21c.114-.437.487-.767.95-.838a9.303 9.303 0 0 1 1-.073c.71-.013 1.407-.004 2.121-.004zM153.528 20.008h-2.535c-.225 0-.258.032-.263.254v.929c0 .213.052.263.277.263h4.947c.47 0 .47 0 .47.43v1.21c0 .25-.033.281-.3.281h-4.66a.19.19 0 0 0-.188.09.176.176 0 0 0 .014.2c.207.367.487.692.822.956.54.417 1.193.676 1.881.748a7.591 7.591 0 0 0 3.654-.421l.108-.037c.17-.054.249 0 .287.15.145.603.291 1.205.432 1.812l.24 1.016c.042.176 0 .217-.146.294-.731.321-1.51.53-2.308.62-.768.105-1.544.137-2.318.096a7.935 7.935 0 0 1-4.702-1.722 6.573 6.573 0 0 1-1.956-2.719c-.113-.285-.203-.575-.297-.865-.06-.195-.08-.213-.282-.213h-1.166c-.207 0-.259-.05-.259-.25v-1.436c0-.181.047-.236.24-.236h.875c.197 0 .254-.054.254-.24v-.988c0-.176-.047-.226-.23-.23h-.908c-.179 0-.23-.055-.23-.232v-1.46c0-.18.056-.23.244-.23h1.237c.134.019.26-.07.282-.2a7.612 7.612 0 0 1 1.448-2.66 7.212 7.212 0 0 1 3.832-2.306 10.69 10.69 0 0 1 3.155-.272c.783.029 1.56.148 2.313.353.283.077.56.186.837.286.05.012.093.044.117.088a.171.171 0 0 1 .01.143c-.258.974-.507 1.953-.761 2.927-.038.145-.123.186-.264.127a7.958 7.958 0 0 0-3.22-.453 4.005 4.005 0 0 0-2.286.693c-.379.275-.69.626-.912 1.03-.085.144 0 .257.165.271h4.58c.263 0 .3.036.3.281v1.391c0 .209-.047.254-.268.254l-2.562-.023zM93.803 195.151H91.25c-.23 0-.263.032-.268.254v.93c0 .212.056.262.282.262h4.947c.47 0 .47 0 .47.426v1.192c0 .249-.033.28-.296.28h-4.637c-.188 0-.263.132-.174.29a3.2 3.2 0 0 0 .819.957 3.776 3.776 0 0 0 1.88.752 7.664 7.664 0 0 0 3.654-.426l.108-.036c.164-.055.244 0 .287.15.145.602.287 1.205.432 1.812.08.34.16.675.235 1.015.043.177.024.222-.145.295a8.13 8.13 0 0 1-2.309.625c-.766.102-1.541.133-2.313.09a7.94 7.94 0 0 1-4.702-1.721 6.573 6.573 0 0 1-1.956-2.72c-.113-.28-.203-.575-.292-.865-.061-.19-.08-.213-.282-.213h-1.157c-.207 0-.258-.05-.258-.25v-1.431c0-.186.051-.24.24-.24h.874c.202 0 .254-.06.254-.245v-.97c0-.176-.047-.226-.23-.23h-.903c-.179 0-.235-.055-.235-.227v-1.464c0-.177.056-.231.249-.231h1.222a.253.253 0 0 0 .282-.2 7.442 7.442 0 0 1 1.449-2.66 7.183 7.183 0 0 1 3.827-2.306 10.554 10.554 0 0 1 3.155-.267c.783.025 1.56.142 2.314.348.282.082.56.186.836.286.051.011.095.043.12.087a.167.167 0 0 1 .007.144l-.761 2.932c-.038.14-.118.181-.264.122a7.942 7.942 0 0 0-3.22-.475 4.024 4.024 0 0 0-2.286.693 3.207 3.207 0 0 0-.912 1.028c-.08.146 0 .259.165.272h4.584c.259 0 .296.037.296.281v1.392c0 .208-.047.253-.268.253l-2.567.01z"/>
        <path fill="#38D611" stroke="#364A68" stroke-width="2" d="M284.737 121.229v-19.79l-17.783-9.896-17.783 9.897v19.789l17.783 9.892z"/>
        <path fill="#364A68" d="M267.974 109.778h-2.553c-.226 0-.263.031-.263.253v.907c0 .213.051.262.277.262h4.942c.47 0 .47 0 .47.431v1.21c0 .25-.033.28-.296.28h-4.627a.19.19 0 0 0-.188.09.176.176 0 0 0 .014.2c.206.369.486.694.823.957.54.416 1.193.676 1.88.748a7.596 7.596 0 0 0 3.654-.422l.108-.036c.17-.054.25 0 .287.15.146.602.292 1.205.433 1.812l.24 1.015c.042.177 0 .218-.151.295a8.13 8.13 0 0 1-2.309.625c-.766.1-1.54.13-2.313.09a7.925 7.925 0 0 1-4.702-1.721 6.542 6.542 0 0 1-1.96-2.72c-.109-.285-.198-.575-.292-.865-.061-.195-.08-.213-.282-.213h-1.152c-.212 0-.264-.05-.264-.249v-1.436c0-.182.052-.236.24-.236h.88c.197 0 .253-.054.253-.24v-.97c0-.177-.051-.226-.23-.231h-.908c-.178 0-.235-.054-.235-.227v-1.463c0-.182.057-.231.25-.231h1.255a.253.253 0 0 0 .282-.2 7.612 7.612 0 0 1 1.448-2.66 7.179 7.179 0 0 1 3.832-2.306 10.525 10.525 0 0 1 3.15-.268c.784.025 1.56.143 2.314.35.287.076.56.185.842.285.05.01.094.043.118.087a.162.162 0 0 1 .004.144c-.254.974-.503 1.953-.762 2.932-.037.14-.117.181-.263.122a7.922 7.922 0 0 0-3.216-.476 4.03 4.03 0 0 0-2.29.694 3.073 3.073 0 0 0-.908 1.028c-.084.145 0 .259.16.272h4.585c.258 0 .296.036.296.281v1.391c0 .209-.047.254-.263.254l-2.61.005z"/>
        <path fill="#364A68" stroke="#38D611" stroke-linejoin="round" stroke-width="5" d="M192.324 163.68v-45.351l-40.752-22.676-40.752 22.676v45.351l40.752 22.676z"/>
        <path fill="#38D611" d="M124.596 140.642v15.013l13.49 7.508 13.495-7.508 13.49 7.508 13.495-7.508v-15.013l-13.49-7.509-.005 15.013-13.49-7.504-13.495 7.504v-15.013z"/>
    </g>
</svg>
