<svg xmlns="http://www.w3.org/2000/svg" width="286" height="267" viewBox="0 0 286 267">
    <g fill="none" fill-rule="evenodd">
        <g opacity=".5" transform="translate(1)">
            <path stroke="#B3B3B3" stroke-width=".86" d="M110.446 86.133l-21 12.001v24.002l21 12 20.995-12V98.134"/>
            <path stroke="#B3B3B3" stroke-width=".86" d="M89.446 98.134l21 12.001v48.286"/>
            <path stroke="#B3B3B3" stroke-width=".86" d="M131.44 98.134l-20.994 12.001-21 12.001"/>
            <path stroke="#B3B3B3" stroke-width=".86" d="M110.446 110.135l20.995 12.001 14.428 8.68 6.71 4.038V86.02l21-12.002M47.45 122.145L26.452 110.14M47.45 98.134l20.996 12.001v24.016L47.45 146.727l20.995 12.237 21-12.1"/>
            <path stroke="#B3B3B3" stroke-width=".86" d="M89.446 98.134l-21 12.001-20.995 12.001M110.446 86.133l-21-12V34.474l14.39-8.364M117.712 42.3l13.729 8.557M26.451 158.422L5.456 146.864M271.534 178.668v-24.001l-20.995-12.001-21 12v24.002l21 12.001z"/>
            <path stroke="#B3B3B3" stroke-width=".86" d="M271.534 154.667l-20.995 12-21 12.001M152.579 62.019l21 12v24.002l-21 12.006-20.996-12.006V74.02"/>
            <path stroke="#B3B3B3" stroke-width=".86" d="M131.583 74.02l20.996 12 21 12.001M152.579 86.02l-20.996 12.001M152.579 62.019V38.017l21-12.001 20.994 12V62.02l-20.995 12z"/>
            <path stroke="#B3B3B3" stroke-width=".86" d="M194.435 62.019l-21-12.001-21-12.001-20.994-11.27v24.087M215.573 98.03V74.03l20.995-12.001 21 12v24.003l-21 12"/>
            <path stroke="#B3B3B3" stroke-width=".86" d="M257.568 58.5l14.048 7.75-14.048 7.779-21 12v24.017"/>
            <path stroke="#B3B3B3" stroke-width=".86" d="M215.573 74.029l20.995 12 21 12.002v24.718l21.124 11.558v-23.658M215.573 98.03l21-12M173.578 98.021V74.02l20.995-12 21 12v24.002l-21 12.006z"/>
            <path stroke="#B3B3B3" stroke-width=".86" d="M215.573 74.02l-21 12v24.02l21 12.577-21 12.237-21.076-12.147"/>
            <path stroke="#B3B3B3" stroke-width=".86" d="M173.578 74.02l20.995 12 21 12.001M152.579 62.019l21-12.001V10.359l-14.391-8.364M145.169 18.185l-13.728 8.562M131.502 195.066v24.006l-20.995 12-21-12v-24.006l21-12.001z"/>
            <path stroke="#B3B3B3" stroke-width=".86" d="M110.507 183.05v24.021l-21 12.001-20.994 12v15.662"/>
            <path stroke="#B3B3B3" stroke-width=".86" d="M131.502 219.072l-20.995-12-21-12.006M131.502 195.07l-20.995 12.001M173.497 195.075l-20.995-12v-24.002l20.995-12.001 21 12v24.002"/>
            <path stroke="#B3B3B3" stroke-width=".86" d="M152.502 183.074l20.995-12v-48.367"/>
            <path stroke="#B3B3B3" stroke-width=".86" d="M194.497 183.074l-21-12-20.995-12.001"/>
            <path stroke="#B3B3B3" stroke-width=".86" d="M173.497 171.073l21-12 14.429-8.68M173.497 195.075v24.002l-20.995 12-21-12v-24.002l21-12z"/>
            <path stroke="#B3B3B3" stroke-width=".86" d="M131.502 195.075l21 12.001 20.995 12 15.759 8.459 19.289 10.538M110.507 159.063v24.002l-21 12-20.994-12v-24.002"/>
            <path stroke="#B3B3B3" stroke-width=".86" d="M68.513 198.599l-14.053-7.755 14.053-7.78 20.995-12v-24.016M110.507 159.063l-21 12.001M152.502 159.073v24.001l-21 12.001-20.995-12v-24.002l20.995-12.001z"/>
            <path stroke="#B3B3B3" stroke-width=".86" d="M110.507 183.074l20.995-12v-24.016l-20.995-12.577"/>
            <path stroke="#B3B3B3" stroke-width=".86" d="M152.502 183.074l-21-12-20.995-12.001M54.46 223.072l14.053 8M54.46 175.14v15.704M131.502 266.797v-23.935l-20.995-11.79v24.163M173.497 195.075l-20.995 12.001v39.658l14.39 8.364M229.54 154.667l41.994 24.001"/>
            <ellipse cx="89.45" cy="74.019" fill="gray" rx="2.016" ry="1.995"/>
            <ellipse cx="47.46" cy="98.158" fill="gray" rx="2.016" ry="1.995"/>
            <ellipse cx="47.451" cy="122.292" fill="gray" rx="2.016" ry="1.995"/>
            <ellipse cx="26.213" cy="110.159" fill="gray" rx="2.016" ry="1.995"/>
            <ellipse cx="5.456" cy="146.864" fill="gray" rx="2.016" ry="1.995"/>
            <ellipse cx="25.784" cy="158.12" fill="gray" rx="2.016" ry="1.995"/>
            <ellipse cx="68.446" cy="110.159" fill="gray" rx="2.016" ry="1.995"/>
            <ellipse cx="68.513" cy="134.137" fill="gray" rx="2.016" ry="1.995"/>
            <ellipse cx="89.446" cy="122.292" fill="gray" rx="2.016" ry="1.995"/>
            <ellipse cx="47.46" cy="146.864" fill="gray" rx="2.016" ry="1.995"/>
            <ellipse cx="89.45" cy="50.419" fill="gray" rx="2.016" ry="1.995"/>
            <ellipse cx="89.517" cy="34.474" fill="gray" rx="2.016" ry="1.995"/>
            <ellipse cx="103.751" cy="26.11" fill="gray" rx="2.016" ry="1.995"/>
            <ellipse cx="110.436" cy="62.424" fill="gray" rx="2.016" ry="1.995"/>
            <ellipse cx="117.712" cy="42.385" fill="gray" rx="2.016" ry="1.995"/>
            <ellipse cx="131.441" cy="50.857" fill="gray" rx="2.016" ry="1.995"/>
            <ellipse cx="131.441" cy="26.747" fill="gray" rx="2.016" ry="1.995"/>
            <ellipse cx="145.169" cy="18.185" fill="gray" rx="2.016" ry="1.995"/>
            <ellipse cx="152.579" cy="38.022" fill="gray" rx="2.016" ry="1.995"/>
            <ellipse cx="152.579" cy="62.136" fill="gray" rx="2.016" ry="1.995"/>
            <ellipse cx="194.435" cy="62.019" fill="gray" rx="2.016" ry="1.995"/>
            <ellipse cx="173.497" cy="50.532" fill="gray" rx="2.016" ry="1.995"/>
            <ellipse cx="173.578" cy="74.019" fill="gray" rx="2.016" ry="1.995"/>
            <ellipse cx="173.65" cy="97.889" fill="gray" rx="2.016" ry="1.995"/>
            <ellipse cx="215.502" cy="97.771" fill="gray" rx="2.016" ry="1.995"/>
            <ellipse cx="236.573" cy="86.03" fill="gray" rx="2.016" ry="1.995"/>
            <ellipse cx="236.573" cy="110.135" fill="gray" rx="2.016" ry="1.995"/>
            <ellipse cx="215.502" cy="122.707" fill="gray" rx="2.016" ry="1.995"/>
            <ellipse cx="195.083" cy="134.481" fill="gray" rx="2.016" ry="1.995"/>
            <ellipse cx="173.65" cy="123.259" fill="gray" rx="2.016" ry="1.995"/>
            <ellipse cx="173.497" cy="147.072" fill="gray" rx="2.016" ry="1.995"/>
            <ellipse cx="194.497" cy="159.073" fill="gray" rx="2.016" ry="1.995"/>
            <ellipse cx="152.579" cy="159.426" fill="gray" rx="2.016" ry="1.995"/>
            <ellipse cx="208.545" cy="150.388" fill="gray" rx="2.016" ry="1.995"/>
            <ellipse cx="257.568" cy="97.889" fill="gray" rx="2.016" ry="1.995"/>
            <ellipse cx="278.692" cy="111.097" fill="gray" rx="2.016" ry="1.995"/>
            <ellipse cx="278.692" cy="134.137" fill="gray" rx="2.016" ry="1.995"/>
            <ellipse cx="257.568" cy="122.707" fill="gray" rx="2.016" ry="1.995"/>
            <ellipse cx="194.569" cy="86.284" fill="gray" rx="2.016" ry="1.995"/>
            <ellipse cx="194.645" cy="109.777" fill="gray" rx="2.016" ry="1.995"/>
            <ellipse cx="194.573" cy="38.272" fill="gray" rx="2.016" ry="1.995"/>
            <ellipse cx="173.578" cy="26.11" fill="gray" rx="2.016" ry="1.995"/>
            <ellipse cx="235.992" cy="61.971" fill="gray" rx="2.016" ry="1.995"/>
            <ellipse cx="215.573" cy="73.972" fill="gray" rx="2.016" ry="1.995"/>
            <ellipse cx="250.473" cy="166.917" fill="gray" rx="2.016" ry="1.995"/>
            <ellipse cx="271.539" cy="155.176" fill="gray" rx="2.016" ry="1.995"/>
            <ellipse cx="271.539" cy="178.461" fill="gray" rx="2.016" ry="1.995"/>
            <ellipse cx="250.473" cy="190.216" fill="gray" rx="2.016" ry="1.995"/>
            <ellipse cx="229.535" cy="155.431" fill="gray" rx="2.016" ry="1.995"/>
            <ellipse cx="229.616" cy="178.918" fill="gray" rx="2.016" ry="1.995"/>
            <ellipse cx="173.497" cy="171.064" fill="gray" rx="2.016" ry="1.995"/>
            <ellipse cx="152.579" cy="182.89" fill="gray" rx="2.016" ry="1.995"/>
            <ellipse cx="194.497" cy="183.074" fill="gray" rx="2.016" ry="1.995"/>
            <ellipse cx="173.545" cy="195.042" fill="gray" rx="2.016" ry="1.995"/>
            <ellipse cx="152.55" cy="206.774" fill="gray" rx="2.016" ry="1.995"/>
            <ellipse cx="173.545" cy="218.968" fill="gray" rx="2.016" ry="1.995"/>
            <ellipse cx="152.55" cy="230.889" fill="gray" rx="2.016" ry="1.995"/>
            <ellipse cx="152.55" cy="246.734" fill="gray" rx="2.016" ry="1.995"/>
            <ellipse cx="131.502" cy="242.739" fill="gray" rx="2.016" ry="1.995"/>
            <ellipse cx="110.507" cy="255.098" fill="gray" rx="2.016" ry="1.995"/>
            <ellipse cx="110.507" cy="230.889" fill="gray" rx="2.016" ry="1.995"/>
            <ellipse cx="89.446" cy="218.968" fill="gray" rx="2.016" ry="1.995"/>
            <ellipse cx="68.513" cy="230.889" fill="gray" rx="2.016" ry="1.995"/>
            <ellipse cx="68.446" cy="246.734" fill="gray" rx="2.016" ry="1.995"/>
            <ellipse cx="54.46" cy="223.072" fill="gray" rx="2.016" ry="1.995"/>
            <ellipse cx="166.974" cy="255.098" fill="gray" rx="2.016" ry="1.995"/>
            <ellipse cx="131.617" cy="196.103" fill="gray" rx="2.016" ry="1.995"/>
            <ellipse cx="110.436" cy="207.076" fill="gray" rx="2.016" ry="1.995"/>
            <ellipse cx="89.508" cy="195.042" fill="gray" rx="2.016" ry="1.995"/>
            <ellipse cx="110.507" cy="183.074" fill="gray" rx="2.016" ry="1.995"/>
            <ellipse cx="131.441" cy="171.064" fill="gray" rx="2.016" ry="1.995"/>
            <ellipse cx="131.441" cy="147.072" fill="gray" rx="2.016" ry="1.995"/>
            <ellipse cx="110.436" cy="159.073" fill="gray" rx="2.016" ry="1.995"/>
            <ellipse cx="89.508" cy="171.064" fill="gray" rx="2.016" ry="1.995"/>
            <ellipse cx="68.513" cy="183.051" fill="gray" rx="2.016" ry="1.995"/>
            <ellipse cx="68.513" cy="158.964" fill="gray" rx="2.016" ry="1.995"/>
            <ellipse cx="89.446" cy="147.048" fill="gray" rx="2.016" ry="1.995"/>
            <ellipse cx="54.46" cy="190.669" fill="gray" rx="2.016" ry="1.995"/>
            <ellipse cx="54.46" cy="175.14" fill="gray" rx="2.016" ry="1.995"/>
            <ellipse cx="68.446" cy="198.594" fill="gray" rx="2.016" ry="1.995"/>
            <ellipse cx="131.698" cy="219.591" fill="gray" rx="2.016" ry="1.995"/>
            <ellipse cx="208.626" cy="238.073" fill="gray" rx="2.016" ry="1.995"/>
            <ellipse cx="250.544" cy="143.119" fill="gray" rx="2.016" ry="1.995"/>
            <ellipse cx="258.392" cy="58.966" fill="gray" rx="2.016" ry="1.995"/>
            <ellipse cx="271.616" cy="66.132" fill="gray" rx="2.016" ry="1.995"/>
            <ellipse cx="257.568" cy="73.972" fill="gray" rx="2.016" ry="1.995"/>
            <ellipse cx="173.497" cy="10.359" fill="gray" rx="2.016" ry="1.995"/>
            <ellipse cx="159.559" cy="1.995" fill="gray" rx="2.016" ry="1.995"/>
            <ellipse cx="110.436" cy="86.308" fill="gray" rx="2.016" ry="1.995"/>
            <ellipse cx="89.45" cy="98.441" fill="gray" rx="2.016" ry="1.995"/>
            <ellipse cx="110.503" cy="110.012" fill="gray" rx="2.016" ry="1.995"/>
            <ellipse cx="110.565" cy="133.991" fill="gray" rx="2.016" ry="1.995"/>
            <ellipse cx="131.498" cy="122.145" fill="gray" rx="2.016" ry="1.995"/>
            <ellipse cx="152.579" cy="134.481" fill="gray" rx="2.016" ry="1.995"/>
            <ellipse cx="131.507" cy="98.295" fill="gray" rx="2.016" ry="1.995"/>
            <ellipse cx="152.579" cy="86.02" fill="gray" rx="2.016" ry="1.995"/>
            <ellipse cx="131.583" cy="73.972" fill="gray" rx="2.016" ry="1.995"/>
            <ellipse cx="152.502" cy="109.777" fill="gray" rx="2.016" ry="1.995"/>
            <ellipse cx="117.712" cy="42.201" stroke="#B3B3B3" stroke-width=".86" rx="5.251" ry="5.198"/>
            <ellipse cx="173.497" cy="10.548" stroke="#B3B3B3" stroke-width=".86" rx="5.251" ry="5.198"/>
            <ellipse cx="257.568" cy="74.043" stroke="#B3B3B3" stroke-width=".86" rx="5.251" ry="5.198"/>
            <ellipse cx="278.692" cy="133.991" stroke="#B3B3B3" stroke-width=".86" rx="5.251" ry="5.198"/>
            <ellipse cx="271.616" cy="178.461" stroke="#B3B3B3" stroke-width=".86" rx="5.251" ry="5.198"/>
            <ellipse cx="250.539" cy="143.119" stroke="#B3B3B3" stroke-width=".86" rx="5.251" ry="5.198"/>
            <ellipse cx="152.469" cy="246.734" stroke="#B3B3B3" stroke-width=".86" rx="5.251" ry="5.198"/>
            <ellipse cx="110.507" cy="255.098" stroke="#B3B3B3" stroke-width=".86" rx="5.251" ry="5.198"/>
            <ellipse cx="68.446" cy="230.889" stroke="#B3B3B3" stroke-width=".86" rx="5.251" ry="5.198"/>
            <ellipse cx="195.083" cy="134.137" stroke="#B3B3B3" stroke-width=".86" rx="5.251" ry="5.198"/>
            <ellipse cx="89.446" cy="147.072" stroke="#B3B3B3" stroke-width=".86" rx="5.251" ry="5.198"/>
            <ellipse cx="110.436" cy="86.308" stroke="#B3B3B3" stroke-width=".86" rx="5.251" ry="5.198"/>
            <ellipse cx="54.46" cy="190.844" stroke="#B3B3B3" stroke-width=".86" rx="5.251" ry="5.198"/>
            <ellipse cx="131.441" cy="171.073" stroke="#B3B3B3" stroke-width=".86" rx="5.251" ry="5.198"/>
            <ellipse cx="5.456" cy="146.864" stroke="#B3B3B3" stroke-width=".86" rx="5.251" ry="5.198"/>
        </g>
        <path stroke="#364A68" stroke-width="3" d="M203.703 235.771l1.43-18.586 31.144-30.092v-54.249l-7.724-7.915-11.089 7-1.291 25.827"/>
        <path stroke="#364A68" stroke-width="3" d="M168.827 236.097l2.349-38.06 7.815-11.198 11.136-4.303 25.35-24.78 10.736.982 1.944 12.401-26.308 25.785M102.568 235.771l-1.434-18.586-31.145-30.092v-54.249l7.73-7.915 11.083 7 1.291 25.827"/>
        <path stroke="#364A68" stroke-width="3" d="M137.44 236.097l-2.35-38.06-7.815-11.198-11.136-4.303-25.35-24.78-10.731.982-1.95 12.401 26.309 25.785"/>
        <path stroke="#364A68" stroke-dasharray="4" stroke-width="3" d="M228.453 125.995l-11.88-52.023-63.98-34.88"/>
        <path stroke="#364A68" stroke-dasharray="4" stroke-width="3" d="M77.994 125.877L89.88 73.854l63.98-34.884"/>
        <path fill="#38D611" stroke="#364A68" stroke-width="2" d="M239.917 90.516V69.92l-18.021-10.303-18.022 10.303v20.596l18.022 10.302zM171.152 49.268v-20.6l-18.017-10.299-18.021 10.298v20.6l18.021 10.303zM101.653 90.516V69.92L83.632 59.617 65.61 69.92v20.596l18.022 10.302z"/>
        <path fill="#364A68" fill-rule="nonzero" d="M150.982 42.758l-.034-.83c-.095-1.623.453-3.274 1.906-4.996 1.03-1.208 1.868-2.227 1.868-3.302 0-1.076-.738-1.85-2.349-1.887a6.149 6.149 0 0 0-3.183.943l-1.091-3.467a11.106 11.106 0 0 1 5.384-1.326c4.241 0 6.171 2.326 6.171 4.968 0 2.415-1.51 4.01-2.735 5.345a5.472 5.472 0 0 0-1.64 3.976v.576h-4.297zm-.834 4.415c.036-1.554 1.332-2.788 2.902-2.764 1.57.024 2.827 1.297 2.815 2.852-.012 1.554-1.288 2.808-2.858 2.809a2.797 2.797 0 0 1-2.07-.829 2.74 2.74 0 0 1-.79-2.068z"/>
        <path fill="#364A68" d="M228.772 87.35v5.661l-.29-.23-6.558-5.313a.523.523 0 0 0-.305-.099h-7.886a2.297 2.297 0 0 1-2.349-1.806 2.158 2.158 0 0 1-.062-.552v-11.7a2.276 2.276 0 0 1 .676-1.689 2.324 2.324 0 0 1 1.707-.669h17.511a2.31 2.31 0 0 1 1.672.627c.448.424.705 1.01.71 1.623v11.704a2.385 2.385 0 0 1-.79 1.887 2.315 2.315 0 0 1-1.601.575h-2.435v-.018z"/>
        <path fill="#38D611" d="M230.144 75.005v1.359h-15.363v-1.359zM230.144 78.364v1.359h-15.367v-1.354zM214.772 83.1v-1.354h15.363V83.1z"/>
        <path fill="#364A68" d="M71.585 77.69a6.867 6.867 0 0 1 2.678-5.515 1.84 1.84 0 0 1 2.636.472c.476.811.976 1.585 1.462 2.358.289.415.428.913.396 1.415a1.79 1.79 0 0 1-.996 1.369c-.238.141-.477.264-.72.42a1.21 1.21 0 0 0-.281 1.887c.193.244.4.477.62.697 1.734 1.718 3.481 3.435 5.241 5.152.153.156.322.295.506.415.548.408 1.326.31 1.753-.222.315-.368.567-.788.858-1.174a1.554 1.554 0 0 1 2.054-.444 61.609 61.609 0 0 1 3.002 1.77c.345.254.562.645.595 1.07a1.809 1.809 0 0 1-.476 1.57 7.112 7.112 0 0 1-3.44 2.2 7.771 7.771 0 0 1-3.608.056 11.678 11.678 0 0 1-5.38-2.76 37.22 37.22 0 0 1-4.183-4.288 11.149 11.149 0 0 1-2.578-5.26 3.878 3.878 0 0 1-.067-.472 3.935 3.935 0 0 1-.072-.717z"/>
        <path fill="#364A68" stroke="#38D611" d="M82.917 67.712c1.719.013 3.415.384 4.98 1.09a12.872 12.872 0 0 1 5.856 5.132 12.116 12.116 0 0 1 1.71 4.756c.091.846.134 1.696.129 2.547a.858.858 0 0 1-.862.854.858.858 0 0 1-.863-.854c-.029-.609-.029-1.222-.086-1.826a10.304 10.304 0 0 0-1.3-4.132 11.073 11.073 0 0 0-6.59-5.368 11.492 11.492 0 0 0-3.927-.472.868.868 0 0 1-.862-.823.866.866 0 0 1 .78-.899c.344-.01.692-.005 1.035-.005z"/>
        <path fill="#364A68" stroke="#38D611" d="M82.807 70.92a9.59 9.59 0 0 1 7.3 3.515 8.949 8.949 0 0 1 2.059 4.561c.091.704.133 1.413.124 2.123a.84.84 0 0 1-.268.664.858.858 0 0 1-.685.223.82.82 0 0 1-.791-.845 9.388 9.388 0 0 0-.138-2.193 7.798 7.798 0 0 0-5.109-5.85 7.565 7.565 0 0 0-3.207-.471.897.897 0 0 1-.671-.193.88.88 0 0 1-.324-.614.868.868 0 0 1 .25-.649.886.886 0 0 1 .65-.261c.272-.02.539-.01.81-.01z"/>
        <path fill="#364A68" stroke="#38D611" d="M87.32 80.666c.07-2.398-1.728-4.448-4.136-4.717a11.374 11.374 0 0 0-1.134 0 .887.887 0 0 1-.887-.543.796.796 0 0 1 .21-.943c.153-.13.34-.214.538-.245 3.177-.34 6.13 1.662 6.957 4.717a6.25 6.25 0 0 1 .186 2.358.865.865 0 0 1-.915.812.863.863 0 0 1-.82-.906v-.533z"/>
        <path fill="#364A68" stroke="#38D611" stroke-linejoin="round" stroke-width="5" d="M194.434 157.719v-47.211l-41.299-23.606-41.299 23.606v47.21l41.3 23.606z"/>
        <path fill="#38D611" d="M125.793 133.731v15.633l13.676 7.817 13.676-7.817 13.671 7.817 13.676-7.817v-15.633l-13.671-7.816-.005 15.633-13.671-7.817-13.676 7.817v-15.629z"/>
    </g>
</svg>
