<svg xmlns="http://www.w3.org/2000/svg" width="286" height="269" viewBox="0 0 286 269">
    <g fill="none" fill-rule="evenodd" transform="translate(1 2)">
        <g opacity=".5" transform="translate(0 3.715)">
            <path stroke="#B3B3B3" stroke-width=".86" d="M109.163 85.017L88.407 96.83v23.626l20.756 11.813 20.752-11.813V96.83"/>
            <path stroke="#B3B3B3" stroke-width=".86" d="M88.407 96.83l20.756 11.813v47.531"/>
            <path stroke="#B3B3B3" stroke-width=".86" d="M129.915 96.83l-20.752 11.813-20.756 11.813"/>
            <path stroke="#B3B3B3" stroke-width=".86" d="M109.163 108.643l20.752 11.813 14.26 8.544 6.632 3.975V84.906l20.756-11.813M46.9 120.466l-20.756-11.813M46.9 96.83l20.751 11.813v23.64L46.9 144.663l20.751 12.05 20.756-11.915"/>
            <path stroke="#B3B3B3" stroke-width=".86" d="M88.407 96.83l-20.756 11.813L46.9 120.456M109.163 85.017L88.407 73.204V34.167l14.224-8.233M116.346 41.87l13.569 8.424M26.144 156.174L5.393 144.798M268.382 176.104v-23.626l-20.751-11.813-20.756 11.813v23.626l20.756 11.813z"/>
            <path stroke="#B3B3B3" stroke-width=".86" d="M268.382 152.478l-20.751 11.813-20.756 11.813M150.807 61.28l20.756 11.813v23.63l-20.756 11.814-20.751-11.813V73.093"/>
            <path stroke="#B3B3B3" stroke-width=".86" d="M130.056 73.093l20.751 11.813 20.756 11.818M150.807 84.91l-20.751 11.814M150.807 61.28V37.654l20.756-11.813 20.752 11.813V61.28l-20.752 11.813z"/>
            <path stroke="#B3B3B3" stroke-width=".86" d="M192.178 61.28l-20.756-11.813-20.756-11.813-20.751-11.093v23.71M213.07 96.728V73.102l20.752-11.813 20.756 11.813v23.626l-20.756 11.813"/>
            <path stroke="#B3B3B3" stroke-width=".86" d="M254.578 57.816l13.884 7.63-13.884 7.656-20.756 11.813v23.64"/>
            <path stroke="#B3B3B3" stroke-width=".86" d="M213.07 73.102l20.752 11.813 20.756 11.813v24.332l20.878 11.381V109.15M213.07 96.728l20.757-11.813"/>
            <path stroke="#B3B3B3" stroke-width=".86" d="M171.563 96.724V73.093l20.752-11.813 20.756 11.813v23.63l-20.756 11.814z"/>
            <path stroke="#B3B3B3" stroke-width=".86" d="M213.07 73.093l-20.755 11.813v23.645l20.756 12.38-20.756 12.044-20.832-11.957"/>
            <path stroke="#B3B3B3" stroke-width=".86" d="M171.563 73.093l20.752 11.813 20.756 11.818M150.807 61.28l20.756-11.813V10.429L157.34 2.196M143.484 18.137l-13.57 8.424M129.976 192.25v23.625l-20.751 11.813-20.756-11.813V192.25l20.756-11.813z"/>
            <path stroke="#B3B3B3" stroke-width=".86" d="M109.225 180.418v23.644l-20.756 11.813-20.752 11.813v15.417"/>
            <path stroke="#B3B3B3" stroke-width=".86" d="M129.976 215.875l-20.751-11.813-20.756-11.813M129.976 192.25l-20.751 11.812M171.483 192.254l-20.751-11.813v-23.626l20.751-11.813 20.756 11.813v23.626"/>
            <path stroke="#B3B3B3" stroke-width=".86" d="M150.732 180.44l20.751-11.812v-47.61"/>
            <path stroke="#B3B3B3" stroke-width=".86" d="M192.24 180.44l-20.757-11.812-20.751-11.813"/>
            <path stroke="#B3B3B3" stroke-width=".86" d="M171.483 168.628l20.756-11.813 14.261-8.544M171.483 192.254v23.63l-20.751 11.814-20.756-11.813v-23.631l20.756-11.813z"/>
            <path stroke="#B3B3B3" stroke-width=".86" d="M129.976 192.254l20.756 11.813 20.751 11.818 15.576 8.325 19.065 10.37M109.225 156.806v23.63L88.469 192.25l-20.752-11.813v-23.63"/>
            <path stroke="#B3B3B3" stroke-width=".86" d="M67.717 195.723l-13.889-7.634 13.89-7.653 20.75-11.817v-23.64M109.225 156.806l-20.756 11.813M150.732 156.815v23.626l-20.756 11.813-20.751-11.813v-23.626l20.75-11.813z"/>
            <path stroke="#B3B3B3" stroke-width=".86" d="M109.225 180.44l20.75-11.812v-23.64l-20.75-12.38"/>
            <path stroke="#B3B3B3" stroke-width=".86" d="M150.732 180.44l-20.756-11.812-20.751-11.813M53.828 219.813l13.89 7.875M53.828 172.63v15.463M129.976 262.853v-23.56l-20.751-11.605v23.784M171.483 192.254l-20.751 11.813v39.038l14.223 8.233M226.875 152.478l41.507 23.626"/>
            <ellipse cx="88.412" cy="73.093" fill="gray" rx="1.992" ry="1.964"/>
            <ellipse cx="46.909" cy="96.854" fill="gray" rx="1.992" ry="1.964"/>
            <ellipse cx="46.9" cy="120.61" fill="gray" rx="1.992" ry="1.964"/>
            <ellipse cx="25.909" cy="108.667" fill="gray" rx="1.992" ry="1.964"/>
            <ellipse cx="5.393" cy="144.798" fill="gray" rx="1.992" ry="1.964"/>
            <ellipse cx="25.485" cy="155.877" fill="gray" rx="1.992" ry="1.964"/>
            <ellipse cx="67.651" cy="108.667" fill="gray" rx="1.992" ry="1.964"/>
            <ellipse cx="67.717" cy="132.269" fill="gray" rx="1.992" ry="1.964"/>
            <ellipse cx="88.407" cy="120.61" fill="gray" rx="1.992" ry="1.964"/>
            <ellipse cx="46.909" cy="144.798" fill="gray" rx="1.992" ry="1.964"/>
            <ellipse cx="88.412" cy="49.866" fill="gray" rx="1.992" ry="1.964"/>
            <ellipse cx="88.478" cy="34.167" fill="gray" rx="1.992" ry="1.964"/>
            <ellipse cx="102.546" cy="25.934" fill="gray" rx="1.992" ry="1.964"/>
            <ellipse cx="109.154" cy="61.679" fill="gray" rx="1.992" ry="1.964"/>
            <ellipse cx="116.346" cy="41.954" fill="gray" rx="1.992" ry="1.964"/>
            <ellipse cx="129.915" cy="50.294" fill="gray" rx="1.992" ry="1.964"/>
            <ellipse cx="129.915" cy="26.561" fill="gray" rx="1.992" ry="1.964"/>
            <ellipse cx="143.484" cy="18.137" fill="gray" rx="1.992" ry="1.964"/>
            <ellipse cx="150.807" cy="37.663" fill="gray" rx="1.992" ry="1.964"/>
            <ellipse cx="150.807" cy="61.396" fill="gray" rx="1.992" ry="1.964"/>
            <ellipse cx="192.178" cy="61.28" fill="gray" rx="1.992" ry="1.964"/>
            <ellipse cx="171.483" cy="49.973" fill="gray" rx="1.992" ry="1.964"/>
            <ellipse cx="171.563" cy="73.093" fill="gray" rx="1.992" ry="1.964"/>
            <ellipse cx="171.634" cy="96.594" fill="gray" rx="1.992" ry="1.964"/>
            <ellipse cx="213" cy="96.478" fill="gray" rx="1.992" ry="1.964"/>
            <ellipse cx="233.827" cy="84.915" fill="gray" rx="1.992" ry="1.964"/>
            <ellipse cx="233.827" cy="108.643" fill="gray" rx="1.992" ry="1.964"/>
            <ellipse cx="213" cy="121.018" fill="gray" rx="1.992" ry="1.964"/>
            <ellipse cx="192.819" cy="132.608" fill="gray" rx="1.992" ry="1.964"/>
            <ellipse cx="171.634" cy="121.562" fill="gray" rx="1.992" ry="1.964"/>
            <ellipse cx="171.483" cy="145.002" fill="gray" rx="1.992" ry="1.964"/>
            <ellipse cx="192.239" cy="156.815" fill="gray" rx="1.992" ry="1.964"/>
            <ellipse cx="150.807" cy="157.163" fill="gray" rx="1.992" ry="1.964"/>
            <ellipse cx="206.124" cy="148.271" fill="gray" rx="1.992" ry="1.964"/>
            <ellipse cx="254.578" cy="96.594" fill="gray" rx="1.992" ry="1.964"/>
            <ellipse cx="275.456" cy="109.591" fill="gray" rx="1.992" ry="1.964"/>
            <ellipse cx="275.456" cy="132.269" fill="gray" rx="1.992" ry="1.964"/>
            <ellipse cx="254.578" cy="121.018" fill="gray" rx="1.992" ry="1.964"/>
            <ellipse cx="192.31" cy="85.171" fill="gray" rx="1.992" ry="1.964"/>
            <ellipse cx="192.385" cy="108.291" fill="gray" rx="1.992" ry="1.964"/>
            <ellipse cx="192.315" cy="37.909" fill="gray" rx="1.992" ry="1.964"/>
            <ellipse cx="171.563" cy="25.934" fill="gray" rx="1.992" ry="1.964"/>
            <ellipse cx="233.252" cy="61.234" fill="gray" rx="1.992" ry="1.964"/>
            <ellipse cx="213.071" cy="73.047" fill="gray" rx="1.992" ry="1.964"/>
            <ellipse cx="247.565" cy="164.537" fill="gray" rx="1.992" ry="1.964"/>
            <ellipse cx="268.387" cy="152.979" fill="gray" rx="1.992" ry="1.964"/>
            <ellipse cx="268.387" cy="175.904" fill="gray" rx="1.992" ry="1.964"/>
            <ellipse cx="247.565" cy="187.471" fill="gray" rx="1.992" ry="1.964"/>
            <ellipse cx="226.87" cy="153.23" fill="gray" rx="1.992" ry="1.964"/>
            <ellipse cx="226.95" cy="176.35" fill="gray" rx="1.992" ry="1.964"/>
            <ellipse cx="171.483" cy="168.619" fill="gray" rx="1.992" ry="1.964"/>
            <ellipse cx="150.807" cy="180.26" fill="gray" rx="1.992" ry="1.964"/>
            <ellipse cx="192.239" cy="180.441" fill="gray" rx="1.992" ry="1.964"/>
            <ellipse cx="171.53" cy="192.221" fill="gray" rx="1.992" ry="1.964"/>
            <ellipse cx="150.779" cy="203.77" fill="gray" rx="1.992" ry="1.964"/>
            <ellipse cx="171.53" cy="215.773" fill="gray" rx="1.992" ry="1.964"/>
            <ellipse cx="150.779" cy="227.507" fill="gray" rx="1.992" ry="1.964"/>
            <ellipse cx="150.779" cy="243.105" fill="gray" rx="1.992" ry="1.964"/>
            <ellipse cx="129.976" cy="239.176" fill="gray" rx="1.992" ry="1.964"/>
            <ellipse cx="109.225" cy="251.338" fill="gray" rx="1.992" ry="1.964"/>
            <ellipse cx="109.225" cy="227.507" fill="gray" rx="1.992" ry="1.964"/>
            <ellipse cx="88.407" cy="215.773" fill="gray" rx="1.992" ry="1.964"/>
            <ellipse cx="67.717" cy="227.507" fill="gray" rx="1.992" ry="1.964"/>
            <ellipse cx="67.651" cy="243.105" fill="gray" rx="1.992" ry="1.964"/>
            <ellipse cx="53.828" cy="219.813" fill="gray" rx="1.992" ry="1.964"/>
            <ellipse cx="165.036" cy="251.338" fill="gray" rx="1.992" ry="1.964"/>
            <ellipse cx="130.089" cy="193.266" fill="gray" rx="1.992" ry="1.964"/>
            <ellipse cx="109.154" cy="204.067" fill="gray" rx="1.992" ry="1.964"/>
            <ellipse cx="88.469" cy="192.221" fill="gray" rx="1.992" ry="1.964"/>
            <ellipse cx="109.225" cy="180.441" fill="gray" rx="1.992" ry="1.964"/>
            <ellipse cx="129.915" cy="168.619" fill="gray" rx="1.992" ry="1.964"/>
            <ellipse cx="129.915" cy="145.002" fill="gray" rx="1.992" ry="1.964"/>
            <ellipse cx="109.154" cy="156.815" fill="gray" rx="1.992" ry="1.964"/>
            <ellipse cx="88.469" cy="168.619" fill="gray" rx="1.992" ry="1.964"/>
            <ellipse cx="67.717" cy="180.418" fill="gray" rx="1.992" ry="1.964"/>
            <ellipse cx="67.717" cy="156.713" fill="gray" rx="1.992" ry="1.964"/>
            <ellipse cx="88.407" cy="144.979" fill="gray" rx="1.992" ry="1.964"/>
            <ellipse cx="53.828" cy="187.917" fill="gray" rx="1.992" ry="1.964"/>
            <ellipse cx="53.828" cy="172.631" fill="gray" rx="1.992" ry="1.964"/>
            <ellipse cx="67.651" cy="195.723" fill="gray" rx="1.992" ry="1.964"/>
            <ellipse cx="130.169" cy="216.386" fill="gray" rx="1.992" ry="1.964"/>
            <ellipse cx="206.204" cy="234.579" fill="gray" rx="1.992" ry="1.964"/>
            <ellipse cx="247.636" cy="141.111" fill="gray" rx="1.992" ry="1.964"/>
            <ellipse cx="255.393" cy="58.276" fill="gray" rx="1.992" ry="1.964"/>
            <ellipse cx="268.462" cy="65.329" fill="gray" rx="1.992" ry="1.964"/>
            <ellipse cx="254.578" cy="73.047" fill="gray" rx="1.992" ry="1.964"/>
            <ellipse cx="171.483" cy="10.429" fill="gray" rx="1.992" ry="1.964"/>
            <ellipse cx="157.707" cy="2.196" fill="gray" rx="1.992" ry="1.964"/>
            <ellipse cx="109.154" cy="85.189" fill="gray" rx="1.992" ry="1.964"/>
            <ellipse cx="88.412" cy="97.132" fill="gray" rx="1.992" ry="1.964"/>
            <ellipse cx="109.22" cy="108.523" fill="gray" rx="1.992" ry="1.964"/>
            <ellipse cx="109.281" cy="132.126" fill="gray" rx="1.992" ry="1.964"/>
            <ellipse cx="129.971" cy="120.466" fill="gray" rx="1.992" ry="1.964"/>
            <ellipse cx="150.807" cy="132.608" fill="gray" rx="1.992" ry="1.964"/>
            <ellipse cx="129.981" cy="96.988" fill="gray" rx="1.992" ry="1.964"/>
            <ellipse cx="150.807" cy="84.906" fill="gray" rx="1.992" ry="1.964"/>
            <ellipse cx="130.056" cy="73.047" fill="gray" rx="1.992" ry="1.964"/>
            <ellipse cx="150.732" cy="108.291" fill="gray" rx="1.992" ry="1.964"/>
            <ellipse cx="116.346" cy="41.773" stroke="#B3B3B3" stroke-width=".86" rx="5.19" ry="5.117"/>
            <ellipse cx="171.483" cy="10.615" stroke="#B3B3B3" stroke-width=".86" rx="5.19" ry="5.117"/>
            <ellipse cx="254.578" cy="73.116" stroke="#B3B3B3" stroke-width=".86" rx="5.19" ry="5.117"/>
            <ellipse cx="275.456" cy="132.126" stroke="#B3B3B3" stroke-width=".86" rx="5.19" ry="5.117"/>
            <ellipse cx="268.462" cy="175.904" stroke="#B3B3B3" stroke-width=".86" rx="5.19" ry="5.117"/>
            <ellipse cx="247.631" cy="141.111" stroke="#B3B3B3" stroke-width=".86" rx="5.19" ry="5.117"/>
            <ellipse cx="150.699" cy="243.105" stroke="#B3B3B3" stroke-width=".86" rx="5.19" ry="5.117"/>
            <ellipse cx="109.225" cy="251.338" stroke="#B3B3B3" stroke-width=".86" rx="5.19" ry="5.117"/>
            <ellipse cx="67.651" cy="227.507" stroke="#B3B3B3" stroke-width=".86" rx="5.19" ry="5.117"/>
            <ellipse cx="192.819" cy="132.269" stroke="#B3B3B3" stroke-width=".86" rx="5.19" ry="5.117"/>
            <ellipse cx="88.407" cy="145.002" stroke="#B3B3B3" stroke-width=".86" rx="5.19" ry="5.117"/>
            <ellipse cx="109.154" cy="85.189" stroke="#B3B3B3" stroke-width=".86" rx="5.19" ry="5.117"/>
            <ellipse cx="53.828" cy="188.093" stroke="#B3B3B3" stroke-width=".86" rx="5.19" ry="5.117"/>
            <ellipse cx="129.915" cy="168.628" stroke="#B3B3B3" stroke-width=".86" rx="5.19" ry="5.117"/>
            <ellipse cx="5.393" cy="144.798" stroke="#B3B3B3" stroke-width=".86" rx="5.19" ry="5.117"/>
        </g>
        <path stroke="#364A68" stroke-width="3" d="M250.264 190.364l.815-.464v-.929"/>
        <path stroke="#364A68" stroke-dasharray="3.95" stroke-width="3" d="M251.079 187.141V78.108"/>
        <path stroke="#364A68" stroke-width="3" d="M251.079 77.193v-.929l-.815-.464"/>
        <path stroke="#364A68" stroke-dasharray="3.95" stroke-width="3" d="M248.653 74.885l-95.769-54.514"/>
        <path stroke="#364A68" stroke-width="3" d="M152.079 19.911l-.815-.464-.815.464"/>
        <path stroke="#364A68" stroke-dasharray="3.95" stroke-width="3" d="M148.839 20.826L53.065 75.34"/>
        <path stroke="#364A68" stroke-width="3" d="M52.26 75.8l-.815.464v.93"/>
        <path stroke="#364A68" stroke-dasharray="3.95" stroke-width="3" d="M51.445 79.027v109.03"/>
        <path stroke="#364A68" stroke-width="3" d="M51.445 188.971v.929l.815.464"/>
        <path stroke="#364A68" stroke-dasharray="3.95" stroke-width="3" d="M53.87 191.283l95.774 54.515"/>
        <path stroke="#364A68" stroke-width="3" d="M150.45 246.258l.814.464.815-.464"/>
        <path stroke="#364A68" stroke-dasharray="3.95" stroke-width="3" d="M153.69 245.338l95.768-54.514"/>
        <path stroke="#364A68" stroke-width="3" d="M109.766 113.134l-21.354-12.287V74.844M150.746 88.421V41.378l20.817-11.73M88.412 100.847l-20.76 11.511.065 21.662M192.13 111.982l41.692-23.352V64.948M192.24 160.53l55.391 31.102M150.332 184.156l.4 24.02-20.756-11.817M226.23 179.619l.64-22.674 20.761-12.12M108.48 159.866l-38.36 21.086M116.346 45.488l34.4 19.906M88.742 174.065l-.335 43.459-20.69 13.698"/>
        <path fill="#38D611" stroke="#364A68" stroke-width="2" d="M207.31 30.49V10.21L189.499.074l-17.812 10.137v20.278l17.812 10.137z"/>
        <path fill="#364A68" fill-rule="nonzero" d="M189.508 25.54h2.595c.209.027.42-.032.584-.163a.754.754 0 0 0 .282-.53 8.931 8.931 0 0 1 .862-2.359c.518-.928 1.055-1.899 1.569-2.855a7.312 7.312 0 0 0 .941-2.814 6.552 6.552 0 0 0-.739-3.715c-1.337-2.558-4.178-3.992-7.065-3.566a6.622 6.622 0 0 0-4.978 3.399 6.301 6.301 0 0 0-.518 5.326 16.063 16.063 0 0 0 1.437 2.87 12.905 12.905 0 0 1 1.596 3.714c.018.207.12.398.284.528a.78.78 0 0 0 .583.164h2.567zm0 2.353h-2.53c-.499 0-.786.219-.79.609-.006.39.291.622.781.622h5.1c.082.007.164.007.246 0a.6.6 0 0 0 .513-.678.605.605 0 0 0-.217-.445.623.623 0 0 0-.48-.14l-2.623.032zm0-.51h2.689a.622.622 0 0 0 .45-.182.604.604 0 0 0 .176-.445.595.595 0 0 0-.184-.43.612.612 0 0 0-.442-.17h-5.388a.713.713 0 0 0-.382.121.576.576 0 0 0-.216.688.612.612 0 0 0 .603.413l2.694.005zm0 2.252h-2.355c-.104 0-.264.041-.297.111-.033.07.033.218.099.297.31.372.636.739.97 1.092.08.078.188.123.302.125h2.505a.54.54 0 0 0 .353-.158c.26-.255.471-.534.73-.808.1-.104.192-.215.278-.33.123-.171.057-.297-.155-.325a1.529 1.529 0 0 0-.207 0l-2.223-.004z"/>
        <path fill="#364A68" d="M189.508 25.54h-2.567a.78.78 0 0 1-.618-.159.758.758 0 0 1-.287-.562 12.905 12.905 0 0 0-1.596-3.714 16.063 16.063 0 0 1-1.437-2.87 6.301 6.301 0 0 1 .518-5.326 6.622 6.622 0 0 1 4.979-3.4c2.886-.424 5.727 1.01 7.064 3.567a6.552 6.552 0 0 1 .74 3.715 7.312 7.312 0 0 1-.942 2.814c-.514.956-1.05 1.904-1.569 2.856a8.931 8.931 0 0 0-.861 2.358.753.753 0 0 1-.26.534.775.775 0 0 1-.57.186h-2.594zM189.517 27.86h2.614a.623.623 0 0 1 .458.128c.13.102.212.25.23.412a.6.6 0 0 1-.514.677 1.433 1.433 0 0 1-.245 0h-5.082c-.47 0-.79-.236-.781-.622.009-.385.273-.594.781-.594h2.539zM189.512 27.369h-2.694a.612.612 0 0 1-.603-.414.576.576 0 0 1 .217-.687.713.713 0 0 1 .382-.12h5.388a.612.612 0 0 1 .441.168.595.595 0 0 1 .185.43.604.604 0 0 1-.177.446.622.622 0 0 1-.45.181c-.894.024-1.794-.004-2.689-.004zM189.508 29.62h2.237c.069-.004.138-.004.207 0 .212.029.278.154.155.326a3.694 3.694 0 0 1-.277.33c-.24.273-.471.552-.73.807a.54.54 0 0 1-.354.158h-2.505a.441.441 0 0 1-.32-.13c-.335-.353-.66-.72-.97-1.09-.067-.08-.137-.228-.1-.298.038-.07.193-.112.297-.112.8.005 1.582.01 2.36.01z"/>
        <path fill="#38D611" stroke="#364A68" stroke-width="2" d="M283.863 144.737V124.46l-17.812-10.137-17.808 10.137v20.278l17.808 10.137z"/>
        <g fill="#364A68">
            <path d="M256.91 129.042l9.141-5.061 9.146 5.066-9.146 4.374-9.142-4.379zm-.834 11.191v-9.965l9.146 4.328v10.624l-9.146-4.987zm10.809-5.619l9.146-4.327v9.946l-9.146 5.006v-10.625z"/>
            <rect width="21.552" height="21.249" x=".009" y=".46" rx="3.39" transform="translate(255.27 123.517)"/>
        </g>
        <path fill="#38D611" stroke="#364A68" stroke-width="2" d="M106.554 66.425V46.147L88.742 36.01 70.929 46.147v20.278l17.813 10.141z"/>
        <path fill="#364A68" d="M86.59 45.506a11.187 11.187 0 0 0-6.316 3.543 17.24 17.24 0 0 0 3.268 1.105 8.988 8.988 0 0 1 3.047-4.648zm4.238 0l-.028.042c.07.06.141.116.207.181.311.297.64.585.942.9a8.496 8.496 0 0 1 1.884 3.386c.038.125.08.167.221.125.721-.232 1.446-.464 2.167-.678.31-.102.612-.25.942-.385a11.373 11.373 0 0 0-6.325-3.613l-.01.042zm-6.358 4.876c1.233.245 2.486.382 3.744.408v-5.02a3.016 3.016 0 0 0-1.351.674c-1.21 1.03-1.837 2.42-2.384 3.896l-.009.042zm8.478.042c-.24-.562-.471-1.101-.702-1.621a6.658 6.658 0 0 0-1.649-2.261 3.039 3.039 0 0 0-1.413-.725v5.02a21.401 21.401 0 0 0 3.773-.455l-.01.042zm1.172 11.311l-.051.163c-.217.617-.4 1.249-.65 1.857a8.15 8.15 0 0 1-1.842 2.851c-.226.218-.47.418-.758.66a11.325 11.325 0 0 0 6.857-4.226 15.203 15.203 0 0 0-3.546-1.347l-.01.042zm-14.397 1.319a11.166 11.166 0 0 0 6.82 4.179 7.453 7.453 0 0 1-2.064-2.48c-.509-.957-.91-1.966-1.196-3.009a14.003 14.003 0 0 0-3.551 1.268l-.01.042zm9.457-2.002v5.935c.221-.08.428-.144.617-.232a4.354 4.354 0 0 0 1.568-1.328 11.031 11.031 0 0 0 1.8-3.84.192.192 0 0 0 0-.075 21.6 21.6 0 0 0-3.976-.501l-.01.041zm-4.96.465a.224.224 0 0 0 0 .056 11.481 11.481 0 0 0 1.583 3.538 4.636 4.636 0 0 0 1.719 1.602c.217.107.447.176.688.27v-5.958c-1.34.016-2.673.17-3.98.46l-.01.032zm0-10.155a18.379 18.379 0 0 0-.65 4.081h4.673v-3.631l-4.023-.45zm4.95 4.081h4.672a18.29 18.29 0 0 0-.621-4.123l-4.05.464v3.66zm0 4.685c1.424.033 2.843.189 4.24.465a19.34 19.34 0 0 0 .447-4.212h-4.673l-.014 3.747zm-5.614-3.714a19.35 19.35 0 0 0 .471 4.207c.054.003.107.003.16 0a22.848 22.848 0 0 1 3.89-.465c.156 0 .19-.06.19-.2V56.61v-.2l-4.71.005zm-.287-5.345a18.574 18.574 0 0 1-3.622-1.235 10.761 10.761 0 0 0-2.152 5.632h5.133c.055-1.503.275-2.996.655-4.453l-.014.056zm16.668 4.397a10.706 10.706 0 0 0-2.157-5.632c-1.174.539-2.402.953-3.664 1.235a20.96 20.96 0 0 1 .64 4.397h5.18zm-5.624 5.391c1.352.311 2.657.795 3.881 1.44a10.732 10.732 0 0 0 1.743-5.883h-5.138a21.456 21.456 0 0 1-.471 4.388l-.015.055zm-11.27 0c-.113-.761-.245-1.49-.32-2.224-.076-.733-.104-1.476-.151-2.229h-5.115c.01 2.063.612 4.08 1.738 5.819a15.851 15.851 0 0 1 3.862-1.393l-.014.027z"/>
        <rect width="24.373" height="24.03" x="76.553" y="44.271" fill="#364A68" rx="3.83"/>
        <path fill="#38D611" stroke="#364A68" stroke-width="2" d="M70.12 180.952v-20.278l-17.813-10.137-17.813 10.137v20.278l17.813 10.136z"/>
        <path fill="#364A68" fill-rule="nonzero" d="M54.426 160.135v5.108c0 .464.132.59.603.59h5.256v15.119c0 .436-.127.566-.574.566H44.913c-.443 0-.585-.14-.585-.566v-20.246c0-.404.156-.562.547-.562h9.363l.188-.009zm-2.096 10.68h5.572a.408.408 0 0 0 .429-.358.414.414 0 0 0-.34-.464c-.09-.01-.182-.01-.273 0H46.914a1.91 1.91 0 0 0-.23 0 .397.397 0 0 0-.373.39c0 .274.18.418.533.418l5.486.014zm0 6.431H46.9c-.09-.009-.182-.009-.273 0a.392.392 0 0 0-.32.364.39.39 0 0 0 .282.393.921.921 0 0 0 .25.033h10.945c.091.001.182-.011.269-.038a.353.353 0 0 0 .259-.38.35.35 0 0 0-.287-.363 1.26 1.26 0 0 0-.297-.023l-5.398.014zm.048-1.611h5.524a.4.4 0 0 0 .42-.282.393.393 0 0 0-.199-.461.81.81 0 0 0-.353-.06H46.881a1.228 1.228 0 0 0-.226 0 .382.382 0 0 0-.344.408c0 .2.161.362.363.367.09.007.182.007.273 0l5.43.028zm-.024-2.415h5.576a.403.403 0 0 0 .4-.357.405.405 0 0 0-.305-.423 1.824 1.824 0 0 0-.32-.023H46.927a1.227 1.227 0 0 0-.32.028.354.354 0 0 0-.297.371c0 .265.17.4.523.4l5.52.004zm0-4.824h5.576a.398.398 0 0 0 .31-.14.386.386 0 0 0 .086-.325c-.061-.232-.212-.32-.556-.32H46.867a1.213 1.213 0 0 0-.184 0 .393.393 0 0 0-.27.126.382.382 0 0 0-.102.278c-.002.1.036.197.107.269a.38.38 0 0 0 .27.112c.083.004.167.004.25 0h5.416zm-2.826-3.25h-2.741c-.325 0-.5.162-.471.464.028.301.179.357.471.357h5.454a.474.474 0 0 0 .367-.162.459.459 0 0 0 .038-.409.586.586 0 0 0-.405-.218c-.904-.047-1.818-.037-2.727-.037l.014.004z"/>
        <path fill="#364A68" d="M59.97 164.997h-4.357c-.259 0-.377-.102-.377-.349v-4.179s0-.028.033-.079l4.71 4.565-.01.042z"/>
        <ellipse cx="67.604" cy="139.239" fill="#38D611" stroke="#364A68" stroke-width="2" rx="4.917" ry="4.848"/>
        <ellipse cx="117.081" cy="45.775" fill="#38D611" stroke="#364A68" stroke-width="2" rx="4.917" ry="4.848"/>
        <ellipse cx="233.252" cy="65.394" fill="#38D611" stroke="#364A68" stroke-width="2" rx="4.917" ry="4.848"/>
        <ellipse cx="129.241" cy="196.052" fill="#38D611" stroke="#364A68" stroke-width="2" rx="4.917" ry="4.848"/>
        <ellipse cx="249.388" cy="193.043" fill="#38D611" stroke="#364A68" stroke-width="2" rx="4.917" ry="4.848"/>
        <ellipse cx="67.764" cy="231.222" fill="#38D611" stroke="#364A68" stroke-width="2" rx="4.917" ry="4.848"/>
        <path stroke="#364A68" stroke-width="3" d="M213.278 172.858l.815-.464v-.929"/>
        <path stroke="#364A68" stroke-dasharray="4.09" stroke-width="3" d="M214.093 169.57V102.19"/>
        <path stroke="#364A68" stroke-width="3" d="M214.093 101.242v-.929l-.815-.464"/>
        <path stroke="#364A68" stroke-dasharray="4.09" stroke-width="3" d="M211.61 98.897l-59.187-33.689"/>
        <path stroke="#364A68" stroke-width="3" d="M151.59 64.735l-.816-.465-.814.465"/>
        <path stroke="#364A68" stroke-dasharray="4.09" stroke-width="3" d="M148.292 65.682L89.104 99.37"/>
        <path stroke="#364A68" stroke-width="3" d="M88.27 99.849l-.814.464v.929"/>
        <path stroke="#364A68" stroke-dasharray="4.09" stroke-width="3" d="M87.456 103.136v67.382"/>
        <path stroke="#364A68" stroke-width="3" d="M87.456 171.465v.929l.815.464"/>
        <path stroke="#364A68" stroke-dasharray="4.09" stroke-width="3" d="M89.938 173.81l59.188 33.688"/>
        <path stroke="#364A68" stroke-width="3" d="M149.96 207.972l.814.464.815-.464"/>
        <path stroke="#364A68" stroke-dasharray="4.09" stroke-width="3" d="M153.256 207.025l59.188-33.689"/>
        <path fill="#38D611" stroke="#364A68" stroke-width="2" d="M168.558 237.607v-20.278l-17.812-10.142-17.812 10.142v20.278l17.812 10.136z"/>
        <path fill="#364A68" fill-rule="nonzero" d="M150.675 238.958c-2.623-2.586-5.006-5.46-6.617-8.888a14.095 14.095 0 0 1-1.498-5.827c-.086-4.161 3.05-7.705 7.243-8.186 4.193-.48 8.07 2.26 8.954 6.328a9.392 9.392 0 0 1 0 3.59 18.694 18.694 0 0 1-2.703 6.608 33.792 33.792 0 0 1-4.314 5.442c-.32.32-.693.603-1.065.933zm3.114-15.871c0-1.667-1.371-3.019-3.062-3.019-1.69 0-3.061 1.352-3.061 3.019.01 1.668 1.383 3.015 3.075 3.018a3.065 3.065 0 0 0 2.161-.884 2.978 2.978 0 0 0 .887-2.134z"/>
        <path fill="#364A68" stroke="#38D611" stroke-linejoin="round" stroke-width="5" d="M191.189 159.197v-46.472l-40.82-23.236-40.82 23.236v46.472l40.82 23.236z"/>
        <path fill="#38D611" d="M123.345 135.59v15.383l13.517 7.695 13.517-7.695 13.512 7.695 13.517-7.695V135.59l-13.512-7.7-.005 15.39-13.512-7.69-13.517 7.69v-15.385z"/>
    </g>
</svg>
