<svg xmlns="http://www.w3.org/2000/svg" width="287" height="263" viewBox="0 0 287 263">
    <g fill="none" fill-rule="evenodd">
        <g opacity=".5" transform="translate(1 1)">
            <path stroke="#B3B3B3" stroke-width=".86" d="M99.585 84.52L80.65 96.297v23.552l18.935 11.776 18.93-11.776V96.297"/>
            <path stroke="#B3B3B3" stroke-width=".86" d="M80.65 96.297l18.935 11.776v47.382"/>
            <path stroke="#B3B3B3" stroke-width=".86" d="M118.515 96.297l-18.93 11.776-18.935 11.776"/>
            <path stroke="#B3B3B3" stroke-width=".86" d="M99.585 108.073l18.93 11.776 13.01 8.517 6.05 3.963V84.41l18.934-11.777M42.785 119.858l-18.935-11.78M42.785 96.297l18.93 11.776v23.566l-18.93 12.34 18.93 12.008 18.935-11.873"/>
            <path stroke="#B3B3B3" stroke-width=".86" d="M80.65 96.297l-18.935 11.776-18.93 11.776M99.585 84.52L80.65 72.744V33.83l12.975-8.208M106.137 41.508l12.378 8.397M23.85 155.455L4.92 144.114M244.833 175.322V151.77l-18.93-11.776-18.935 11.776v23.552l18.934 11.777z"/>
            <path stroke="#B3B3B3" stroke-width=".86" d="M244.833 151.77l-18.93 11.776-18.935 11.776M137.575 60.857l18.934 11.776v23.552l-18.934 11.781-18.93-11.78V72.632"/>
            <path stroke="#B3B3B3" stroke-width=".86" d="M118.644 72.633l18.93 11.776 18.935 11.776M137.575 84.41l-18.93 11.775M137.575 60.857V37.305l18.934-11.776 18.93 11.776v23.552l-18.93 11.776z"/>
            <path stroke="#B3B3B3" stroke-width=".86" d="M175.315 60.857L156.38 49.081l-18.934-11.776-18.93-11.059v23.636M194.375 96.195V72.643l18.93-11.777 18.935 11.777v23.552l-18.935 11.776"/>
            <path stroke="#B3B3B3" stroke-width=".86" d="M232.24 57.404l12.666 7.605-12.666 7.634-18.935 11.776v23.566"/>
            <path stroke="#B3B3B3" stroke-width=".86" d="M194.375 72.643l18.93 11.776 18.935 11.776v24.256l19.046 11.34v-23.214M194.375 96.195l18.934-11.776M156.51 96.185V72.633l18.93-11.776 18.935 11.776v23.552l-18.935 11.781z"/>
            <path stroke="#B3B3B3" stroke-width=".86" d="M194.375 72.633L175.44 84.41v23.571l18.935 12.341-18.935 12.008-19.004-11.92"/>
            <path stroke="#B3B3B3" stroke-width=".86" d="M156.51 72.633l18.93 11.776 18.935 11.776M137.575 60.857l18.934-11.776V10.165l-12.975-8.207M130.893 17.845l-12.378 8.401M118.571 191.413v23.557l-18.93 11.776-18.935-11.776v-23.557l18.935-11.776z"/>
            <path stroke="#B3B3B3" stroke-width=".86" d="M99.64 179.623v23.57L80.707 214.97l-18.93 11.776v15.368"/>
            <path stroke="#B3B3B3" stroke-width=".86" d="M118.571 214.97l-18.93-11.777-18.935-11.78M118.571 191.417l-18.93 11.776M156.436 191.422l-18.93-11.776v-23.552l18.93-11.776 18.935 11.776v23.552"/>
            <path stroke="#B3B3B3" stroke-width=".86" d="M137.506 179.646l18.93-11.776v-47.461"/>
            <path stroke="#B3B3B3" stroke-width=".86" d="M175.371 179.646l-18.935-11.776-18.93-11.776"/>
            <path stroke="#B3B3B3" stroke-width=".86" d="M156.436 167.87l18.935-11.776 13.01-8.518M156.436 191.422v23.552l-18.93 11.776-18.935-11.776v-23.552l18.935-11.776z"/>
            <path stroke="#B3B3B3" stroke-width=".86" d="M118.571 191.422l18.935 11.776 18.93 11.776 14.209 8.3 17.392 10.341M99.64 156.084v23.553l-18.934 11.776-18.93-11.776v-23.553"/>
            <path stroke="#B3B3B3" stroke-width=".86" d="M61.775 194.88l-12.67-7.61 12.67-7.633 18.93-11.776v-23.567M99.64 156.084l-18.934 11.777M137.506 156.094v23.552l-18.935 11.776-18.93-11.776v-23.552l18.93-11.776z"/>
            <path stroke="#B3B3B3" stroke-width=".86" d="M99.64 179.646l18.931-11.776v-23.566l-18.93-12.341"/>
            <path stroke="#B3B3B3" stroke-width=".86" d="M137.506 179.646L118.57 167.87l-18.93-11.776M49.105 218.895l12.67 7.85M49.105 171.86v15.41M118.571 261.801v-23.487l-18.93-11.568v23.71M156.436 191.422l-18.93 11.776v38.916l12.975 8.207M206.968 151.77l37.865 23.552"/>
            <ellipse cx="80.654" cy="72.633" fill="gray" rx="1.817" ry="1.958"/>
            <ellipse cx="42.793" cy="96.32" fill="gray" rx="1.817" ry="1.958"/>
            <ellipse cx="42.785" cy="120.002" fill="gray" rx="1.817" ry="1.958"/>
            <ellipse cx="23.635" cy="108.096" fill="gray" rx="1.817" ry="1.958"/>
            <ellipse cx="4.92" cy="144.114" fill="gray" rx="1.817" ry="1.958"/>
            <ellipse cx="23.248" cy="155.159" fill="gray" rx="1.817" ry="1.958"/>
            <ellipse cx="61.715" cy="108.096" fill="gray" rx="1.817" ry="1.958"/>
            <ellipse cx="61.775" cy="131.625" fill="gray" rx="1.817" ry="1.958"/>
            <ellipse cx="80.65" cy="120.002" fill="gray" rx="1.817" ry="1.958"/>
            <ellipse cx="42.793" cy="144.114" fill="gray" rx="1.817" ry="1.958"/>
            <ellipse cx="80.654" cy="49.474" fill="gray" rx="1.817" ry="1.958"/>
            <ellipse cx="80.714" cy="33.829" fill="gray" rx="1.817" ry="1.958"/>
            <ellipse cx="93.548" cy="25.621" fill="gray" rx="1.817" ry="1.958"/>
            <ellipse cx="99.576" cy="61.255" fill="gray" rx="1.817" ry="1.958"/>
            <ellipse cx="106.137" cy="41.591" fill="gray" rx="1.817" ry="1.958"/>
            <ellipse cx="118.515" cy="49.905" fill="gray" rx="1.817" ry="1.958"/>
            <ellipse cx="118.515" cy="26.246" fill="gray" rx="1.817" ry="1.958"/>
            <ellipse cx="130.893" cy="17.845" fill="gray" rx="1.817" ry="1.958"/>
            <ellipse cx="137.575" cy="37.31" fill="gray" rx="1.817" ry="1.958"/>
            <ellipse cx="137.575" cy="60.973" fill="gray" rx="1.817" ry="1.958"/>
            <ellipse cx="175.315" cy="60.857" fill="gray" rx="1.817" ry="1.958"/>
            <ellipse cx="156.436" cy="49.586" fill="gray" rx="1.817" ry="1.958"/>
            <ellipse cx="156.509" cy="72.633" fill="gray" rx="1.817" ry="1.958"/>
            <ellipse cx="156.574" cy="96.056" fill="gray" rx="1.817" ry="1.958"/>
            <ellipse cx="194.31" cy="95.94" fill="gray" rx="1.817" ry="1.958"/>
            <ellipse cx="213.309" cy="84.419" fill="gray" rx="1.817" ry="1.958"/>
            <ellipse cx="213.309" cy="108.073" fill="gray" rx="1.817" ry="1.958"/>
            <ellipse cx="194.31" cy="120.409" fill="gray" rx="1.817" ry="1.958"/>
            <ellipse cx="175.9" cy="131.963" fill="gray" rx="1.817" ry="1.958"/>
            <ellipse cx="156.574" cy="120.95" fill="gray" rx="1.817" ry="1.958"/>
            <ellipse cx="156.436" cy="144.318" fill="gray" rx="1.817" ry="1.958"/>
            <ellipse cx="175.371" cy="156.094" fill="gray" rx="1.817" ry="1.958"/>
            <ellipse cx="137.575" cy="156.441" fill="gray" rx="1.817" ry="1.958"/>
            <ellipse cx="188.037" cy="147.572" fill="gray" rx="1.817" ry="1.958"/>
            <ellipse cx="232.24" cy="96.056" fill="gray" rx="1.817" ry="1.958"/>
            <ellipse cx="251.286" cy="109.017" fill="gray" rx="1.817" ry="1.958"/>
            <ellipse cx="251.286" cy="131.625" fill="gray" rx="1.817" ry="1.958"/>
            <ellipse cx="232.24" cy="120.409" fill="gray" rx="1.817" ry="1.958"/>
            <ellipse cx="175.436" cy="84.669" fill="gray" rx="1.817" ry="1.958"/>
            <ellipse cx="175.504" cy="107.721" fill="gray" rx="1.817" ry="1.958"/>
            <ellipse cx="175.44" cy="37.555" fill="gray" rx="1.817" ry="1.958"/>
            <ellipse cx="156.509" cy="25.621" fill="gray" rx="1.817" ry="1.958"/>
            <ellipse cx="212.785" cy="60.811" fill="gray" rx="1.817" ry="1.958"/>
            <ellipse cx="194.375" cy="72.587" fill="gray" rx="1.817" ry="1.958"/>
            <ellipse cx="225.842" cy="163.792" fill="gray" rx="1.817" ry="1.958"/>
            <ellipse cx="244.837" cy="152.27" fill="gray" rx="1.817" ry="1.958"/>
            <ellipse cx="244.837" cy="175.119" fill="gray" rx="1.817" ry="1.958"/>
            <ellipse cx="225.842" cy="186.654" fill="gray" rx="1.817" ry="1.958"/>
            <ellipse cx="206.963" cy="152.52" fill="gray" rx="1.817" ry="1.958"/>
            <ellipse cx="207.036" cy="175.568" fill="gray" rx="1.817" ry="1.958"/>
            <ellipse cx="156.436" cy="167.861" fill="gray" rx="1.817" ry="1.958"/>
            <ellipse cx="137.575" cy="179.465" fill="gray" rx="1.817" ry="1.958"/>
            <ellipse cx="175.371" cy="179.646" fill="gray" rx="1.817" ry="1.958"/>
            <ellipse cx="156.479" cy="191.39" fill="gray" rx="1.817" ry="1.958"/>
            <ellipse cx="137.549" cy="202.902" fill="gray" rx="1.817" ry="1.958"/>
            <ellipse cx="156.479" cy="214.868" fill="gray" rx="1.817" ry="1.958"/>
            <ellipse cx="137.549" cy="226.565" fill="gray" rx="1.817" ry="1.958"/>
            <ellipse cx="137.549" cy="242.114" fill="gray" rx="1.817" ry="1.958"/>
            <ellipse cx="118.571" cy="238.193" fill="gray" rx="1.817" ry="1.958"/>
            <ellipse cx="99.641" cy="250.321" fill="gray" rx="1.817" ry="1.958"/>
            <ellipse cx="99.641" cy="226.565" fill="gray" rx="1.817" ry="1.958"/>
            <ellipse cx="80.65" cy="214.868" fill="gray" rx="1.817" ry="1.958"/>
            <ellipse cx="61.775" cy="226.565" fill="gray" rx="1.817" ry="1.958"/>
            <ellipse cx="61.715" cy="242.114" fill="gray" rx="1.817" ry="1.958"/>
            <ellipse cx="49.105" cy="218.895" fill="gray" rx="1.817" ry="1.958"/>
            <ellipse cx="150.554" cy="250.321" fill="gray" rx="1.817" ry="1.958"/>
            <ellipse cx="118.674" cy="192.431" fill="gray" rx="1.817" ry="1.958"/>
            <ellipse cx="99.576" cy="203.198" fill="gray" rx="1.817" ry="1.958"/>
            <ellipse cx="80.706" cy="191.39" fill="gray" rx="1.817" ry="1.958"/>
            <ellipse cx="99.641" cy="179.646" fill="gray" rx="1.817" ry="1.958"/>
            <ellipse cx="118.515" cy="167.861" fill="gray" rx="1.817" ry="1.958"/>
            <ellipse cx="118.515" cy="144.318" fill="gray" rx="1.817" ry="1.958"/>
            <ellipse cx="99.576" cy="156.094" fill="gray" rx="1.817" ry="1.958"/>
            <ellipse cx="80.706" cy="167.861" fill="gray" rx="1.817" ry="1.958"/>
            <ellipse cx="61.775" cy="179.623" fill="gray" rx="1.817" ry="1.958"/>
            <ellipse cx="61.775" cy="155.987" fill="gray" rx="1.817" ry="1.958"/>
            <ellipse cx="80.65" cy="144.294" fill="gray" rx="1.817" ry="1.958"/>
            <ellipse cx="49.105" cy="187.099" fill="gray" rx="1.817" ry="1.958"/>
            <ellipse cx="49.105" cy="171.86" fill="gray" rx="1.817" ry="1.958"/>
            <ellipse cx="61.715" cy="194.875" fill="gray" rx="1.817" ry="1.958"/>
            <ellipse cx="118.747" cy="215.479" fill="gray" rx="1.817" ry="1.958"/>
            <ellipse cx="188.11" cy="233.615" fill="gray" rx="1.817" ry="1.958"/>
            <ellipse cx="225.907" cy="140.438" fill="gray" rx="1.817" ry="1.958"/>
            <ellipse cx="232.983" cy="57.862" fill="gray" rx="1.817" ry="1.958"/>
            <ellipse cx="244.906" cy="64.894" fill="gray" rx="1.817" ry="1.958"/>
            <ellipse cx="232.24" cy="72.587" fill="gray" rx="1.817" ry="1.958"/>
            <ellipse cx="156.436" cy="10.165" fill="gray" rx="1.817" ry="1.958"/>
            <ellipse cx="143.869" cy="1.958" fill="gray" rx="1.817" ry="1.958"/>
            <ellipse cx="99.576" cy="84.692" fill="gray" rx="1.817" ry="1.958"/>
            <ellipse cx="80.654" cy="96.597" fill="gray" rx="1.817" ry="1.958"/>
            <ellipse cx="99.636" cy="107.952" fill="gray" rx="1.817" ry="1.958"/>
            <ellipse cx="99.692" cy="131.481" fill="gray" rx="1.817" ry="1.958"/>
            <ellipse cx="118.567" cy="119.858" fill="gray" rx="1.817" ry="1.958"/>
            <ellipse cx="137.575" cy="131.963" fill="gray" rx="1.817" ry="1.958"/>
            <ellipse cx="118.575" cy="96.454" fill="gray" rx="1.817" ry="1.958"/>
            <ellipse cx="137.575" cy="84.409" fill="gray" rx="1.817" ry="1.958"/>
            <ellipse cx="118.644" cy="72.587" fill="gray" rx="1.817" ry="1.958"/>
            <ellipse cx="137.506" cy="107.721" fill="gray" rx="1.817" ry="1.958"/>
            <ellipse cx="106.137" cy="41.411" stroke="#B3B3B3" stroke-width=".86" rx="4.735" ry="5.101"/>
            <ellipse cx="156.436" cy="10.35" stroke="#B3B3B3" stroke-width=".86" rx="4.735" ry="5.101"/>
            <ellipse cx="232.24" cy="72.656" stroke="#B3B3B3" stroke-width=".86" rx="4.735" ry="5.101"/>
            <ellipse cx="251.286" cy="131.481" stroke="#B3B3B3" stroke-width=".86" rx="4.735" ry="5.101"/>
            <ellipse cx="244.906" cy="175.119" stroke="#B3B3B3" stroke-width=".86" rx="4.735" ry="5.101"/>
            <ellipse cx="225.902" cy="140.438" stroke="#B3B3B3" stroke-width=".86" rx="4.735" ry="5.101"/>
            <ellipse cx="137.476" cy="242.114" stroke="#B3B3B3" stroke-width=".86" rx="4.735" ry="5.101"/>
            <ellipse cx="99.641" cy="250.321" stroke="#B3B3B3" stroke-width=".86" rx="4.735" ry="5.101"/>
            <ellipse cx="61.715" cy="226.565" stroke="#B3B3B3" stroke-width=".86" rx="4.735" ry="5.101"/>
            <ellipse cx="175.9" cy="131.625" stroke="#B3B3B3" stroke-width=".86" rx="4.735" ry="5.101"/>
            <ellipse cx="80.65" cy="144.318" stroke="#B3B3B3" stroke-width=".86" rx="4.735" ry="5.101"/>
            <ellipse cx="99.576" cy="84.692" stroke="#B3B3B3" stroke-width=".86" rx="4.735" ry="5.101"/>
            <ellipse cx="49.105" cy="187.27" stroke="#B3B3B3" stroke-width=".86" rx="4.735" ry="5.101"/>
            <ellipse cx="118.515" cy="167.87" stroke="#B3B3B3" stroke-width=".86" rx="4.735" ry="5.101"/>
            <ellipse cx="4.92" cy="144.114" stroke="#B3B3B3" stroke-width=".86" rx="4.735" ry="5.101"/>
        </g>
        <path fill="#38D611" stroke="#364A68" stroke-width="2" d="M83.588 142.105V121.89l-16.245-10.105-16.25 10.105v20.215l16.25 10.11z"/>
        <path stroke="#364A68" stroke-width="3" d="M128.078 69.56l.748-.463v-.926"/>
        <path stroke="#364A68" stroke-dasharray="4.03" stroke-width="3" d="M128.826 66.306V26.177"/>
        <path stroke="#364A68" stroke-width="3" d="M128.826 25.242v-.926l-.748-.463"/>
        <path stroke="#364A68" stroke-dasharray="4.03" stroke-width="3" d="M126.579 22.923L94.325 2.856"/>
        <path stroke="#364A68" stroke-width="3" d="M93.573 2.389l-.743-.463-.744.463"/>
        <path stroke="#364A68" stroke-dasharray="4.03" stroke-width="3" d="M90.587 3.324L58.328 23.39"/>
        <path stroke="#364A68" stroke-width="3" d="M57.58 23.853l-.742.463v.926"/>
        <path stroke="#364A68" stroke-dasharray="4.03" stroke-width="3" d="M56.838 27.112v40.124"/>
        <path stroke="#364A68" stroke-width="3" d="M56.838 68.171v.926l.743.463"/>
        <path stroke="#364A68" stroke-dasharray="4.03" stroke-width="3" d="M59.08 70.495l32.254 20.062"/>
        <path stroke="#364A68" stroke-width="3" d="M92.086 91.024l.744.463.743-.463"/>
        <path stroke="#364A68" stroke-dasharray="4.03" stroke-width="3" d="M95.077 90.09l32.254-20.063"/>
        <path stroke="#364A68" stroke-width="3" d="M103.335 154.39v-44.78L67.343 87.22l-35.997 22.39v44.78l35.997 22.39zM128.512 238.99l.743-.463v-.926"/>
        <path stroke="#364A68" stroke-dasharray="4.03" stroke-width="3" d="M129.255 235.73v-40.123"/>
        <path stroke="#364A68" stroke-width="3" d="M129.255 194.672v-.926l-.743-.463"/>
        <path stroke="#364A68" stroke-dasharray="4.03" stroke-width="3" d="M127.008 192.348l-32.254-20.062"/>
        <path stroke="#364A68" stroke-width="3" d="M94.002 171.818l-.743-.462-.743.462"/>
        <path stroke="#364A68" stroke-dasharray="4.03" stroke-width="3" d="M91.016 172.753l-32.258 20.062"/>
        <path stroke="#364A68" stroke-width="3" d="M58.01 193.283l-.743.463v.926"/>
        <path stroke="#364A68" stroke-dasharray="4.03" stroke-width="3" d="M57.267 196.537v40.129"/>
        <path stroke="#364A68" stroke-width="3" d="M57.267 237.6v.927l.744.463"/>
        <path stroke="#364A68" stroke-dasharray="4.03" stroke-width="3" d="M59.51 239.92l32.254 20.067"/>
        <path stroke="#364A68" stroke-width="3" d="M92.516 260.45l.743.462.743-.463"/>
        <path stroke="#364A68" stroke-dasharray="4.03" stroke-width="3" d="M95.506 259.519l32.254-20.067"/>
        <path stroke="#364A68" stroke-width="3" d="M139.03 176.017v44.776l35.996 22.39 35.997-22.39v-44.776l-35.997-22.39zM213.42 108.846l-.743.463v.926"/>
        <path stroke="#364A68" stroke-dasharray="4.03" stroke-width="3" d="M212.677 112.1v40.129"/>
        <path stroke="#364A68" stroke-width="3" d="M212.677 153.164v.925l.743.463"/>
        <path stroke="#364A68" stroke-dasharray="4.03" stroke-width="3" d="M214.92 155.483l32.258 20.066"/>
        <path stroke="#364A68" stroke-width="3" d="M247.925 176.012l.744.463.747-.463"/>
        <path stroke="#364A68" stroke-dasharray="4.03" stroke-width="3" d="M250.916 175.082l32.254-20.062"/>
        <path stroke="#364A68" stroke-width="3" d="M283.922 154.552l.743-.463v-.925"/>
        <path stroke="#364A68" stroke-dasharray="4.03" stroke-width="3" d="M284.665 151.298V111.17"/>
        <path stroke="#364A68" stroke-width="3" d="M284.665 110.235v-.926l-.743-.463"/>
        <path stroke="#364A68" stroke-dasharray="4.03" stroke-width="3" d="M282.422 107.915L250.164 87.85"/>
        <path stroke="#364A68" stroke-width="3" d="M249.416 87.381l-.747-.463-.744.463"/>
        <path stroke="#364A68" stroke-dasharray="4.03" stroke-width="3" d="M246.426 88.316l-32.254 20.062"/>
        <path stroke="#364A68" stroke-width="3" d="M138.67 42.915v44.781l35.991 22.39 35.996-22.39v-44.78L174.661 20.53z"/>
        <path fill="#364A68" d="M66.088 142.313v-2.638a9.848 9.848 0 0 1-4.37-1.194l.77-3.24a8.783 8.783 0 0 0 4.275 1.217c1.469 0 2.474-.625 2.474-1.722s-.825-1.708-2.737-2.403c-2.754-1.004-4.631-2.393-4.631-5.092 0-2.453 1.59-4.37 4.352-4.939v-2.634h2.53v2.45a8.643 8.643 0 0 1 3.726.902l-.765 3.138a7.736 7.736 0 0 0-3.7-.958c-1.653 0-2.199.792-2.199 1.565 0 .925.898 1.504 3.08 2.374 3.068 1.158 4.297 2.685 4.297 5.199 0 2.513-1.607 4.555-4.563 5.092v2.846l-2.539.037z"/>
        <path fill="#38D611" stroke="#364A68" stroke-width="2" d="M109.079 56.816V36.601l-16.25-10.11-16.249 10.11v20.215l16.25 10.105zM190.91 75.415V55.201l-16.249-10.11-16.245 10.11v20.214L174.66 85.52zM264.918 141.804V121.59l-16.25-10.105-16.245 10.105v20.215l16.246 10.11zM191.276 208.512v-20.214l-16.25-10.105-16.25 10.105v20.214l16.25 10.105zM109.509 226.241v-20.214l-16.25-10.105-16.25 10.105v20.214l16.25 10.11z"/>
        <path fill="#364A68" d="M83.003 216.136c0-6.1 4.59-11.047 10.252-11.05 5.662-.002 10.255 4.94 10.26 11.041.005 6.1-4.58 11.051-10.243 11.059-2.722.002-5.333-1.16-7.259-3.233-1.926-2.072-3.008-4.884-3.01-7.817z"/>
        <path fill="#38D611" d="M94.045 214.354v2.315c.009.309-.103.608-.309.824-1.078 1.18-2.148 2.36-3.235 3.536a.764.764 0 0 1-1.137.026.914.914 0 0 1-.023-1.225c.97-1.08 1.945-2.16 2.921-3.24a.593.593 0 0 0 .168-.463v-4.314c0-.365.216-.69.537-.806a.721.721 0 0 1 .88.283c.113.186.177.402.186.625.025.847.012 1.643.012 2.44z"/>
        <path fill="#364A68" d="M177.535 67.44c.058.031.11.07.16.115 1.878 2.01 3.752 4.023 5.62 6.041.11.112.197.248.257.398a.732.732 0 0 1-.262.82.643.643 0 0 1-.786 0 2.552 2.552 0 0 1-.21-.213l-5.612-6.018-.125-.125c-1.564 1.39-3.638 1.92-5.615 1.435-1.603-.347-3.021-1.34-3.966-2.777-2.036-3.025-1.582-7.227 1.045-9.667 2.628-2.44 6.552-2.303 9.029.314 2.476 2.616 2.678 6.84.465 9.718v-.041z"/>
        <path fill="#38D611" d="M167.68 62.593c.128-2.675 2.158-4.785 4.644-4.828a.402.402 0 0 1 .43.32.405.405 0 0 1-.185.462.664.664 0 0 1-.284.074c-1.91.055-3.51 1.576-3.798 3.611-.026.195-.03.398-.039.597.001.239-.166.44-.386.463a.383.383 0 0 1-.277-.131.445.445 0 0 1-.11-.304c0-.102.004-.185.004-.264z"/>
        <path fill="#364A68" stroke="#364A68" stroke-width="3" d="M175.628 206.392h-6.797c-.566.045-1.1-.287-1.345-.838a1.736 1.736 0 0 1-.146-.708v-12.299a1.55 1.55 0 0 1 .404-1.11c.273-.292.646-.449 1.03-.431h3.129c.482-.001.934.255 1.207.685l.464.666c.276.418.728.658 1.203.639h7.652c.566-.048 1.1.29 1.336.847.098.234.148.489.146.745V204.8a1.57 1.57 0 0 1-.41 1.16c-.286.305-.68.462-1.08.432-2.256.005-4.529 0-6.793 0z"/>
        <path fill="#364A68" fill-rule="nonzero" d="M238.65 129.648c.678-.365 1.348-.754 2.04-1.087.309-.147.544-.43.644-.778a1.729 1.729 0 0 0-.03-1.389c-.275-.638-.48-1.305-.721-1.958a.249.249 0 0 1 .051-.3c.554-.589 1.109-1.181 1.65-1.778a.217.217 0 0 1 .292-.06c.774.333 1.55.659 2.329.976.08.03.168.03.25 0 .296-.097.588-.208.858-.328.08-.037.146-.1.19-.18.378-.803.75-1.606 1.117-2.408a.227.227 0 0 1 .24-.157h2.2a.206.206 0 0 1 .215.148c.37.811.743 1.62 1.121 2.425.043.08.11.142.19.176.287.12.58.227.859.324.082.03.17.03.253 0 .79-.324 1.577-.657 2.359-.99a.172.172 0 0 1 .232.05 88.626 88.626 0 0 0 1.688 1.815.21.21 0 0 1 .043.264c-.343.838-.679 1.676-1.022 2.514a.326.326 0 0 0 0 .3c.137.306.253.62.386.926.039.09.1.165.177.218.744.407 1.49.807 2.238 1.199.1.041.16.15.146.264v2.347a.233.233 0 0 1-.15.254c-.705.352-1.407.711-2.106 1.079a.496.496 0 0 0-.193.222c-.142.305-.275.62-.4.926a.382.382 0 0 0 0 .25c.301.851.606 1.698.916 2.54a.234.234 0 0 1-.052.283 64.07 64.07 0 0 0-1.675 1.801.172.172 0 0 1-.228.05l-2.342-.99a.31.31 0 0 0-.296.028c-.284.148-.576.273-.86.421a.443.443 0 0 0-.184.18c-.383.806-.757 1.612-1.13 2.422a.202.202 0 0 1-.215.148h-2.213a.202.202 0 0 1-.215-.148c-.37-.806-.743-1.608-1.121-2.407a.441.441 0 0 0-.21-.2 12.19 12.19 0 0 0-.86-.328.4.4 0 0 0-.253 0c-.782.324-1.563.653-2.342.986a.197.197 0 0 1-.262-.056 160.184 160.184 0 0 0-1.671-1.805.2.2 0 0 1-.043-.264c.343-.842.683-1.685 1.026-2.532a.287.287 0 0 0 0-.264 12.421 12.421 0 0 1-.373-.893.48.48 0 0 0-.245-.296 171.15 171.15 0 0 1-2.204-1.19c-.052-.028-.12-.102-.12-.157.02-.852.025-1.718.025-2.593zm6.26 1.361c.004 2.237 1.69 4.046 3.766 4.041 2.075-.004 3.755-1.82 3.752-4.056-.003-2.236-1.688-4.047-3.764-4.044-1.003-.018-1.97.404-2.678 1.17a4.148 4.148 0 0 0-1.077 2.89zM95.012 35.944v5.092c0 .463.116.588.546.588h4.799v15.072c0 .435-.12.565-.524.565H86.329c-.4 0-.529-.135-.529-.565V36.49c0-.402.138-.56.499-.56h8.537l.176.014zm-1.916 10.647h5.087c.197.013.368-.145.387-.357.029-.217-.105-.42-.305-.463a1.125 1.125 0 0 0-.25 0h-9.882a1.536 1.536 0 0 0-.206 0c-.19.015-.337.184-.34.39 0 .272.164.416.486.416l5.023.014zm0 6.416h-4.95a.882.882 0 0 0-.249 0 .382.382 0 0 0-.284.36.389.389 0 0 0 .25.39c.073.024.15.035.227.032h9.986a.734.734 0 0 0 .244-.037.362.362 0 0 0 .237-.38.348.348 0 0 0-.262-.36 1.053 1.053 0 0 0-.271 0l-4.928-.005zm.043-1.611h5.044c.174.017.334-.101.383-.281a.406.406 0 0 0-.181-.46.692.692 0 0 0-.322-.06h-9.934a1.013 1.013 0 0 0-.206 0c-.189.024-.327.203-.314.407 0 .2.146.363.331.37.083.005.166.005.25 0l4.949.024zm0-2.407h5.104a.35.35 0 0 0 .331-.156.414.414 0 0 0 .041-.386.365.365 0 0 0-.29-.231 1.197 1.197 0 0 0-.288 0h-9.865a1.225 1.225 0 0 0-.292 0c-.167.03-.284.193-.27.374 0 .26.154.394.476.394l5.053.005zm0-4.81h5.104a.347.347 0 0 0 .282-.139c.07-.09.097-.21.075-.324-.052-.227-.194-.32-.503-.32H87.95a.347.347 0 0 0-.25.128.403.403 0 0 0-.09.28.386.386 0 0 0 .098.263c.064.07.15.11.242.112.077.005.154.005.232 0h4.958zm-2.578-3.24h-2.488c-.3 0-.455.166-.43.463.026.296.164.356.43.36h4.971a.417.417 0 0 0 .34-.161.494.494 0 0 0 .034-.408.502.502 0 0 0-.37-.213c-.859-.06-1.688-.05-2.517-.05l.03.009z"/>
        <path fill="#364A68" d="M100.495 40.346h-3.97c-.241 0-.344-.102-.344-.347v-4.166s0-.028.03-.079l4.296 4.55-.012.042z"/>
        <path fill="#364A68" stroke="#38D611" stroke-linejoin="round" stroke-width="5" d="M175.413 155.765v-46.327l-37.238-23.163-37.238 23.163v46.327l37.238 23.164z"/>
        <path fill="#38D611" d="M113.522 132.227v15.34l12.33 7.67 12.332-7.67 12.326 7.67 12.331-7.67v-15.34l-12.326-7.67-.005 15.34-12.326-7.67-12.331 7.67v-15.336z"/>
    </g>
</svg>
